<svg width="160" height="232" viewBox="0 0 160 232" fill="none" xmlns="http://www.w3.org/2000/svg">
<g clip-path="url(#clip0_36_2)">
<path d="M79.52 0.01C79.37 0.01 79.22 0 79.07 0C78.92 0.01 78.77 0.01 78.61 0.01C42.3 0.58 12.74 30.21 12.75 66.06C12.75 106.92 53.97 148.24 74.84 166.55C74.86 166.57 74.88 166.59 74.91 166.61C76.4 167.93 77.8 169.12 79.06 170.19C97.91 154.28 145.38 109.89 145.38 66.06C145.38 30.21 115.84 0.58 79.52 0.01ZM79.69 93.68C60.53 93.68 44.99 78.35 44.99 59.43C44.99 40.52 60.53 25.18 79.69 25.18C98.86 25.18 114.39 40.52 114.39 59.43C114.4 78.35 98.86 93.68 79.69 93.68Z" fill="white"/>
<path d="M80 232C40.25 232 0 220.75 0 199.24C0 184.15 19.82 174.12 45.36 169.47C50.31 174.37 54.98 178.69 59.09 182.3C31.26 185.37 14.91 194.06 14.91 199.24C14.91 205.6 39.62 217.28 80 217.28C120.38 217.28 145.1 205.59 145.1 199.24C145.1 193.96 128.06 185.04 99.22 182.14C103.36 178.5 108.08 174.14 113.06 169.18C139.37 173.7 160.01 183.84 160.01 199.24C160 220.75 119.76 232 80 232Z" fill="white"/>
</g>
<defs>
<clipPath id="clip0_36_2">
<rect width="160" height="232" fill="white"/>
</clipPath>
</defs>
</svg>
