<svg id="Capa_1" data-name="Capa 1" xmlns="http://www.w3.org/2000/svg" viewBox="0 0 480 480"><defs><style>.cls-1{fill:none;}.cls-2{fill:#3c3c3b;}</style></defs><rect class="cls-1" width="480" height="480"/><path class="cls-2" d="M479.25,317.32c-1.66-4.36-5.13-7.23-9.05-9-2.48-1.15-5.74-.78-8.65-.8-9.47-.08-18.93,0-29.36,0,1.2-1.63,1.85-2.44,2.43-3.3,2.94-4.36,5.92-8.69,8.72-13.14a2.64,2.64,0,0,0-.73-2.42c-2.72-.85-5.59-1.26-8.32-2.09-2-.6-4.28-1.16-5.59-2.53a84.74,84.74,0,0,1-7.12-9.33c-5.94-8.34-11.73-16.79-17.79-25a144.61,144.61,0,0,0-11.08-13.71c-9.49-10.06-19.3-19.87-31.08-27.28-7.6-4.78-15.48-9.16-23.49-13.21-6.69-3.38-13.76-6-20.65-9-3.87-1.66-7.62-3.74-11.63-4.91a178.93,178.93,0,0,0-17.48-4c-9.87-1.84-19.78-3.44-30.06-5.2-.59-1.33-1.49-3.32-2.21-4.91,2.87-1.61,5.74-3,8.39-4.74,5.53-3.63,5-13.14-1-16-4.22-2-8.58-3.77-12.93-5.53a17.37,17.37,0,0,0-5.32-1.53c-9.81-.58-19.31.77-28.23,5.15-5.9,2.9-8.13,11.91-3.84,16.49,2.65,2.83,5.8,5.2,8.64,7.7a13.94,13.94,0,0,1-1.45,3.54,5,5,0,0,1-2.82,1.83c-7.54,1.27-15.19,2-22.66,3.63-5.78,1.24-11.37,3.39-17,5.26-6.1,2-12.3,3.89-18.21,6.39-13.69,5.79-27.19,12-39.38,20.64-6.53,4.64-13.19,9.09-19.68,13.77-2.32,1.67-4.21,3.91-6.45,5.7-4.33,3.44-9.07,6.43-13.08,10.2a161.66,161.66,0,0,0-14.21,15.28,106,106,0,0,0-10.4,15c-2.74,4.86-4.47,10.28-6.79,15.39a3,3,0,0,1-2.26,1.47,104.84,104.84,0,0,1-11.75-1c-3.76-.6-5.88.65-5.42,4.32.26,2.11,1.49,4.18,2.59,6.09,1.86,3.21,4,6.27,5.95,9.38a25.46,25.46,0,0,1-4.68.88c-6.28-.1-12.59-.78-18.84-.41-4,.24-8.63-.72-11.91,3-1.56,1.78-4.15,2.89-3.13,6,1.51,4.69,1.46,4.7,6.21,4.71a43.82,43.82,0,0,0,4.44,0,7.6,7.6,0,0,1,6.85,2.44,62.3,62.3,0,0,0,8.6,7.89c2.86,2.06,6.12,4.3,9.45,4.81,6.8,1,13.76,1,20.66,1.36,6.35.29,12.71.54,19.08.6,9.65.1,19.3,0,29,.1a2.06,2.06,0,0,1,1.55-.64c13.5,0,26.88,1.75,40.33,2.71-.4-.35-.78-.66-1.18-1l92.29,1-.38.49c1,0,1.93,0,2.89,0a2.16,2.16,0,0,1,.27,0c10,0,19.92.66,29.89.64,9.71,0,19.41-.31,29.12-.68,2.76-.1,5.52-.22,8.28-.34,16.14-3.63,33.3-2.83,49.67-2.82a2.13,2.13,0,0,1,.58.12c0-.06,0-.11,0-.18,13,0,25.72,0,38.45,0,1.39,0,2.79.48,4.18.45,5.32-.09,10.63-.4,15.94-.44,10.88-.08,21.75,0,32.62-.09a3.52,3.52,0,0,0,2.47-1.11c1.79-2.3,3.3-4.82,5-7.16,1.59-2.14,3-5.36,5.1-6,4.3-1.23,9-1,13.55-1.39l4.82-.39A31.22,31.22,0,0,0,479.25,317.32Zm-66.11-49.95,6.11,10.3c-.31.18-5.12-6.25-7.22-9.65Zm5.05,15c.23.48-.83,1.57-1.29,2.38l-.84-.38q-1.71-5.39-3.44-10.77C412.86,273.54,416.73,279.3,418.19,282.41ZM229.61,144.63c6.15-1.72,12.15-.3,18.12.86a36.59,36.59,0,0,1,9.57,3.1c1.51.77,2.25,3.08,3.35,4.73-9.45,4.15-40.45,3.83-45.69-.55C219.06,148.56,224.07,146.18,229.61,144.63ZM218.85,159a24.54,24.54,0,0,1-2.42-2.77c13.8,2.11,26.64,4.83,40.24,1.07-2.19,5.12-4.78,6.26-9.14,5.85-3.21-.31-6.51.35-9.74.21C231.23,163.1,224.46,163.46,218.85,159Zm26.6,13.48c-4.68,0-9.36-.27-13.92,1.22-1,.34-2.28.05-3.66.05.11-.58.15-.93.25-1.28,1.55-5.91,3.16-6.81,9.39-5.6a42.49,42.49,0,0,0,6.19.53c1.92.08,3.85,0,6,0C250.31,172.52,250.31,172.52,245.45,172.51ZM60.94,276.71c4.72-12.6,13.12-22.56,22.54-31.68,8.76-8.47,17.84-16.62,27.09-24.55a127.91,127.91,0,0,1,17.35-12.78c7.06-4.21,14.67-7.52,22.11-11.07,4.38-2.08,8.83-4,13.36-5.75,6.07-2.27,12.22-4.33,18.39-6.32a116,116,0,0,1,13.38-3.73c5.2-1,10.51-1.44,15.79-2a152.73,152.73,0,0,1,16.37-1.2c7.79.06,15.56.86,23.35,1.11,3.45.11,6.93-.63,10.38-.48a104.29,104.29,0,0,1,12.69,1.38c9.27,1.52,18.58,2.95,27.75,5,4.22.94,8.26,3,12.18,4.94,8.63,4.3,17.45,8.36,25.6,13.46a280.69,280.69,0,0,1,26,18.72,202,202,0,0,1,18.21,16.91c6.44,6.58,12.75,13.33,18.52,20.48a55.18,55.18,0,0,1,10.74,21.72,28.09,28.09,0,0,0,1.29,3.44,3,3,0,0,1-2.5,4.09q-16,1-32.07,1.9c-5.44.32-35.17,1.63-44.59,1.76q-16.72.24-33.44-.57c-10.51-.5-21-1.69-31.54-.81a191.4,191.4,0,0,1-20.47.2c-5.68-.14-11.34-1.06-17-1.08-6.25,0-12.51.63-18.77.92-3.28.15-6.57.2-9.85.21-8.67,0-17.34.16-26-.05-5.51-.13-11-.9-16.53-1.16-4-.2-8.1-.05-12.15-.05-8.24,0-16.47.08-24.7,0-5.87-.07-11.74-.5-17.6-.56-3.28,0-6.56.55-9.83.53-4.4,0-8.79-.34-13.18-.6-6.66-.38-13.32-.92-20-1.18-2-.08-3.19-.55-3.3-2.67C60.34,282.36,59.84,279.67,60.94,276.71Zm350.53,14.34c-4.55.39-13.74.48-13.79.14l13.52-1.82ZM37.83,289.88c6.44.4,12.05.91,17.66,1.05,7.09.17,14.19-.08,21.28.1,3.4.09,6.78.87,10.19,1.11a85.25,85.25,0,0,0,8.61.07c4.17-.12,8.35-.66,12.51-.54,6.78.19,13.55.95,20.33,1.14,9.11.25,18.23.17,27.35.25,5.61.06,11.21.16,16.82.23,9.17.1,18.34.1,27.5.32,4.19.1,8.36.67,12.54.93,2.44.15,4.88.11,7.32.15,3.08,0,6.15.08,9.23.08,16.36,0,32.72,0,49.08,0,5.39,0,10.78-.37,16.16-.39,5.18,0,10.36.32,15.53.29,4.63,0,9.25-.44,13.88-.46,3.26,0,6.53.42,9.79.52s6.64.11,10,0c3.14-.09,6.28-.54,9.42-.56,13.54-.06,27.09.11,40.63-.08,7.24-.11,14.47-.84,21.72-1.2,5.79-.28,11.59-.44,17.39-.64,1,0,2,0,3.67,0a24.43,24.43,0,0,1-1.61,2.95c-2.11,2.8-4,5.82-6.52,8.21-1.69,1.61-4.23,3.2-6.44,3.25-8.49.21-17-.33-25.5-.34-10.55,0-21.1.44-31.64.34-7.93-.08-15.85-.79-23.78-1-5.38-.18-10.77-.06-16.15-.06-6.4,0-12.81-.05-19.21,0-11.06.15-22.12.5-33.18.56-16.11.11-32.22,0-48.32.06-10,.06-20,.6-30.05.56-24.88-.08-49.75-.42-74.63-.56-8,0-16,.34-24,.32-14.72,0-29.43-.23-44.15-.35-3.28,0-6-2.32-7.29-5.38a77.4,77.4,0,0,0-4.52-7.75C39,292.35,38.71,291.6,37.83,289.88ZM444.7,326.32c-2.89,1.86-5.5,4.15-8.53,5.33a33.21,33.21,0,0,1-10.81,2.28c-6.49.2-13-.42-19.5-.47-4.08,0-8.17.67-12.23.52-7.7-.28-15.39-1-23.09-1.41-3.15-.16-6.33.06-9.5.1-3,0-6,.53-8.83,0a63.13,63.13,0,0,0-14.06-1.2c-13.88.41-27.77.39-41.65.74-7.6.2-15.19.88-22.8,1.22q-16.43.72-32.87,1.26c-3.4.12-6.8.08-10.21,0-9.71-.18-19.42-.72-29.13-.53-8.13.16-16.25,1.2-24.38,1.73-1.62.11-3.28-.47-4.92-.54-6.37-.27-12.74-.37-19.11-.71-3.12-.17-6.21-.93-9.33-1s-6.24.45-9.36.41c-5.45-.06-10.89-.54-16.33-.51-10.22.05-20.44.42-30.66.5-4.18,0-8.36-.42-12.54-.57C63,333,51.16,332.69,39.33,332c-2-.11-4.13-1.53-5.95-2.73A56.92,56.92,0,0,1,26.83,324a33.83,33.83,0,0,1-3.22-4.1c1.75,0,2.74-.08,3.72,0,3.74.38,7.48.84,11.22,1.24,1,.11,2.09.12,3.13.18,6.89.42,13.76,1,20.65,1.21,5.39.16,10.8-.19,16.19-.25,1.49,0,3,.29,4.47.3,9.37,0,18.74.31,28.09-.08,13.12-.54,26.22-1.72,39.34-2.4,8.3-.44,16.63-.64,24.94-.63,10.2,0,20.4.52,30.6.54,7.85,0,15.71-.42,23.56-.58,11.83-.25,23.67-.54,35.5-.61,6.05,0,12.1.6,18.14.56,14.74-.08,29.51-1,44.21-.4,13,.56,25.89,2.14,38.91,1.72,8-.25,16-.7,24-.58,10.8.16,21.59.72,32.37,1.23,5.95.29,11.87.92,17.81,1.19C443.05,322.72,445,323,444.7,326.32ZM55.19,319c26.1-1.2,52.23-1.81,78.37-.69C107.46,320.7,81.35,321.77,55.19,319ZM338,317.38c14.68-2.59,29.26.68,43.9.75A273.84,273.84,0,0,1,338,317.38Zm130.8-1.67c-5.6-.11-11.21-.18-16.81-.1-12.31.18-24.62.62-36.94.65-7.32,0-14.65-.7-22-.85-5.69-.11-11.39.35-17.07.21-11.21-.27-22.41-.91-33.61-1.16-8.76-.2-17.52,0-26.28,0-8.54,0-17.07.08-25.61,0-7.24-.09-14.48-.5-21.72-.59q-32.88-.39-65.75-.64c-8.1-.07-16.2-.1-24.31,0-18.72.26-37.43.7-56.16.91-8.73.1-17.48-.08-26.22-.33-10.77-.3-21.54-.95-32.31-1.18-5.57-.12-11.14.46-16.71.51-11.33.1-22.67.09-34,0a32.61,32.61,0,0,1-5.14-.85l-.4-.91c1.67-.67,3.35-1.94,5-1.9,8.64.2,36.71-.76,39.33-.76q30.93.06,61.85,0c5.94,0,11.89-.58,17.83-.57,12.05,0,24.1.28,36.15.4,10,.09,20,.17,30,.18,12.18,0,24.36.07,36.55-.12,8.83-.14,17.67-.89,26.5-.91,7.84,0,15.68.62,23.51.89,1.53.05,3.07-.45,4.6-.46,12.65,0,25.3,0,38,0,7,0,14-.07,21,0,6.83.11,13.66.55,20.49.56s13.58-.5,20.37-.52c5.13,0,10.25.47,15.38.56,7.38.14,14.77.1,22.16.18q19.1.19,38.19.47c4.65.06,7.45,3.09,10,7C472.71,316.14,470.76,315.75,468.8,315.71Z"/><path class="cls-2" d="M227.92,187.26c7.69-3.2,20.9.9,22-1.27C238.78,182.81,230.68,183.56,227.92,187.26Z"/><path class="cls-2" d="M219.72,194.43c12.64-5.25,34.36,1.49,36.18-2.09C237.57,187.12,224.26,188.36,219.72,194.43Z"/><path class="cls-2" d="M77.39,253.52c.18-.05.39-.19.55-.14a9.06,9.06,0,0,1,2.62,1.52c3.47,2.51,6.76,5.25,10,8a18.61,18.61,0,0,1,3.7,3.61.3.3,0,0,1-.14.47.5.5,0,0,1-.29.05,1.5,1.5,0,0,1-.57-.21c-1.3-1-2.62-1.94-3.87-3-3.37-2.8-6.83-5.49-10.3-8.16a21.37,21.37,0,0,1-1.82-1.61C77.22,254,77.36,253.71,77.39,253.52Z"/><path class="cls-2" d="M126.68,235c.17.29.07.8-.17.78s-.45,0-.55-.11c-2.42-2.48-5.12-4.65-7.69-7a68.12,68.12,0,0,0-6.94-5.47,4.92,4.92,0,0,1-.67-.62.3.3,0,0,1,0-.29c.12-.12.33-.31.43-.28a9.89,9.89,0,0,1,1.94.84c1.36.9,2.68,1.86,4,2.86a87.81,87.81,0,0,1,9.15,8.52A6.68,6.68,0,0,1,126.68,235Z"/><path class="cls-2" d="M122.65,237.72c-.15-.29,0,0,.13.25a.47.47,0,0,1,0,.28c-.18.05-.41.15-.55.07a11.61,11.61,0,0,1-3-2.47c-1.55-1.62-3.25-3.06-4.92-4.54-2-1.75-4-3.43-6-5.15a4.85,4.85,0,0,1-.72-.95.33.33,0,0,1,0-.29.34.34,0,0,1,.28-.08,2.17,2.17,0,0,1,.85.26,77.79,77.79,0,0,1,10.67,9A18.32,18.32,0,0,1,122.65,237.72Z"/><path class="cls-2" d="M110.6,251.17c0,.24.08.43.11.63-.18,0-.41.1-.55,0a12.55,12.55,0,0,1-1.53-1l-10.58-8.33c-.89-.69-1.82-1.33-2.69-2a12.1,12.1,0,0,1-1.27-1.31c0-.06-.08-.25,0-.28s.35-.25.44-.21A15.44,15.44,0,0,1,96.87,240c3.29,2.59,6.72,5,9.9,7.72,1.08.93,2.18,1.84,3.26,2.77A5.65,5.65,0,0,1,110.6,251.17Z"/><path class="cls-2" d="M70,284c.15.34.31.69.45,1.06a.24.24,0,0,1-.09.23c-.08.06-.23.13-.29.09a8.13,8.13,0,0,1-1.28-.81c-2.9-2.56-6-4.87-8.89-7.47-.75-.68-1.6-1.26-2.38-1.91a2.44,2.44,0,0,1-.58-.7A.63.63,0,0,1,57,274a.59.59,0,0,1,.51-.2,7,7,0,0,1,2.81,1.77c2.44,2.16,5.13,4,7.45,6.32Z"/><path class="cls-2" d="M103.58,256.4a3.41,3.41,0,0,1,.11.67c0,.16-.63.17-.84,0-2.2-1.81-4.38-3.65-6.59-5.44s-4.63-3.68-6.93-5.52c-.48-.38-.91-.8-1.36-1.22,0,0,0-.24,0-.28s.34-.31.43-.28a13.11,13.11,0,0,1,3.38,2.05c2.53,2,5.06,4.1,7.56,6.18,1.18,1,2.29,2,3.43,3C103.07,255.87,103.35,256.17,103.58,256.4Z"/><path class="cls-2" d="M96.56,262.36l.14.62a2,2,0,0,1-.59,0,1.34,1.34,0,0,1-.54-.25c-3.48-2.82-7.21-5.26-10.93-7.72l-4.55-3s0-.2,0-.29a.29.29,0,0,1,.19-.16,4,4,0,0,1,1.16.22c1.35.7,2.7,1.41,4,2.21A83.16,83.16,0,0,1,96,261.7,5.58,5.58,0,0,1,96.56,262.36Z"/><path class="cls-2" d="M99.62,259.14l.16.68c-.2,0-.44.07-.58,0a21.22,21.22,0,0,1-2-1.34c-1.86-1.42-3.69-2.89-5.54-4.34-1.36-1.07-2.74-2.12-4.11-3.18-1-.81-2.09-1.62-3.12-2.45-.11-.09-.08-.35-.09-.53a.43.43,0,0,1,.29-.06,3.08,3.08,0,0,1,.86.27A33.18,33.18,0,0,1,88.26,250q5.22,4,10.37,8.1A10.44,10.44,0,0,1,99.62,259.14Z"/><path class="cls-2" d="M117.29,237.63c.68.82.73,1.29.51,1.26a2.23,2.23,0,0,1-.57-.12,2.13,2.13,0,0,1-.53-.3c-1-.8-2.08-1.62-3.13-2.43l-8.73-6.67a1.58,1.58,0,0,1-.44-.41c-.07-.14-.09-.43,0-.51a.62.62,0,0,1,.55-.1,4,4,0,0,1,1.08.53q3.58,2.6,7.13,5.24c1,.73,1.91,1.52,2.84,2.31C116.63,237,117.2,237.54,117.29,237.63Z"/><path class="cls-2" d="M89,266.6a3.69,3.69,0,0,1-.08.58.32.32,0,0,1-.28.07,3.52,3.52,0,0,1-.81-.38c-1-.81-2.06-1.64-3.1-2.47l-8.58-6.83a4.3,4.3,0,0,1-.64-.64.3.3,0,0,1,0-.29c.11-.12.31-.33.4-.3a5,5,0,0,1,1.37.63c2.5,1.92,5,3.84,7.44,5.82C86.18,264,87.57,265.34,89,266.6Z"/><path class="cls-2" d="M112.39,240.14a2.17,2.17,0,0,1-.1.53c0,.05-.2.09-.27.06a5.27,5.27,0,0,1-1.09-.54c-2-1.56-4-3.15-6-4.71-.8-.62-1.67-1.17-2.48-1.79a21.23,21.23,0,0,1-1.59-1.42.33.33,0,0,1,0-.29c.13-.12.32-.31.44-.29a3.7,3.7,0,0,1,1.14.41c1,.67,2,1.36,3,2.1,1.63,1.23,3.22,2.51,4.83,3.77A9.29,9.29,0,0,1,112.39,240.14Z"/><path class="cls-2" d="M91.25,242.16c.1,0,.22-.06.3,0A21.78,21.78,0,0,1,95.87,245c3.07,2.34,6.11,4.73,9,7.3a10.88,10.88,0,0,1,1,1.14c0,.06,0,.19,0,.29s-.21,0-.3,0a3.26,3.26,0,0,1-.82-.39c-4.24-3.49-8.52-6.93-13-10.14a2.47,2.47,0,0,1-.52-.73C91.21,242.38,91.25,242.26,91.25,242.16Z"/><path class="cls-2" d="M111.77,247c0,.1,0,.24-.06.25a.41.41,0,0,1-.29,0,9.52,9.52,0,0,1-1.3-.78c-1-.74-1.93-1.49-2.86-2.28-2.71-2.3-5.52-4.48-8.3-6.69a3.27,3.27,0,0,1-.55-.72.39.39,0,0,1,0-.3.26.26,0,0,1,.2-.11,1.77,1.77,0,0,1,.56.19,23.75,23.75,0,0,1,2,1.36c3.43,2.71,6.88,5.4,10.06,8.39A5,5,0,0,1,111.77,247Z"/><path class="cls-2" d="M69.44,279.1c0,.18,0,.37.07.57-.18,0-.4.09-.56,0a4.35,4.35,0,0,1-1-.59c-2.44-2-4.88-3.94-7.29-5.93a6.32,6.32,0,0,1-1-1.12.56.56,0,0,1,0-.53.76.76,0,0,1,.54-.17,1.32,1.32,0,0,1,.56.21,7.52,7.52,0,0,1,.75.5,92.66,92.66,0,0,1,7.39,6.3A5.27,5.27,0,0,1,69.44,279.1Z"/><path class="cls-2" d="M84,268c0,.19,0,.31,0,.39s-.17.09-.25.08A4.11,4.11,0,0,1,82,267.38c-2-1.68-4-3.37-6.06-5.05-.93-.77-1.91-1.49-2.84-2.27a.84.84,0,0,1-.19-.54c0-.2.5-.33.76-.21l.27.13a6.83,6.83,0,0,1,.8.44,96.11,96.11,0,0,1,8.8,7.44A5.86,5.86,0,0,1,84,268Z"/><path class="cls-2" d="M69.75,274c.46.45.51.94.3,1a.9.9,0,0,1-.56,0c-.69-.43-1.38-.88-2-1.36-1.47-1.09-2.94-2.2-4.39-3.33a2.12,2.12,0,0,1-.56-.7c-.07-.12,0-.35.1-.5a.31.31,0,0,1,.27-.11,1.38,1.38,0,0,1,.58.15A57.56,57.56,0,0,1,69.75,274Z"/><path class="cls-2" d="M70.8,270.77c.1.31.06.48-.13.55a.93.93,0,0,1-.29.05.73.73,0,0,1-.3-.06c-1.74-1.24-3.49-2.49-5.21-3.75a.71.71,0,0,1-.16-.56c0-.16.21-.41.33-.41a1.51,1.51,0,0,1,.87.18,26.71,26.71,0,0,1,4.38,3.32A6.68,6.68,0,0,1,70.8,270.77Z"/><path class="cls-2" d="M70.7,262.28c.09,0,.19-.16.25-.14a3.65,3.65,0,0,1,1.11.45,32.07,32.07,0,0,1,4.1,3.53.61.61,0,0,1,0,.53c-.1.19-.33.2-.53.07-.42-.27-.87-.52-1.26-.83q-1.87-1.51-3.7-3.08C70.59,262.74,70.69,262.46,70.7,262.28Z"/><path class="cls-2" d="M67.69,264.66c.19,0,.44,0,.57.07,1.59,1.25,3.17,2.52,4.75,3.78.24.19.42.8.28.81a1,1,0,0,1-.58-.05,26.38,26.38,0,0,1-5-3.89,1.06,1.06,0,0,1-.16-.56S67.62,264.72,67.69,264.66Z"/><path class="cls-2" d="M140.77,202.59c.19,0,.42-.12.56-.05a8.86,8.86,0,0,1,2.33,1.94c3,3.06,5.78,6.31,8.55,9.58a18.66,18.66,0,0,1,3,4.17.31.31,0,0,1-.22.45.48.48,0,0,1-.29,0,1.46,1.46,0,0,1-.53-.3c-1.11-1.18-2.26-2.35-3.32-3.59-2.84-3.33-5.8-6.56-8.78-9.77a19.64,19.64,0,0,1-1.52-1.89C140.52,203,140.7,202.77,140.77,202.59Z"/><path class="cls-2" d="M198.29,199.46c.11.32-.07.8-.3.74s-.44-.07-.53-.2c-2-2.85-4.27-5.44-6.41-8.16a68,68,0,0,0-5.93-6.56,4.46,4.46,0,0,1-.56-.72.28.28,0,0,1,.05-.28c.14-.1.38-.26.47-.2a8.89,8.89,0,0,1,1.78,1.15c1.18,1.11,2.33,2.28,3.42,3.48a85,85,0,0,1,7.59,9.94A7.75,7.75,0,0,1,198.29,199.46Z"/><path class="cls-2" d="M193.86,201.44c-.1-.3,0,0,.08.27a.59.59,0,0,1,0,.29c-.19,0-.43.07-.56,0a11.8,11.8,0,0,1-2.59-3c-1.26-1.85-2.69-3.56-4.09-5.29-1.64-2.06-3.37-4-5-6.09a4.37,4.37,0,0,1-.55-1,.29.29,0,0,1,.06-.28.35.35,0,0,1,.3,0,2.36,2.36,0,0,1,.79.4,77.09,77.09,0,0,1,9,10.67A18.54,18.54,0,0,1,193.86,201.44Z"/><path class="cls-2" d="M176.49,208.42v.64c-.18,0-.43,0-.55-.07a14.15,14.15,0,0,1-1.33-1.24l-9.05-10c-.75-.83-1.56-1.61-2.3-2.46a12.06,12.06,0,0,1-1-1.5c0-.07,0-.26,0-.28s.39-.2.47-.14a15.59,15.59,0,0,1,2.12,1.74c2.81,3.1,5.78,6,8.46,9.27.92,1.1,1.85,2.18,2.76,3.28A6,6,0,0,1,176.49,208.42Z"/><path class="cls-2" d="M128.39,231.43c.09.36.19.74.27,1.13,0,.06-.07.17-.13.21s-.24.08-.3,0a8.46,8.46,0,0,1-1.13-1c-2.43-3-5.11-5.8-7.51-8.85-.63-.79-1.36-1.51-2-2.28a2.49,2.49,0,0,1-.45-.79.61.61,0,0,1,.15-.53.6.6,0,0,1,.53-.12,7.07,7.07,0,0,1,2.48,2.22c2,2.54,4.39,4.83,6.29,7.48C127.15,229.75,127.76,230.57,128.39,231.43Z"/><path class="cls-2" d="M166.1,209.81a4,4,0,0,1,0,.68c0,.17-.66.06-.84-.15-1.86-2.15-3.7-4.33-5.58-6.47s-3.95-4.39-5.91-6.6a17.3,17.3,0,0,1-1.13-1.43.29.29,0,0,1,0-.27c.15-.1.39-.25.47-.2a12.93,12.93,0,0,1,3,2.58c2.15,2.44,4.3,4.89,6.42,7.36,1,1.16,1.92,2.38,2.87,3.58C165.69,209.21,165.91,209.55,166.1,209.81Z"/><path class="cls-2" d="M158.19,214.51l0,.64a2.27,2.27,0,0,1-.59-.06,1.28,1.28,0,0,1-.49-.34c-2.95-3.35-6.23-6.39-9.48-9.44l-4-3.74s0-.2,0-.28.15-.15.21-.13a3.91,3.91,0,0,1,1.1.41c1.22.92,2.44,1.84,3.58,2.85a84,84,0,0,1,9.13,9.35A6.66,6.66,0,0,1,158.19,214.51Z"/><path class="cls-2" d="M161.74,211.85l0,.7c-.2,0-.45,0-.57-.11a20.22,20.22,0,0,1-1.8-1.66c-1.59-1.72-3.15-3.47-4.73-5.21-1.17-1.28-2.35-2.54-3.52-3.82-.9-1-1.8-1.95-2.67-2.94-.09-.1,0-.36,0-.54a.44.44,0,0,1,.29,0,2.77,2.77,0,0,1,.8.42,29.79,29.79,0,0,1,2.49,2.27q4.46,4.83,8.86,9.72A10.27,10.27,0,0,1,161.74,211.85Z"/><path class="cls-2" d="M188.59,200.46c.53.92.5,1.4.29,1.33a3.18,3.18,0,0,1-.54-.21,2.22,2.22,0,0,1-.47-.39c-.9-1-1.79-1.95-2.68-2.92l-7.49-8a1.63,1.63,0,0,1-.37-.47.55.55,0,0,1,.1-.51.62.62,0,0,1,.55,0,4.15,4.15,0,0,1,1,.71c2.06,2.11,4.12,4.22,6.15,6.36.84.89,1.63,1.82,2.41,2.76C188.05,199.69,188.51,200.36,188.59,200.46Z"/><path class="cls-2" d="M150,217.42a2.84,2.84,0,0,1-.18.56c0,.05-.21.07-.28,0a3.13,3.13,0,0,1-.73-.52c-.9-1-1.77-2-2.65-2.94l-7.32-8.18a4.9,4.9,0,0,1-.52-.74.28.28,0,0,1,0-.28c.13-.11.36-.28.44-.23a5.2,5.2,0,0,1,1.25.85c2.14,2.31,4.28,4.62,6.36,7C147.68,214.4,148.82,216,150,217.42Z"/><path class="cls-2" d="M183.34,202.12a3.25,3.25,0,0,1-.18.5s-.22.06-.29,0a5.51,5.51,0,0,1-1-.72c-1.73-1.88-3.43-3.78-5.16-5.65-.69-.75-1.45-1.44-2.15-2.19-.48-.52-.9-1.09-1.33-1.66a.3.3,0,0,1,.07-.28c.14-.1.37-.26.48-.21a3.33,3.33,0,0,1,1.06.59c.9.83,1.78,1.68,2.62,2.57,1.4,1.49,2.75,3,4.13,4.53A9.32,9.32,0,0,1,183.34,202.12Z"/><path class="cls-2" d="M158.92,196.29c.1,0,.23,0,.3,0a21.83,21.83,0,0,1,3.78,3.53c2.64,2.82,5.23,5.68,7.64,8.71a9.77,9.77,0,0,1,.79,1.28c0,.07,0,.2,0,.3a.94.94,0,0,1-.3-.06,3.07,3.07,0,0,1-.74-.52c-3.6-4.15-7.24-8.26-11.1-12.17a2.39,2.39,0,0,1-.39-.8C158.85,196.51,158.9,196.39,158.92,196.29Z"/><path class="cls-2" d="M178.34,204.45c0,.1-.06.23-.09.24a.46.46,0,0,1-.29-.06,10.9,10.9,0,0,1-1.15-1c-.83-.89-1.65-1.8-2.44-2.73-2.28-2.73-4.69-5.34-7.06-8a3,3,0,0,1-.42-.8.38.38,0,0,1,0-.29.25.25,0,0,1,.22-.08,1.63,1.63,0,0,1,.52.28c.6.55,1.22,1.08,1.76,1.68,2.93,3.25,5.87,6.47,8.51,10A4.43,4.43,0,0,1,178.34,204.45Z"/><path class="cls-2" d="M128.64,226.48c0,.18,0,.37,0,.57-.19,0-.41,0-.55-.07a4.35,4.35,0,0,1-.94-.76q-3.12-3.51-6.2-7.07a6.25,6.25,0,0,1-.8-1.28.54.54,0,0,1,.13-.51.76.76,0,0,1,.56-.07,1.34,1.34,0,0,1,.52.29q.34.3.66.63a90.55,90.55,0,0,1,6.22,7.45A4,4,0,0,1,128.64,226.48Z"/><path class="cls-2" d="M144.88,218c0,.2,0,.32,0,.39a.29.29,0,0,1-.26,0A4.16,4.16,0,0,1,143,217c-1.71-2-3.41-4-5.13-6-.79-.92-1.63-1.8-2.42-2.72a.89.89,0,0,1-.09-.57c0-.19.55-.24.78-.07l.25.17a6.56,6.56,0,0,1,.71.57,94.34,94.34,0,0,1,7.42,8.8A4.7,4.7,0,0,1,144.88,218Z"/><path class="cls-2" d="M129.8,221.52c.38.52.35,1,.13,1a.82.82,0,0,1-.55-.08c-.62-.54-1.22-1.09-1.79-1.68-1.27-1.32-2.52-2.66-3.77-4a2.31,2.31,0,0,1-.44-.8c0-.13.09-.33.19-.47s.2-.08.28-.06a1.38,1.38,0,0,1,.55.24A59.88,59.88,0,0,1,129.8,221.52Z"/><path class="cls-2" d="M131.38,218.49c.05.32,0,.48-.22.52a.71.71,0,0,1-.29,0,.57.57,0,0,1-.29-.11c-1.51-1.51-3-3-4.51-4.57a.66.66,0,0,1-.06-.57c0-.15.27-.37.39-.36a1.67,1.67,0,0,1,.84.33,26.4,26.4,0,0,1,3.75,4A4.93,4.93,0,0,1,131.38,218.49Z"/><path class="cls-2" d="M132.71,210.11c.09,0,.21-.13.27-.1a3.59,3.59,0,0,1,1,.63,31.31,31.31,0,0,1,3.45,4.17.58.58,0,0,1-.07.52c-.13.17-.36.14-.54,0-.37-.34-.77-.66-1.1-1q-1.59-1.8-3.14-3.66C132.52,210.54,132.66,210.28,132.71,210.11Z"/><path class="cls-2" d="M129.33,212c.19.05.45,0,.56.17q2,2.24,4.05,4.52c.2.23.28.85.14.84a1,1,0,0,1-.56-.15,25.85,25.85,0,0,1-4.32-4.67,1.1,1.1,0,0,1-.07-.58C129.13,212,129.26,212,129.33,212Z"/><path class="cls-2" d="M397.75,255.08c-.18-.05-.39-.19-.54-.14a8.77,8.77,0,0,0-2.63,1.52c-3.47,2.51-6.76,5.25-10,8a18.94,18.94,0,0,0-3.7,3.62.3.3,0,0,0,.14.47.51.51,0,0,0,.29,0,1.49,1.49,0,0,0,.57-.2c1.3-1,2.62-1.95,3.88-3,3.36-2.81,6.82-5.49,10.3-8.16a21.24,21.24,0,0,0,1.81-1.61C397.92,255.55,397.79,255.27,397.75,255.08Z"/><path class="cls-2" d="M348.46,236.57c-.17.3-.07.8.17.78s.45,0,.56-.1c2.41-2.48,5.12-4.65,7.68-7a66.84,66.84,0,0,1,6.94-5.48,3.89,3.89,0,0,0,.67-.61.28.28,0,0,0,0-.29c-.13-.12-.34-.32-.44-.28a8.82,8.82,0,0,0-1.94.84c-1.35.9-2.68,1.86-4,2.86a86.68,86.68,0,0,0-9.15,8.52C348.8,236.06,348.64,236.33,348.46,236.57Z"/><path class="cls-2" d="M352.49,239.27c.16-.28,0,0-.12.25a.67.67,0,0,0,0,.29c.19,0,.42.14.56.07a11.57,11.57,0,0,0,3-2.48c1.56-1.61,3.25-3.05,4.92-4.53,2-1.75,4-3.43,6-5.16a4.19,4.19,0,0,0,.72-.94.3.3,0,0,0,0-.29.31.31,0,0,0-.28-.09,2.56,2.56,0,0,0-.85.26,77.16,77.16,0,0,0-10.67,9A18.52,18.52,0,0,0,352.49,239.27Z"/><path class="cls-2" d="M364.54,252.73c0,.24-.07.43-.11.62.19,0,.42.11.55,0a13,13,0,0,0,1.53-1l10.58-8.33c.89-.7,1.82-1.33,2.69-2a12.1,12.1,0,0,0,1.27-1.31c.05-.06.08-.25,0-.28s-.35-.26-.44-.21a15.44,15.44,0,0,0-2.38,1.36c-3.29,2.58-6.71,5-9.9,7.72-1.08.93-2.18,1.84-3.26,2.77A5.79,5.79,0,0,0,364.54,252.73Z"/><path class="cls-2" d="M405.12,285.59c-.14.33-.31.69-.45,1.06a.28.28,0,0,0,.1.23c.07.06.22.12.28.09a8.4,8.4,0,0,0,1.28-.81c2.9-2.56,6-4.87,8.89-7.47.76-.68,1.6-1.26,2.38-1.92a2.4,2.4,0,0,0,.58-.69.54.54,0,0,0-.56-.76,7.11,7.11,0,0,0-2.82,1.77c-2.43,2.17-5.13,4-7.45,6.33Z"/><path class="cls-2" d="M371.57,258a3.68,3.68,0,0,0-.12.67c0,.17.63.17.84,0,2.2-1.82,4.38-3.65,6.59-5.45s4.63-3.67,6.94-5.51c.47-.38.91-.81,1.35-1.23a.26.26,0,0,0,0-.27c-.12-.12-.33-.32-.43-.28a13.54,13.54,0,0,0-3.38,2c-2.53,2.05-5.06,4.11-7.56,6.19-1.17,1-2.29,2-3.43,3C372.07,257.42,371.8,257.72,371.57,258Z"/><path class="cls-2" d="M378.58,263.91l-.13.63a2.88,2.88,0,0,0,.58,0,1.33,1.33,0,0,0,.55-.26c3.47-2.81,7.2-5.25,10.92-7.72,1.52-1,3-2,4.55-3,.05,0,0-.19,0-.28s-.13-.17-.18-.16a3.92,3.92,0,0,0-1.16.22c-1.36.7-2.71,1.41-4,2.21a82.19,82.19,0,0,0-10.57,7.69A6.46,6.46,0,0,0,378.58,263.91Z"/><path class="cls-2" d="M375.52,260.69l-.16.69c.2,0,.44.07.58,0A20,20,0,0,0,378,260c1.86-1.43,3.69-2.9,5.54-4.34,1.36-1.07,2.74-2.12,4.11-3.18,1-.81,2.09-1.62,3.12-2.46.11-.08.08-.34.09-.53a.55.55,0,0,0-.28-.06,3.34,3.34,0,0,0-.86.28,29.65,29.65,0,0,0-2.83,1.82c-3.48,2.68-6.92,5.39-10.37,8.1A11.67,11.67,0,0,0,375.52,260.69Z"/><path class="cls-2" d="M357.86,239.18c-.69.83-.73,1.3-.52,1.27a2.75,2.75,0,0,0,.57-.12,2.13,2.13,0,0,0,.53-.3c1.05-.81,2.09-1.63,3.14-2.43l8.72-6.68a1.31,1.31,0,0,0,.44-.4.56.56,0,0,0,0-.52.66.66,0,0,0-.55-.1,4.59,4.59,0,0,0-1.09.53c-2.39,1.74-4.77,3.48-7.13,5.25-1,.73-1.91,1.52-2.84,2.31C358.52,238.52,358,239.1,357.86,239.18Z"/><path class="cls-2" d="M386.17,268.15a2.12,2.12,0,0,0,.08.58c0,.06.19.11.27.08a3.19,3.19,0,0,0,.81-.39c1-.8,2.07-1.64,3.1-2.46,2.86-2.28,5.73-4.55,8.58-6.83a5.62,5.62,0,0,0,.65-.64.3.3,0,0,0,0-.29c-.11-.13-.31-.33-.4-.3a5.17,5.17,0,0,0-1.37.63c-2.49,1.92-5,3.83-7.44,5.82C389,265.56,387.57,266.9,386.17,268.15Z"/><path class="cls-2" d="M362.75,241.7a2.82,2.82,0,0,0,.1.52c0,.06.2.1.28.07a5,5,0,0,0,1.08-.55c2-1.55,4-3.14,6-4.7.81-.62,1.67-1.17,2.48-1.79.56-.44,1.07-.94,1.59-1.42a.28.28,0,0,0,0-.29c-.12-.13-.32-.32-.44-.29a3.25,3.25,0,0,0-1.14.41c-1,.67-2,1.36-3,2.1-1.62,1.23-3.21,2.51-4.82,3.77A9.33,9.33,0,0,0,362.75,241.7Z"/><path class="cls-2" d="M383.89,243.71c-.1,0-.22-.05-.3,0a22.28,22.28,0,0,0-4.32,2.85c-3.07,2.34-6.11,4.72-9,7.3a9.65,9.65,0,0,0-1,1.13c-.06.07,0,.2,0,.3a1,1,0,0,0,.3,0,3.29,3.29,0,0,0,.82-.4c4.25-3.48,8.52-6.93,13-10.14a2.26,2.26,0,0,0,.52-.72C383.93,243.94,383.89,243.81,383.89,243.71Z"/><path class="cls-2" d="M363.38,248.51c0,.1,0,.23.05.24a.36.36,0,0,0,.29,0A12.09,12.09,0,0,0,365,248c1-.74,1.93-1.49,2.86-2.28,2.71-2.31,5.52-4.48,8.3-6.7a2.65,2.65,0,0,0,.55-.72.33.33,0,0,0,0-.29.23.23,0,0,0-.2-.11,1.55,1.55,0,0,0-.56.19c-.68.44-1.39.86-2,1.36-3.43,2.71-6.87,5.39-10.06,8.39A4.46,4.46,0,0,0,363.38,248.51Z"/><path class="cls-2" d="M405.71,280.66c0,.18-.06.37-.08.57.19,0,.4.09.56,0a4.5,4.5,0,0,0,1.05-.59q3.66-2.94,7.3-5.93a6.74,6.74,0,0,0,1-1.13.57.57,0,0,0,0-.52.74.74,0,0,0-.55-.17,1.45,1.45,0,0,0-.56.2,7.61,7.61,0,0,0-.75.51,90.49,90.49,0,0,0-7.38,6.3A4.18,4.18,0,0,0,405.71,280.66Z"/><path class="cls-2" d="M391.13,269.54c0,.19-.06.31,0,.39a.29.29,0,0,0,.25.07,4.09,4.09,0,0,0,1.79-1.06c2-1.69,4-3.38,6.06-5.05.94-.77,1.91-1.5,2.85-2.27a.92.92,0,0,0,.18-.54c0-.2-.5-.34-.76-.21l-.27.13a5.62,5.62,0,0,0-.8.44,93.14,93.14,0,0,0-8.79,7.44A4.85,4.85,0,0,0,391.13,269.54Z"/><path class="cls-2" d="M405.39,275.58c-.46.44-.51.94-.29,1a.75.75,0,0,0,.55,0q1.05-.63,2-1.35c1.48-1.09,2.94-2.21,4.39-3.33a2.21,2.21,0,0,0,.57-.71c.06-.12,0-.34-.11-.5a.33.33,0,0,0-.27-.1,1.28,1.28,0,0,0-.58.15A59.54,59.54,0,0,0,405.39,275.58Z"/><path class="cls-2" d="M404.35,272.33c-.11.31-.07.47.12.54a.74.74,0,0,0,.29.05.51.51,0,0,0,.3-.06c1.74-1.24,3.49-2.48,5.21-3.75a.64.64,0,0,0,.16-.55c0-.16-.21-.41-.33-.41a1.6,1.6,0,0,0-.87.17,26.69,26.69,0,0,0-4.37,3.33A4.15,4.15,0,0,0,404.35,272.33Z"/><path class="cls-2" d="M404.44,263.84c-.09,0-.19-.16-.25-.14a3.84,3.84,0,0,0-1.1.44,31.46,31.46,0,0,0-4.11,3.54.59.59,0,0,0,0,.52c.1.2.33.2.53.07a11.91,11.91,0,0,0,1.26-.83c1.25-1,2.49-2,3.71-3.07C404.55,264.3,404.45,264,404.44,263.84Z"/><path class="cls-2" d="M407.46,266.22c-.2,0-.45,0-.58.07q-2.38,1.88-4.75,3.78c-.24.19-.42.79-.28.81a1,1,0,0,0,.58-.06,25.35,25.35,0,0,0,5-3.88,1.09,1.09,0,0,0,.16-.56S407.52,266.27,407.46,266.22Z"/><path class="cls-2" d="M334.37,204.15c-.19,0-.41-.12-.56-.05a9,9,0,0,0-2.33,1.94c-3,3.06-5.78,6.31-8.55,9.57a19.28,19.28,0,0,0-3,4.18.31.31,0,0,0,.22.45.56.56,0,0,0,.29,0,1.53,1.53,0,0,0,.53-.3c1.12-1.19,2.26-2.35,3.32-3.59,2.85-3.33,5.8-6.56,8.79-9.77a20.08,20.08,0,0,0,1.52-1.9C334.62,204.59,334.44,204.33,334.37,204.15Z"/><path class="cls-2" d="M276.85,201c-.11.31.07.8.3.74s.45-.07.53-.2c2-2.85,4.27-5.44,6.41-8.16a68.17,68.17,0,0,1,5.93-6.56,5,5,0,0,0,.56-.72.28.28,0,0,0-.05-.28c-.14-.1-.38-.26-.47-.21a9.73,9.73,0,0,0-1.78,1.16c-1.18,1.11-2.33,2.27-3.42,3.48a86.9,86.9,0,0,0-7.59,9.93A7,7,0,0,0,276.85,201Z"/><path class="cls-2" d="M281.28,203c.11-.31,0,0-.08.27a.47.47,0,0,0,0,.29c.18,0,.43.07.55,0a11.56,11.56,0,0,0,2.59-2.95c1.26-1.85,2.69-3.56,4.09-5.3,1.65-2.05,3.37-4,5-6.08a4.37,4.37,0,0,0,.55-1,.29.29,0,0,0-.06-.28.3.3,0,0,0-.29,0,2.31,2.31,0,0,0-.8.4,77.79,77.79,0,0,0-9,10.67A18.67,18.67,0,0,0,281.28,203Z"/><path class="cls-2" d="M298.66,210c0,.24,0,.44,0,.63.19,0,.43,0,.55-.06a13.22,13.22,0,0,0,1.34-1.25c3-3.32,6-6.66,9-10,.75-.83,1.57-1.61,2.31-2.46a13.24,13.24,0,0,0,1-1.5.36.36,0,0,0,0-.29c-.14-.07-.39-.19-.47-.13a15.46,15.46,0,0,0-2.12,1.74c-2.81,3.1-5.78,6-8.46,9.27-.91,1.09-1.85,2.17-2.75,3.28A5,5,0,0,0,298.66,210Z"/><path class="cls-2" d="M346.75,233c-.09.36-.19.74-.27,1.12a.26.26,0,0,0,.14.21c.08.05.24.09.29.05a8.46,8.46,0,0,0,1.13-1c2.43-3,5.12-5.81,7.51-8.85.63-.8,1.37-1.51,2-2.29a2.34,2.34,0,0,0,.45-.78.61.61,0,0,0-.15-.53.6.6,0,0,0-.53-.12,7.13,7.13,0,0,0-2.48,2.21c-2,2.55-4.38,4.83-6.29,7.49C348,231.31,347.38,232.12,346.75,233Z"/><path class="cls-2" d="M309,211.37a3.81,3.81,0,0,0,0,.68c0,.16.65.06.83-.15,1.86-2.16,3.7-4.33,5.59-6.47s3.94-4.39,5.9-6.6a17.3,17.3,0,0,0,1.13-1.43.31.31,0,0,0,0-.28c-.14-.09-.38-.25-.47-.19a12.93,12.93,0,0,0-3,2.58c-2.15,2.44-4.3,4.89-6.42,7.36-1,1.16-1.92,2.38-2.87,3.58C309.45,210.76,309.23,211.1,309,211.37Z"/><path class="cls-2" d="M317,216.07l0,.63a2.24,2.24,0,0,0,.58,0,1.39,1.39,0,0,0,.49-.34c3-3.36,6.23-6.39,9.48-9.44l4-3.74s0-.2,0-.29-.15-.14-.2-.12a3.59,3.59,0,0,0-1.11.41c-1.22.92-2.43,1.84-3.57,2.84a82.35,82.35,0,0,0-9.13,9.36A5.43,5.43,0,0,0,317,216.07Z"/><path class="cls-2" d="M313.4,213.41l0,.7c.19,0,.44,0,.57-.11a20.1,20.1,0,0,0,1.79-1.66c1.6-1.72,3.15-3.47,4.73-5.21,1.17-1.28,2.35-2.55,3.52-3.82.9-1,1.8-1.95,2.67-2.94.09-.11,0-.36,0-.54a.44.44,0,0,0-.29,0,3,3,0,0,0-.8.41,31.48,31.48,0,0,0-2.48,2.27c-3,3.22-5.92,6.47-8.87,9.73A9.47,9.47,0,0,0,313.4,213.41Z"/><path class="cls-2" d="M286.56,202c-.54.93-.51,1.41-.3,1.34a2.35,2.35,0,0,0,.54-.22,1.74,1.74,0,0,0,.47-.38l2.69-2.92,7.48-8a1.51,1.51,0,0,0,.37-.48.56.56,0,0,0-.09-.5.65.65,0,0,0-.56,0,4.32,4.32,0,0,0-1,.7q-3.09,3.17-6.14,6.37c-.84.88-1.63,1.82-2.42,2.75C287.09,201.25,286.63,201.91,286.56,202Z"/><path class="cls-2" d="M325.14,219a3.08,3.08,0,0,0,.18.56.3.3,0,0,0,.28,0,3.22,3.22,0,0,0,.73-.52c.9-1,1.77-2,2.65-3l7.32-8.17a4.7,4.7,0,0,0,.52-.74.28.28,0,0,0,0-.28c-.13-.11-.36-.28-.44-.23a4.93,4.93,0,0,0-1.25.85c-2.14,2.31-4.28,4.62-6.36,7C327.47,216,326.32,217.51,325.14,219Z"/><path class="cls-2" d="M291.8,203.67a2.56,2.56,0,0,0,.19.51.3.3,0,0,0,.28,0,4.67,4.67,0,0,0,1-.72c1.73-1.87,3.43-3.77,5.16-5.64.7-.75,1.46-1.44,2.15-2.19.48-.52.9-1.1,1.33-1.66a.3.3,0,0,0-.07-.28c-.14-.11-.36-.26-.48-.22a3.42,3.42,0,0,0-1,.6c-.9.83-1.79,1.68-2.63,2.57-1.4,1.49-2.75,3-4.13,4.53A9.12,9.12,0,0,0,291.8,203.67Z"/><path class="cls-2" d="M316.22,197.85c-.1,0-.23,0-.3,0a22.2,22.2,0,0,0-3.78,3.53c-2.63,2.82-5.23,5.68-7.64,8.7a9.88,9.88,0,0,0-.79,1.29c0,.07,0,.19,0,.29a.73.73,0,0,0,.3-.05,3.07,3.07,0,0,0,.74-.52c3.6-4.15,7.24-8.26,11.1-12.17a2.44,2.44,0,0,0,.39-.81C316.3,198.06,316.24,198,316.22,197.85Z"/><path class="cls-2" d="M296.8,206c0,.1.06.23.09.24a.41.41,0,0,0,.29-.07,9.9,9.9,0,0,0,1.15-1c.84-.9,1.66-1.8,2.44-2.73,2.28-2.73,4.69-5.35,7.06-8a2.91,2.91,0,0,0,.42-.8.37.37,0,0,0,0-.29.26.26,0,0,0-.23-.08,1.75,1.75,0,0,0-.52.28c-.6.55-1.22,1.08-1.76,1.68-2.92,3.25-5.87,6.47-8.51,10A4.79,4.79,0,0,0,296.8,206Z"/><path class="cls-2" d="M346.5,228c0,.18,0,.38,0,.58a1.44,1.44,0,0,0,.56-.07,4.89,4.89,0,0,0,.94-.76q3.12-3.53,6.19-7.07a5.85,5.85,0,0,0,.8-1.28.52.52,0,0,0-.13-.51.76.76,0,0,0-.56-.07,1.34,1.34,0,0,0-.52.29,7.82,7.82,0,0,0-.66.63,92.1,92.1,0,0,0-6.22,7.44A5.26,5.26,0,0,0,346.5,228Z"/><path class="cls-2" d="M330.27,219.51c0,.2,0,.32,0,.39a.29.29,0,0,0,.26,0,4.13,4.13,0,0,0,1.59-1.34c1.71-2,3.41-4,5.13-6,.79-.92,1.63-1.8,2.42-2.71a1,1,0,0,0,.1-.57c0-.2-.56-.24-.79-.08l-.25.18a5.54,5.54,0,0,0-.71.57,94.34,94.34,0,0,0-7.42,8.8A3.58,3.58,0,0,0,330.27,219.51Z"/><path class="cls-2" d="M345.34,223.08c-.38.52-.35,1-.13,1a.87.87,0,0,0,.55-.08c.62-.54,1.22-1.1,1.79-1.68,1.27-1.33,2.52-2.67,3.77-4a2.12,2.12,0,0,0,.44-.79c0-.13-.09-.33-.19-.48a.32.32,0,0,0-.28-.05,1.44,1.44,0,0,0-.55.24A58.75,58.75,0,0,0,345.34,223.08Z"/><path class="cls-2" d="M343.77,220.05c-.06.32,0,.48.21.52a1.5,1.5,0,0,0,.3,0,.69.69,0,0,0,.28-.11c1.51-1.52,3-3,4.51-4.57a.66.66,0,0,0,.06-.57c-.05-.16-.27-.38-.39-.36a1.59,1.59,0,0,0-.83.32,26.84,26.84,0,0,0-3.75,4A5,5,0,0,0,343.77,220.05Z"/><path class="cls-2" d="M342.44,211.67c-.1,0-.22-.13-.27-.1a3.86,3.86,0,0,0-1,.62,32,32,0,0,0-3.45,4.17.58.58,0,0,0,.07.52.34.34,0,0,0,.54,0,13.28,13.28,0,0,0,1.1-1c1.07-1.21,2.11-2.43,3.14-3.66C342.62,212.1,342.48,211.84,342.44,211.67Z"/><path class="cls-2" d="M345.81,213.51c-.19.05-.44,0-.55.16-1.37,1.5-2.71,3-4.06,4.52-.2.23-.28.86-.13.85a1.14,1.14,0,0,0,.56-.15,25.52,25.52,0,0,0,4.31-4.68c.1-.13.07-.38.07-.58C346,213.59,345.88,213.55,345.81,213.51Z"/></svg>