<svg width="557" height="336" viewBox="0 0 557 336" fill="none" xmlns="http://www.w3.org/2000/svg">
<path d="M106.893 144V133.28L107.405 133.824H104.253V132.8H108.045V144H106.893Z" fill="#3C3C3B"/>
<path d="M22.0891 191L26.9211 180.312L27.2731 180.824H20.3451L20.9371 180.264V182.92H19.8011V179.8H28.0251V180.616L23.3371 191H22.0891Z" fill="#3C3C3B"/>
<path d="M17.8043 238V227.28L18.3163 227.824H15.1643V226.8H18.9563V238H17.8043ZM23.0416 235.056V234.224L28.9776 226.8H30.2576L24.3696 234.224L23.7456 234.032H32.7536V235.056H23.0416ZM29.3616 238V235.056L29.3936 234.032V231.44H30.5136V238H29.3616Z" fill="#3C3C3B"/>
<path d="M16.8865 285V284.184L21.5425 279.624C21.9692 279.208 22.2892 278.845 22.5025 278.536C22.7158 278.216 22.8598 277.917 22.9345 277.64C23.0092 277.363 23.0465 277.101 23.0465 276.856C23.0465 276.205 22.8225 275.693 22.3745 275.32C21.9372 274.947 21.2865 274.76 20.4225 274.76C19.7612 274.76 19.1745 274.861 18.6625 275.064C18.1612 275.267 17.7292 275.581 17.3665 276.008L16.5505 275.304C16.9878 274.792 17.5478 274.397 18.2305 274.12C18.9132 273.843 19.6758 273.704 20.5185 273.704C21.2758 273.704 21.9318 273.827 22.4865 274.072C23.0412 274.307 23.4678 274.653 23.7665 275.112C24.0758 275.571 24.2305 276.109 24.2305 276.728C24.2305 277.091 24.1772 277.448 24.0705 277.8C23.9745 278.152 23.7932 278.525 23.5265 278.92C23.2705 279.304 22.8918 279.741 22.3905 280.232L18.1185 284.424L17.7985 283.976H24.7425V285H16.8865ZM29.7403 285V274.28L30.2523 274.824H27.1003V273.8H30.8923V285H29.7403Z" fill="#3C3C3B"/>
<path d="M14.6756 332V331.184L19.3316 326.624C19.7582 326.208 20.0782 325.845 20.2916 325.536C20.5049 325.216 20.6489 324.917 20.7236 324.64C20.7982 324.363 20.8356 324.101 20.8356 323.856C20.8356 323.205 20.6116 322.693 20.1636 322.32C19.7262 321.947 19.0756 321.76 18.2116 321.76C17.5502 321.76 16.9636 321.861 16.4516 322.064C15.9502 322.267 15.5182 322.581 15.1556 323.008L14.3396 322.304C14.7769 321.792 15.3369 321.397 16.0196 321.12C16.7022 320.843 17.4649 320.704 18.3076 320.704C19.0649 320.704 19.7209 320.827 20.2756 321.072C20.8302 321.307 21.2569 321.653 21.5556 322.112C21.8649 322.571 22.0196 323.109 22.0196 323.728C22.0196 324.091 21.9662 324.448 21.8596 324.8C21.7636 325.152 21.5822 325.525 21.3156 325.92C21.0596 326.304 20.6809 326.741 20.1796 327.232L15.9076 331.424L15.5876 330.976H22.5316V332H14.6756ZM29.8333 332.096C28.9373 332.096 28.164 331.968 27.5133 331.712C26.8733 331.456 26.3773 331.088 26.0253 330.608C25.684 330.117 25.5133 329.541 25.5133 328.88C25.5133 328.24 25.6786 327.696 26.0093 327.248C26.3506 326.789 26.8413 326.437 27.4813 326.192C28.132 325.947 28.916 325.824 29.8333 325.824C30.74 325.824 31.5186 325.947 32.1693 326.192C32.82 326.437 33.316 326.789 33.6573 327.248C34.0093 327.696 34.1853 328.24 34.1853 328.88C34.1853 329.541 34.0093 330.117 33.6573 330.608C33.3053 331.088 32.804 331.456 32.1533 331.712C31.5026 331.968 30.7293 332.096 29.8333 332.096ZM29.8333 331.12C30.8253 331.12 31.5986 330.917 32.1533 330.512C32.7186 330.107 33.0013 329.557 33.0013 328.864C33.0013 328.171 32.7186 327.627 32.1533 327.232C31.5986 326.827 30.8253 326.624 29.8333 326.624C28.8413 326.624 28.068 326.827 27.5133 327.232C26.9586 327.627 26.6813 328.171 26.6813 328.864C26.6813 329.557 26.9586 330.107 27.5133 330.512C28.068 330.917 28.8413 331.12 29.8333 331.12ZM29.8333 326.48C29.0013 326.48 28.292 326.368 27.7053 326.144C27.1293 325.92 26.6866 325.6 26.3773 325.184C26.068 324.757 25.9133 324.251 25.9133 323.664C25.9133 323.045 26.0733 322.517 26.3933 322.08C26.724 321.632 27.1826 321.291 27.7693 321.056C28.356 320.821 29.044 320.704 29.8333 320.704C30.6226 320.704 31.3106 320.821 31.8973 321.056C32.4946 321.291 32.9586 321.632 33.2893 322.08C33.62 322.517 33.7853 323.045 33.7853 323.664C33.7853 324.251 33.6306 324.757 33.3213 325.184C33.012 325.6 32.5586 325.92 31.9613 326.144C31.3746 326.368 30.6653 326.48 29.8333 326.48ZM29.8333 325.712C30.708 325.712 31.3906 325.531 31.8813 325.168C32.372 324.805 32.6173 324.32 32.6173 323.712C32.6173 323.072 32.3613 322.576 31.8493 322.224C31.348 321.861 30.676 321.68 29.8333 321.68C28.9906 321.68 28.3186 321.861 27.8173 322.224C27.316 322.576 27.0653 323.067 27.0653 323.696C27.0653 324.315 27.3053 324.805 27.7853 325.168C28.276 325.531 28.9586 325.712 29.8333 325.712Z" fill="#3C3C3B"/>
<path d="M107.486 191.096C106.59 191.096 105.817 190.968 105.166 190.712C104.526 190.456 104.03 190.088 103.678 189.608C103.337 189.117 103.166 188.541 103.166 187.88C103.166 187.24 103.332 186.696 103.662 186.248C104.004 185.789 104.494 185.437 105.134 185.192C105.785 184.947 106.569 184.824 107.486 184.824C108.393 184.824 109.172 184.947 109.822 185.192C110.473 185.437 110.969 185.789 111.31 186.248C111.662 186.696 111.838 187.24 111.838 187.88C111.838 188.541 111.662 189.117 111.31 189.608C110.958 190.088 110.457 190.456 109.806 190.712C109.156 190.968 108.382 191.096 107.486 191.096ZM107.486 190.12C108.478 190.12 109.252 189.917 109.806 189.512C110.372 189.107 110.654 188.557 110.654 187.864C110.654 187.171 110.372 186.627 109.806 186.232C109.252 185.827 108.478 185.624 107.486 185.624C106.494 185.624 105.721 185.827 105.166 186.232C104.612 186.627 104.334 187.171 104.334 187.864C104.334 188.557 104.612 189.107 105.166 189.512C105.721 189.917 106.494 190.12 107.486 190.12ZM107.486 185.48C106.654 185.48 105.945 185.368 105.358 185.144C104.782 184.92 104.34 184.6 104.03 184.184C103.721 183.757 103.566 183.251 103.566 182.664C103.566 182.045 103.726 181.517 104.046 181.08C104.377 180.632 104.836 180.291 105.422 180.056C106.009 179.821 106.697 179.704 107.486 179.704C108.276 179.704 108.964 179.821 109.55 180.056C110.148 180.291 110.612 180.632 110.942 181.08C111.273 181.517 111.438 182.045 111.438 182.664C111.438 183.251 111.284 183.757 110.974 184.184C110.665 184.6 110.212 184.92 109.614 185.144C109.028 185.368 108.318 185.48 107.486 185.48ZM107.486 184.712C108.361 184.712 109.044 184.531 109.534 184.168C110.025 183.805 110.27 183.32 110.27 182.712C110.27 182.072 110.014 181.576 109.502 181.224C109.001 180.861 108.329 180.68 107.486 180.68C106.644 180.68 105.972 180.861 105.47 181.224C104.969 181.576 104.718 182.067 104.718 182.696C104.718 183.315 104.958 183.805 105.438 184.168C105.929 184.531 106.612 184.712 107.486 184.712Z" fill="#3C3C3B"/>
<path d="M102.062 238V227.28L102.574 227.824H99.4221V226.8H103.214V238H102.062ZM111.027 238.096C110.227 238.096 109.465 237.968 108.739 237.712C108.014 237.445 107.438 237.093 107.011 236.656L107.571 235.744C107.923 236.117 108.403 236.427 109.011 236.672C109.63 236.917 110.297 237.04 111.011 237.04C111.961 237.04 112.681 236.832 113.171 236.416C113.673 235.989 113.923 235.435 113.923 234.752C113.923 234.272 113.806 233.861 113.571 233.52C113.347 233.168 112.963 232.896 112.419 232.704C111.875 232.512 111.129 232.416 110.179 232.416H107.795L108.371 226.8H114.499V227.824H108.835L109.427 227.264L108.931 231.968L108.339 231.392H110.435C111.566 231.392 112.473 231.531 113.155 231.808C113.838 232.085 114.329 232.475 114.627 232.976C114.937 233.467 115.091 234.043 115.091 234.704C115.091 235.333 114.942 235.909 114.643 236.432C114.345 236.944 113.897 237.349 113.299 237.648C112.702 237.947 111.945 238.096 111.027 238.096Z" fill="#3C3C3B"/>
<path d="M97.7302 285V284.184L102.386 279.624C102.813 279.208 103.133 278.845 103.346 278.536C103.56 278.216 103.704 277.917 103.778 277.64C103.853 277.363 103.89 277.101 103.89 276.856C103.89 276.205 103.666 275.693 103.218 275.32C102.781 274.947 102.13 274.76 101.266 274.76C100.605 274.76 100.018 274.861 99.5062 275.064C99.0049 275.267 98.5729 275.581 98.2102 276.008L97.3942 275.304C97.8316 274.792 98.3916 274.397 99.0742 274.12C99.7569 273.843 100.52 273.704 101.362 273.704C102.12 273.704 102.776 273.827 103.33 274.072C103.885 274.307 104.312 274.653 104.61 275.112C104.92 275.571 105.074 276.109 105.074 276.728C105.074 277.091 105.021 277.448 104.914 277.8C104.818 278.152 104.637 278.525 104.37 278.92C104.114 279.304 103.736 279.741 103.234 280.232L98.9622 284.424L98.6422 283.976H105.586V285H97.7302ZM108.424 285V284.184L113.08 279.624C113.507 279.208 113.827 278.845 114.04 278.536C114.253 278.216 114.397 277.917 114.472 277.64C114.547 277.363 114.584 277.101 114.584 276.856C114.584 276.205 114.36 275.693 113.912 275.32C113.475 274.947 112.824 274.76 111.96 274.76C111.299 274.76 110.712 274.861 110.2 275.064C109.699 275.267 109.267 275.581 108.904 276.008L108.088 275.304C108.525 274.792 109.085 274.397 109.768 274.12C110.451 273.843 111.213 273.704 112.056 273.704C112.813 273.704 113.469 273.827 114.024 274.072C114.579 274.307 115.005 274.653 115.304 275.112C115.613 275.571 115.768 276.109 115.768 276.728C115.768 277.091 115.715 277.448 115.608 277.8C115.512 278.152 115.331 278.525 115.064 278.92C114.808 279.304 114.429 279.741 113.928 280.232L109.656 284.424L109.336 283.976H116.28V285H108.424Z" fill="#3C3C3B"/>
<path d="M97.9021 332V331.184L102.558 326.624C102.985 326.208 103.305 325.845 103.518 325.536C103.731 325.216 103.875 324.917 103.95 324.64C104.025 324.363 104.062 324.101 104.062 323.856C104.062 323.205 103.838 322.693 103.39 322.32C102.953 321.947 102.302 321.76 101.438 321.76C100.777 321.76 100.19 321.861 99.6781 322.064C99.1768 322.267 98.7448 322.581 98.3821 323.008L97.5661 322.304C98.0035 321.792 98.5635 321.397 99.2461 321.12C99.9288 320.843 100.691 320.704 101.534 320.704C102.291 320.704 102.947 320.827 103.502 321.072C104.057 321.307 104.483 321.653 104.782 322.112C105.091 322.571 105.246 323.109 105.246 323.728C105.246 324.091 105.193 324.448 105.086 324.8C104.99 325.152 104.809 325.525 104.542 325.92C104.286 326.304 103.907 326.741 103.406 327.232L99.1341 331.424L98.8141 330.976H105.758V332H97.9021ZM112.292 320.704C113.284 320.704 114.121 320.928 114.804 321.376C115.487 321.813 116.004 322.448 116.356 323.28C116.708 324.112 116.884 325.12 116.884 326.304C116.884 327.563 116.665 328.624 116.228 329.488C115.801 330.352 115.204 331.003 114.436 331.44C113.668 331.877 112.777 332.096 111.764 332.096C111.263 332.096 110.783 332.048 110.324 331.952C109.876 331.856 109.471 331.701 109.108 331.488L109.572 330.56C109.86 330.752 110.191 330.891 110.564 330.976C110.948 331.051 111.343 331.088 111.748 331.088C112.953 331.088 113.913 330.704 114.628 329.936C115.353 329.168 115.716 328.021 115.716 326.496C115.716 326.251 115.7 325.957 115.668 325.616C115.647 325.275 115.588 324.933 115.492 324.592L115.892 324.896C115.785 325.451 115.556 325.925 115.204 326.32C114.863 326.704 114.436 326.997 113.924 327.2C113.423 327.403 112.863 327.504 112.244 327.504C111.508 327.504 110.852 327.365 110.276 327.088C109.711 326.811 109.268 326.421 108.948 325.92C108.628 325.419 108.468 324.827 108.468 324.144C108.468 323.44 108.633 322.832 108.964 322.32C109.295 321.808 109.748 321.413 110.324 321.136C110.911 320.848 111.567 320.704 112.292 320.704ZM112.34 321.68C111.807 321.68 111.332 321.781 110.916 321.984C110.511 322.176 110.191 322.453 109.956 322.816C109.721 323.179 109.604 323.611 109.604 324.112C109.604 324.848 109.855 325.435 110.356 325.872C110.868 326.309 111.556 326.528 112.42 326.528C112.996 326.528 113.497 326.421 113.924 326.208C114.361 325.995 114.697 325.701 114.932 325.328C115.177 324.955 115.3 324.539 115.3 324.08C115.3 323.664 115.188 323.275 114.964 322.912C114.74 322.549 114.409 322.256 113.972 322.032C113.535 321.797 112.991 321.68 112.34 321.68Z" fill="#3C3C3B"/>
<path d="M201.445 179.704C202.437 179.704 203.274 179.928 203.957 180.376C204.64 180.813 205.157 181.448 205.509 182.28C205.861 183.112 206.037 184.12 206.037 185.304C206.037 186.563 205.818 187.624 205.381 188.488C204.954 189.352 204.357 190.003 203.589 190.44C202.821 190.877 201.93 191.096 200.917 191.096C200.416 191.096 199.936 191.048 199.477 190.952C199.029 190.856 198.624 190.701 198.261 190.488L198.725 189.56C199.013 189.752 199.344 189.891 199.717 189.976C200.101 190.051 200.496 190.088 200.901 190.088C202.106 190.088 203.066 189.704 203.781 188.936C204.506 188.168 204.869 187.021 204.869 185.496C204.869 185.251 204.853 184.957 204.821 184.616C204.8 184.275 204.741 183.933 204.645 183.592L205.045 183.896C204.938 184.451 204.709 184.925 204.357 185.32C204.016 185.704 203.589 185.997 203.077 186.2C202.576 186.403 202.016 186.504 201.397 186.504C200.661 186.504 200.005 186.365 199.429 186.088C198.864 185.811 198.421 185.421 198.101 184.92C197.781 184.419 197.621 183.827 197.621 183.144C197.621 182.44 197.786 181.832 198.117 181.32C198.448 180.808 198.901 180.413 199.477 180.136C200.064 179.848 200.72 179.704 201.445 179.704ZM201.493 180.68C200.96 180.68 200.485 180.781 200.069 180.984C199.664 181.176 199.344 181.453 199.109 181.816C198.874 182.179 198.757 182.611 198.757 183.112C198.757 183.848 199.008 184.435 199.509 184.872C200.021 185.309 200.709 185.528 201.573 185.528C202.149 185.528 202.65 185.421 203.077 185.208C203.514 184.995 203.85 184.701 204.085 184.328C204.33 183.955 204.453 183.539 204.453 183.08C204.453 182.664 204.341 182.275 204.117 181.912C203.893 181.549 203.562 181.256 203.125 181.032C202.688 180.797 202.144 180.68 201.493 180.68Z" fill="#3C3C3B"/>
<path d="M196.218 238V227.28L196.73 227.824H193.578V226.8H197.37V238H196.218ZM206.24 238.096C205.248 238.096 204.41 237.877 203.728 237.44C203.045 236.992 202.528 236.352 202.176 235.52C201.824 234.677 201.648 233.669 201.648 232.496C201.648 231.227 201.861 230.165 202.288 229.312C202.725 228.448 203.328 227.797 204.096 227.36C204.864 226.923 205.754 226.704 206.768 226.704C207.269 226.704 207.749 226.752 208.208 226.848C208.666 226.944 209.072 227.099 209.424 227.312L208.96 228.24C208.672 228.048 208.341 227.915 207.968 227.84C207.594 227.755 207.2 227.712 206.784 227.712C205.578 227.712 204.613 228.096 203.888 228.864C203.173 229.632 202.816 230.779 202.816 232.304C202.816 232.539 202.826 232.832 202.848 233.184C202.88 233.525 202.944 233.867 203.04 234.208L202.64 233.904C202.757 233.349 202.986 232.88 203.328 232.496C203.669 232.101 204.096 231.803 204.608 231.6C205.12 231.397 205.68 231.296 206.288 231.296C207.034 231.296 207.69 231.435 208.256 231.712C208.821 231.989 209.264 232.379 209.584 232.88C209.904 233.381 210.064 233.973 210.064 234.656C210.064 235.349 209.898 235.957 209.568 236.48C209.237 236.992 208.778 237.392 208.192 237.68C207.616 237.957 206.965 238.096 206.24 238.096ZM206.192 237.12C206.725 237.12 207.194 237.024 207.6 236.832C208.016 236.629 208.341 236.347 208.576 235.984C208.81 235.611 208.928 235.179 208.928 234.688C208.928 233.952 208.672 233.365 208.16 232.928C207.658 232.491 206.976 232.272 206.112 232.272C205.536 232.272 205.034 232.379 204.608 232.592C204.181 232.805 203.845 233.099 203.6 233.472C203.354 233.835 203.232 234.251 203.232 234.72C203.232 235.125 203.344 235.515 203.568 235.888C203.792 236.251 204.122 236.549 204.56 236.784C205.008 237.008 205.552 237.12 206.192 237.12Z" fill="#3C3C3B"/>
<path d="M192.761 285V284.184L197.418 279.624C197.844 279.208 198.164 278.845 198.378 278.536C198.591 278.216 198.735 277.917 198.81 277.64C198.884 277.363 198.922 277.101 198.922 276.856C198.922 276.205 198.698 275.693 198.25 275.32C197.812 274.947 197.162 274.76 196.298 274.76C195.636 274.76 195.049 274.861 194.537 275.064C194.036 275.267 193.604 275.581 193.241 276.008L192.425 275.304C192.863 274.792 193.423 274.397 194.105 274.12C194.788 273.843 195.551 273.704 196.393 273.704C197.151 273.704 197.807 273.827 198.362 274.072C198.916 274.307 199.343 274.653 199.641 275.112C199.951 275.571 200.106 276.109 200.106 276.728C200.106 277.091 200.052 277.448 199.946 277.8C199.85 278.152 199.668 278.525 199.402 278.92C199.146 279.304 198.767 279.741 198.266 280.232L193.993 284.424L193.673 283.976H200.618V285H192.761ZM207.007 285.096C206.197 285.096 205.429 284.968 204.703 284.712C203.989 284.445 203.413 284.093 202.975 283.656L203.535 282.744C203.898 283.117 204.383 283.427 204.991 283.672C205.61 283.917 206.282 284.04 207.007 284.04C207.935 284.04 208.645 283.837 209.135 283.432C209.637 283.027 209.887 282.483 209.887 281.8C209.887 281.117 209.642 280.573 209.151 280.168C208.671 279.763 207.909 279.56 206.863 279.56H206.063V278.712L209.519 274.376L209.679 274.824H203.439V273.8H210.639V274.616L207.183 278.952L206.623 278.584H207.055C208.399 278.584 209.402 278.883 210.063 279.48C210.735 280.077 211.071 280.845 211.071 281.784C211.071 282.413 210.922 282.979 210.623 283.48C210.325 283.981 209.871 284.376 209.263 284.664C208.666 284.952 207.914 285.096 207.007 285.096Z" fill="#3C3C3B"/>
<path d="M195.563 332.096C194.753 332.096 193.985 331.968 193.259 331.712C192.545 331.445 191.969 331.093 191.531 330.656L192.091 329.744C192.454 330.117 192.939 330.427 193.547 330.672C194.166 330.917 194.838 331.04 195.563 331.04C196.492 331.04 197.201 330.837 197.692 330.432C198.193 330.027 198.444 329.483 198.444 328.8C198.444 328.117 198.198 327.573 197.707 327.168C197.228 326.763 196.465 326.56 195.419 326.56H194.619V325.712L198.076 321.376L198.236 321.824H191.995V320.8H199.196V321.616L195.74 325.952L195.18 325.584H195.611C196.955 325.584 197.958 325.883 198.62 326.48C199.292 327.077 199.628 327.845 199.628 328.784C199.628 329.413 199.478 329.979 199.18 330.48C198.881 330.981 198.428 331.376 197.819 331.664C197.222 331.952 196.47 332.096 195.563 332.096ZM207.315 332.096C206.451 332.096 205.683 331.872 205.011 331.424C204.339 330.965 203.811 330.315 203.427 329.472C203.043 328.619 202.851 327.595 202.851 326.4C202.851 325.205 203.043 324.187 203.427 323.344C203.811 322.491 204.339 321.84 205.011 321.392C205.683 320.933 206.451 320.704 207.315 320.704C208.179 320.704 208.947 320.933 209.619 321.392C210.291 321.84 210.819 322.491 211.203 323.344C211.597 324.187 211.795 325.205 211.795 326.4C211.795 327.595 211.597 328.619 211.203 329.472C210.819 330.315 210.291 330.965 209.619 331.424C208.947 331.872 208.179 332.096 207.315 332.096ZM207.315 331.04C207.976 331.04 208.552 330.864 209.043 330.512C209.533 330.149 209.917 329.627 210.195 328.944C210.472 328.251 210.611 327.403 210.611 326.4C210.611 325.397 210.472 324.555 210.195 323.872C209.917 323.179 209.533 322.656 209.043 322.304C208.552 321.941 207.976 321.76 207.315 321.76C206.675 321.76 206.104 321.941 205.603 322.304C205.101 322.656 204.712 323.179 204.435 323.872C204.157 324.555 204.019 325.397 204.019 326.4C204.019 327.403 204.157 328.251 204.435 328.944C204.712 329.627 205.101 330.149 205.603 330.512C206.104 330.864 206.675 331.04 207.315 331.04Z" fill="#3C3C3B"/>
<path d="M198.077 144V143.184L202.733 138.624C203.16 138.208 203.48 137.845 203.693 137.536C203.906 137.216 204.05 136.917 204.125 136.64C204.2 136.363 204.237 136.101 204.237 135.856C204.237 135.205 204.013 134.693 203.565 134.32C203.128 133.947 202.477 133.76 201.613 133.76C200.952 133.76 200.365 133.861 199.853 134.064C199.352 134.267 198.92 134.581 198.557 135.008L197.741 134.304C198.178 133.792 198.738 133.397 199.421 133.12C200.104 132.843 200.866 132.704 201.709 132.704C202.466 132.704 203.122 132.827 203.677 133.072C204.232 133.307 204.658 133.653 204.957 134.112C205.266 134.571 205.421 135.109 205.421 135.728C205.421 136.091 205.368 136.448 205.261 136.8C205.165 137.152 204.984 137.525 204.717 137.92C204.461 138.304 204.082 138.741 203.581 139.232L199.309 143.424L198.989 142.976H205.933V144H198.077Z" fill="#3C3C3B"/>
<path d="M286.66 144.096C285.85 144.096 285.082 143.968 284.356 143.712C283.642 143.445 283.066 143.093 282.628 142.656L283.188 141.744C283.551 142.117 284.036 142.427 284.644 142.672C285.263 142.917 285.935 143.04 286.66 143.04C287.588 143.04 288.298 142.837 288.788 142.432C289.29 142.027 289.54 141.483 289.54 140.8C289.54 140.117 289.295 139.573 288.804 139.168C288.324 138.763 287.562 138.56 286.516 138.56H285.716V137.712L289.172 133.376L289.332 133.824H283.092V132.8H290.292V133.616L286.836 137.952L286.276 137.584H286.708C288.052 137.584 289.055 137.883 289.716 138.48C290.388 139.077 290.724 139.845 290.724 140.784C290.724 141.413 290.575 141.979 290.276 142.48C289.978 142.981 289.524 143.376 288.916 143.664C288.319 143.952 287.567 144.096 286.66 144.096Z" fill="#3C3C3B"/>
<path d="M280.796 191V180.28L281.309 180.824H278.156V179.8H281.948V191H280.796ZM290.69 191.096C289.826 191.096 289.058 190.872 288.386 190.424C287.714 189.965 287.186 189.315 286.802 188.472C286.418 187.619 286.226 186.595 286.226 185.4C286.226 184.205 286.418 183.187 286.802 182.344C287.186 181.491 287.714 180.84 288.386 180.392C289.058 179.933 289.826 179.704 290.69 179.704C291.554 179.704 292.322 179.933 292.994 180.392C293.666 180.84 294.194 181.491 294.578 182.344C294.972 183.187 295.17 184.205 295.17 185.4C295.17 186.595 294.972 187.619 294.578 188.472C294.194 189.315 293.666 189.965 292.994 190.424C292.322 190.872 291.554 191.096 290.69 191.096ZM290.69 190.04C291.351 190.04 291.927 189.864 292.418 189.512C292.908 189.149 293.292 188.627 293.57 187.944C293.847 187.251 293.986 186.403 293.986 185.4C293.986 184.397 293.847 183.555 293.57 182.872C293.292 182.179 292.908 181.656 292.418 181.304C291.927 180.941 291.351 180.76 290.69 180.76C290.05 180.76 289.479 180.941 288.978 181.304C288.476 181.656 288.087 182.179 287.81 182.872C287.532 183.555 287.394 184.397 287.394 185.4C287.394 186.403 287.532 187.251 287.81 187.944C288.087 188.627 288.476 189.149 288.978 189.512C289.479 189.864 290.05 190.04 290.69 190.04Z" fill="#3C3C3B"/>
<path d="M281.882 238V227.28L282.394 227.824H279.242V226.8H283.034V238H281.882ZM289.28 238L294.112 227.312L294.464 227.824H287.536L288.128 227.264V229.92H286.992V226.8H295.216V227.616L290.528 238H289.28Z" fill="#3C3C3B"/>
<path d="M277.668 285V284.184L282.324 279.624C282.75 279.208 283.07 278.845 283.284 278.536C283.497 278.216 283.641 277.917 283.716 277.64C283.79 277.363 283.828 277.101 283.828 276.856C283.828 276.205 283.604 275.693 283.156 275.32C282.718 274.947 282.068 274.76 281.204 274.76C280.542 274.76 279.956 274.861 279.444 275.064C278.942 275.267 278.51 275.581 278.148 276.008L277.332 275.304C277.769 274.792 278.329 274.397 279.012 274.12C279.694 273.843 280.457 273.704 281.3 273.704C282.057 273.704 282.713 273.827 283.268 274.072C283.822 274.307 284.249 274.653 284.548 275.112C284.857 275.571 285.012 276.109 285.012 276.728C285.012 277.091 284.958 277.448 284.852 277.8C284.756 278.152 284.574 278.525 284.308 278.92C284.052 279.304 283.673 279.741 283.172 280.232L278.9 284.424L278.58 283.976H285.524V285H277.668ZM288.018 282.056V281.224L293.954 273.8H295.234L289.346 281.224L288.722 281.032H297.73V282.056H288.018ZM294.338 285V282.056L294.37 281.032V278.44H295.49V285H294.338Z" fill="#3C3C3B"/>
<path d="M283.47 332.096C282.659 332.096 281.891 331.968 281.166 331.712C280.451 331.445 279.875 331.093 279.438 330.656L279.998 329.744C280.36 330.117 280.846 330.427 281.454 330.672C282.072 330.917 282.744 331.04 283.47 331.04C284.398 331.04 285.107 330.837 285.598 330.432C286.099 330.027 286.35 329.483 286.35 328.8C286.35 328.117 286.104 327.573 285.614 327.168C285.134 326.763 284.371 326.56 283.326 326.56H282.526V325.712L285.982 321.376L286.142 321.824H279.902V320.8H287.102V321.616L283.646 325.952L283.086 325.584H283.518C284.862 325.584 285.864 325.883 286.526 326.48C287.198 327.077 287.534 327.845 287.534 328.784C287.534 329.413 287.384 329.979 287.086 330.48C286.787 330.981 286.334 331.376 285.726 331.664C285.128 331.952 284.376 332.096 283.47 332.096ZM292.709 332V321.28L293.221 321.824H290.069V320.8H293.861V332H292.709Z" fill="#3C3C3B"/>
<path d="M358.851 141.056V140.224L364.787 132.8H366.067L360.179 140.224L359.555 140.032H368.563V141.056H358.851ZM365.171 144V141.056L365.203 140.032V137.44H366.323V144H365.171Z" fill="#3C3C3B"/>
<path d="M359.203 191V180.28L359.715 180.824H356.563V179.8H360.355V191H359.203ZM366.584 191V180.28L367.096 180.824H363.944V179.8H367.736V191H366.584Z" fill="#3C3C3B"/>
<path d="M356.992 238V227.28L357.504 227.824H354.352V226.8H358.144V238H356.992ZM366.677 238.096C365.781 238.096 365.008 237.968 364.357 237.712C363.717 237.456 363.221 237.088 362.869 236.608C362.528 236.117 362.357 235.541 362.357 234.88C362.357 234.24 362.522 233.696 362.853 233.248C363.194 232.789 363.685 232.437 364.325 232.192C364.976 231.947 365.76 231.824 366.677 231.824C367.584 231.824 368.362 231.947 369.013 232.192C369.664 232.437 370.16 232.789 370.501 233.248C370.853 233.696 371.029 234.24 371.029 234.88C371.029 235.541 370.853 236.117 370.501 236.608C370.149 237.088 369.648 237.456 368.997 237.712C368.346 237.968 367.573 238.096 366.677 238.096ZM366.677 237.12C367.669 237.12 368.442 236.917 368.997 236.512C369.562 236.107 369.845 235.557 369.845 234.864C369.845 234.171 369.562 233.627 368.997 233.232C368.442 232.827 367.669 232.624 366.677 232.624C365.685 232.624 364.912 232.827 364.357 233.232C363.802 233.627 363.525 234.171 363.525 234.864C363.525 235.557 363.802 236.107 364.357 236.512C364.912 236.917 365.685 237.12 366.677 237.12ZM366.677 232.48C365.845 232.48 365.136 232.368 364.549 232.144C363.973 231.92 363.53 231.6 363.221 231.184C362.912 230.757 362.757 230.251 362.757 229.664C362.757 229.045 362.917 228.517 363.237 228.08C363.568 227.632 364.026 227.291 364.613 227.056C365.2 226.821 365.888 226.704 366.677 226.704C367.466 226.704 368.154 226.821 368.741 227.056C369.338 227.291 369.802 227.632 370.133 228.08C370.464 228.517 370.629 229.045 370.629 229.664C370.629 230.251 370.474 230.757 370.165 231.184C369.856 231.6 369.402 231.92 368.805 232.144C368.218 232.368 367.509 232.48 366.677 232.48ZM366.677 231.712C367.552 231.712 368.234 231.531 368.725 231.168C369.216 230.805 369.461 230.32 369.461 229.712C369.461 229.072 369.205 228.576 368.693 228.224C368.192 227.861 367.52 227.68 366.677 227.68C365.834 227.68 365.162 227.861 364.661 228.224C364.16 228.576 363.909 229.067 363.909 229.696C363.909 230.315 364.149 230.805 364.629 231.168C365.12 231.531 365.802 231.712 366.677 231.712Z" fill="#3C3C3B"/>
<path d="M353.746 285V284.184L358.402 279.624C358.829 279.208 359.149 278.845 359.362 278.536C359.575 278.216 359.719 277.917 359.794 277.64C359.869 277.363 359.906 277.101 359.906 276.856C359.906 276.205 359.682 275.693 359.234 275.32C358.797 274.947 358.146 274.76 357.282 274.76C356.621 274.76 356.034 274.861 355.522 275.064C355.021 275.267 354.589 275.581 354.226 276.008L353.41 275.304C353.847 274.792 354.407 274.397 355.09 274.12C355.773 273.843 356.535 273.704 357.378 273.704C358.135 273.704 358.791 273.827 359.346 274.072C359.901 274.307 360.327 274.653 360.626 275.112C360.935 275.571 361.09 276.109 361.09 276.728C361.09 277.091 361.037 277.448 360.93 277.8C360.834 278.152 360.653 278.525 360.386 278.92C360.13 279.304 359.751 279.741 359.25 280.232L354.978 284.424L354.658 283.976H361.602V285H353.746ZM368.184 285.096C367.384 285.096 366.621 284.968 365.896 284.712C365.17 284.445 364.594 284.093 364.168 283.656L364.728 282.744C365.08 283.117 365.56 283.427 366.168 283.672C366.786 283.917 367.453 284.04 368.168 284.04C369.117 284.04 369.837 283.832 370.328 283.416C370.829 282.989 371.08 282.435 371.08 281.752C371.08 281.272 370.962 280.861 370.728 280.52C370.504 280.168 370.12 279.896 369.576 279.704C369.032 279.512 368.285 279.416 367.336 279.416H364.952L365.528 273.8H371.656V274.824H365.992L366.584 274.264L366.088 278.968L365.496 278.392H367.592C368.722 278.392 369.629 278.531 370.312 278.808C370.994 279.085 371.485 279.475 371.784 279.976C372.093 280.467 372.248 281.043 372.248 281.704C372.248 282.333 372.098 282.909 371.8 283.432C371.501 283.944 371.053 284.349 370.456 284.648C369.858 284.947 369.101 285.096 368.184 285.096Z" fill="#3C3C3B"/>
<path d="M433.837 144.096C433.037 144.096 432.274 143.968 431.549 143.712C430.823 143.445 430.247 143.093 429.821 142.656L430.381 141.744C430.733 142.117 431.213 142.427 431.821 142.672C432.439 142.917 433.106 143.04 433.821 143.04C434.77 143.04 435.49 142.832 435.981 142.416C436.482 141.989 436.733 141.435 436.733 140.752C436.733 140.272 436.615 139.861 436.381 139.52C436.157 139.168 435.773 138.896 435.229 138.704C434.685 138.512 433.938 138.416 432.989 138.416H430.605L431.181 132.8H437.309V133.824H431.645L432.237 133.264L431.741 137.968L431.149 137.392H433.245C434.375 137.392 435.282 137.531 435.965 137.808C436.647 138.085 437.138 138.475 437.437 138.976C437.746 139.467 437.901 140.043 437.901 140.704C437.901 141.333 437.751 141.909 437.453 142.432C437.154 142.944 436.706 143.349 436.109 143.648C435.511 143.947 434.754 144.096 433.837 144.096Z" fill="#3C3C3B"/>
<path d="M429.046 191V180.28L429.559 180.824H426.406V179.8H430.198V191H429.046ZM434.268 191V190.184L438.924 185.624C439.35 185.208 439.67 184.845 439.884 184.536C440.097 184.216 440.241 183.917 440.316 183.64C440.39 183.363 440.428 183.101 440.428 182.856C440.428 182.205 440.204 181.693 439.756 181.32C439.318 180.947 438.668 180.76 437.804 180.76C437.142 180.76 436.556 180.861 436.044 181.064C435.542 181.267 435.11 181.581 434.748 182.008L433.932 181.304C434.369 180.792 434.929 180.397 435.612 180.12C436.294 179.843 437.057 179.704 437.9 179.704C438.657 179.704 439.313 179.827 439.868 180.072C440.422 180.307 440.849 180.653 441.148 181.112C441.457 181.571 441.612 182.109 441.612 182.728C441.612 183.091 441.558 183.448 441.452 183.8C441.356 184.152 441.174 184.525 440.908 184.92C440.652 185.304 440.273 185.741 439.772 186.232L435.5 190.424L435.18 189.976H442.124V191H434.268Z" fill="#3C3C3B"/>
<path d="M427.825 238V227.76L428.945 228.88H425.585V226.8H430.417V238H427.825ZM437.899 226.608C438.934 226.608 439.824 226.821 440.571 227.248C441.318 227.675 441.894 228.299 442.299 229.12C442.704 229.931 442.907 230.944 442.907 232.16C442.907 233.451 442.662 234.544 442.171 235.44C441.691 236.336 441.024 237.019 440.171 237.488C439.318 237.957 438.326 238.192 437.195 238.192C436.608 238.192 436.043 238.128 435.499 238C434.955 237.872 434.486 237.68 434.091 237.424L435.051 235.52C435.36 235.733 435.691 235.883 436.043 235.968C436.395 236.043 436.763 236.08 437.147 236.08C438.107 236.08 438.87 235.787 439.435 235.2C440.011 234.613 440.299 233.744 440.299 232.592C440.299 232.4 440.294 232.187 440.283 231.952C440.272 231.717 440.246 231.483 440.203 231.248L440.907 231.92C440.726 232.336 440.47 232.688 440.139 232.976C439.808 233.253 439.424 233.467 438.987 233.616C438.55 233.755 438.059 233.824 437.515 233.824C436.8 233.824 436.15 233.68 435.563 233.392C434.987 233.104 434.523 232.699 434.171 232.176C433.83 231.653 433.659 231.04 433.659 230.336C433.659 229.568 433.846 228.907 434.219 228.352C434.603 227.797 435.115 227.371 435.755 227.072C436.406 226.763 437.12 226.608 437.899 226.608ZM438.059 228.544C437.686 228.544 437.36 228.613 437.083 228.752C436.806 228.88 436.587 229.072 436.427 229.328C436.267 229.573 436.187 229.867 436.187 230.208C436.187 230.72 436.358 231.131 436.699 231.44C437.051 231.739 437.515 231.888 438.091 231.888C438.464 231.888 438.795 231.819 439.083 231.68C439.382 231.531 439.611 231.328 439.771 231.072C439.931 230.816 440.011 230.528 440.011 230.208C440.011 229.888 439.931 229.605 439.771 229.36C439.622 229.104 439.403 228.907 439.115 228.768C438.827 228.619 438.475 228.544 438.059 228.544Z" fill="#3C3C3B"/>
<path d="M424.918 285V284.184L429.574 279.624C430 279.208 430.32 278.845 430.534 278.536C430.747 278.216 430.891 277.917 430.966 277.64C431.04 277.363 431.078 277.101 431.078 276.856C431.078 276.205 430.854 275.693 430.406 275.32C429.968 274.947 429.318 274.76 428.454 274.76C427.792 274.76 427.206 274.861 426.694 275.064C426.192 275.267 425.76 275.581 425.398 276.008L424.582 275.304C425.019 274.792 425.579 274.397 426.262 274.12C426.944 273.843 427.707 273.704 428.55 273.704C429.307 273.704 429.963 273.827 430.518 274.072C431.072 274.307 431.499 274.653 431.798 275.112C432.107 275.571 432.262 276.109 432.262 276.728C432.262 277.091 432.208 277.448 432.102 277.8C432.006 278.152 431.824 278.525 431.558 278.92C431.302 279.304 430.923 279.741 430.422 280.232L426.15 284.424L425.83 283.976H432.774V285H424.918ZM440.38 285.096C439.388 285.096 438.551 284.877 437.868 284.44C437.186 283.992 436.668 283.352 436.316 282.52C435.964 281.677 435.788 280.669 435.788 279.496C435.788 278.227 436.002 277.165 436.428 276.312C436.866 275.448 437.468 274.797 438.236 274.36C439.004 273.923 439.895 273.704 440.908 273.704C441.41 273.704 441.89 273.752 442.348 273.848C442.807 273.944 443.212 274.099 443.564 274.312L443.1 275.24C442.812 275.048 442.482 274.915 442.108 274.84C441.735 274.755 441.34 274.712 440.924 274.712C439.719 274.712 438.754 275.096 438.028 275.864C437.314 276.632 436.956 277.779 436.956 279.304C436.956 279.539 436.967 279.832 436.988 280.184C437.02 280.525 437.084 280.867 437.18 281.208L436.78 280.904C436.898 280.349 437.127 279.88 437.468 279.496C437.81 279.101 438.236 278.803 438.748 278.6C439.26 278.397 439.82 278.296 440.428 278.296C441.175 278.296 441.831 278.435 442.396 278.712C442.962 278.989 443.404 279.379 443.724 279.88C444.044 280.381 444.204 280.973 444.204 281.656C444.204 282.349 444.039 282.957 443.708 283.48C443.378 283.992 442.919 284.392 442.332 284.68C441.756 284.957 441.106 285.096 440.38 285.096ZM440.332 284.12C440.866 284.12 441.335 284.024 441.74 283.832C442.156 283.629 442.482 283.347 442.716 282.984C442.951 282.611 443.068 282.179 443.068 281.688C443.068 280.952 442.812 280.365 442.3 279.928C441.799 279.491 441.116 279.272 440.252 279.272C439.676 279.272 439.175 279.379 438.748 279.592C438.322 279.805 437.986 280.099 437.74 280.472C437.495 280.835 437.372 281.251 437.372 281.72C437.372 282.125 437.484 282.515 437.708 282.888C437.932 283.251 438.263 283.549 438.7 283.784C439.148 284.008 439.692 284.12 440.332 284.12Z" fill="#3C3C3B"/>
<path d="M529.549 144.096C528.557 144.096 527.72 143.877 527.037 143.44C526.354 142.992 525.837 142.352 525.485 141.52C525.133 140.677 524.957 139.669 524.957 138.496C524.957 137.227 525.17 136.165 525.597 135.312C526.034 134.448 526.637 133.797 527.405 133.36C528.173 132.923 529.064 132.704 530.077 132.704C530.578 132.704 531.058 132.752 531.517 132.848C531.976 132.944 532.381 133.099 532.733 133.312L532.269 134.24C531.981 134.048 531.65 133.915 531.277 133.84C530.904 133.755 530.509 133.712 530.093 133.712C528.888 133.712 527.922 134.096 527.197 134.864C526.482 135.632 526.125 136.779 526.125 138.304C526.125 138.539 526.136 138.832 526.157 139.184C526.189 139.525 526.253 139.867 526.349 140.208L525.949 139.904C526.066 139.349 526.296 138.88 526.637 138.496C526.978 138.101 527.405 137.803 527.917 137.6C528.429 137.397 528.989 137.296 529.597 137.296C530.344 137.296 531 137.435 531.565 137.712C532.13 137.989 532.573 138.379 532.893 138.88C533.213 139.381 533.373 139.973 533.373 140.656C533.373 141.349 533.208 141.957 532.877 142.48C532.546 142.992 532.088 143.392 531.501 143.68C530.925 143.957 530.274 144.096 529.549 144.096ZM529.501 143.12C530.034 143.12 530.504 143.024 530.909 142.832C531.325 142.629 531.65 142.347 531.885 141.984C532.12 141.611 532.237 141.179 532.237 140.688C532.237 139.952 531.981 139.365 531.469 138.928C530.968 138.491 530.285 138.272 529.421 138.272C528.845 138.272 528.344 138.379 527.917 138.592C527.49 138.805 527.154 139.099 526.909 139.472C526.664 139.835 526.541 140.251 526.541 140.72C526.541 141.125 526.653 141.515 526.877 141.888C527.101 142.251 527.432 142.549 527.869 142.784C528.317 143.008 528.861 143.12 529.501 143.12Z" fill="#3C3C3B"/>
<path d="M524.078 191V180.28L524.59 180.824H521.438V179.8H525.23V191H524.078ZM532.851 191.096C532.04 191.096 531.272 190.968 530.547 190.712C529.832 190.445 529.256 190.093 528.819 189.656L529.379 188.744C529.742 189.117 530.227 189.427 530.835 189.672C531.454 189.917 532.126 190.04 532.851 190.04C533.779 190.04 534.488 189.837 534.979 189.432C535.48 189.027 535.731 188.483 535.731 187.8C535.731 187.117 535.486 186.573 534.995 186.168C534.515 185.763 533.752 185.56 532.707 185.56H531.907V184.712L535.363 180.376L535.523 180.824H529.283V179.8H536.483V180.616L533.027 184.952L532.467 184.584H532.899C534.243 184.584 535.246 184.883 535.907 185.48C536.579 186.077 536.915 186.845 536.915 187.784C536.915 188.413 536.766 188.979 536.467 189.48C536.168 189.981 535.715 190.376 535.107 190.664C534.51 190.952 533.758 191.096 532.851 191.096Z" fill="#3C3C3B"/>
<path d="M518.996 238V237.184L523.652 232.624C524.079 232.208 524.399 231.845 524.612 231.536C524.825 231.216 524.969 230.917 525.044 230.64C525.119 230.363 525.156 230.101 525.156 229.856C525.156 229.205 524.932 228.693 524.484 228.32C524.047 227.947 523.396 227.76 522.532 227.76C521.871 227.76 521.284 227.861 520.772 228.064C520.271 228.267 519.839 228.581 519.476 229.008L518.66 228.304C519.097 227.792 519.657 227.397 520.34 227.12C521.023 226.843 521.785 226.704 522.628 226.704C523.385 226.704 524.041 226.827 524.596 227.072C525.151 227.307 525.577 227.653 525.876 228.112C526.185 228.571 526.34 229.109 526.34 229.728C526.34 230.091 526.287 230.448 526.18 230.8C526.084 231.152 525.903 231.525 525.636 231.92C525.38 232.304 525.001 232.741 524.5 233.232L520.228 237.424L519.908 236.976H526.852V238H518.996ZM534.33 238.096C533.466 238.096 532.698 237.872 532.026 237.424C531.354 236.965 530.826 236.315 530.442 235.472C530.058 234.619 529.866 233.595 529.866 232.4C529.866 231.205 530.058 230.187 530.442 229.344C530.826 228.491 531.354 227.84 532.026 227.392C532.698 226.933 533.466 226.704 534.33 226.704C535.194 226.704 535.962 226.933 536.634 227.392C537.306 227.84 537.834 228.491 538.218 229.344C538.613 230.187 538.81 231.205 538.81 232.4C538.81 233.595 538.613 234.619 538.218 235.472C537.834 236.315 537.306 236.965 536.634 237.424C535.962 237.872 535.194 238.096 534.33 238.096ZM534.33 237.04C534.992 237.04 535.568 236.864 536.058 236.512C536.549 236.149 536.933 235.627 537.21 234.944C537.488 234.251 537.626 233.403 537.626 232.4C537.626 231.397 537.488 230.555 537.21 229.872C536.933 229.179 536.549 228.656 536.058 228.304C535.568 227.941 534.992 227.76 534.33 227.76C533.69 227.76 533.12 227.941 532.618 228.304C532.117 228.656 531.728 229.179 531.45 229.872C531.173 230.555 531.034 231.397 531.034 232.4C531.034 233.403 531.173 234.251 531.45 234.944C531.728 235.627 532.117 236.149 532.618 236.512C533.12 236.864 533.69 237.04 534.33 237.04Z" fill="#3C3C3B"/>
<path d="M520.082 285V284.184L524.738 279.624C525.164 279.208 525.484 278.845 525.698 278.536C525.911 278.216 526.055 277.917 526.13 277.64C526.204 277.363 526.242 277.101 526.242 276.856C526.242 276.205 526.018 275.693 525.57 275.32C525.132 274.947 524.482 274.76 523.618 274.76C522.956 274.76 522.37 274.861 521.858 275.064C521.356 275.267 520.924 275.581 520.562 276.008L519.746 275.304C520.183 274.792 520.743 274.397 521.426 274.12C522.108 273.843 522.871 273.704 523.714 273.704C524.471 273.704 525.127 273.827 525.682 274.072C526.236 274.307 526.663 274.653 526.962 275.112C527.271 275.571 527.426 276.109 527.426 276.728C527.426 277.091 527.372 277.448 527.266 277.8C527.17 278.152 526.988 278.525 526.722 278.92C526.466 279.304 526.087 279.741 525.586 280.232L521.314 284.424L520.994 283.976H527.938V285H520.082ZM532.92 285L537.752 274.312L538.104 274.824H531.176L531.768 274.264V276.92H530.632V273.8H538.856V274.616L534.168 285H532.92Z" fill="#3C3C3B"/>
<path d="M169.224 23.448C169.224 21.3853 169.575 19.47 170.278 17.702C171.003 15.934 172.001 14.4153 173.27 13.146C174.539 11.8767 176.035 10.8793 177.758 10.154C179.503 9.42867 181.396 9.066 183.436 9.066C185.499 9.066 187.403 9.44 189.148 10.188C190.916 10.9133 192.435 11.922 193.704 13.214C194.973 14.4833 195.959 16.002 196.662 17.77C197.387 19.5153 197.75 21.408 197.75 23.448C197.75 25.4653 197.376 27.358 196.628 29.126C195.903 30.894 194.894 32.4353 193.602 33.75C192.333 35.0647 190.825 36.1073 189.08 36.878C187.357 37.626 185.499 38 183.504 38C181.441 38 179.537 37.626 177.792 36.878C176.047 36.13 174.539 35.11 173.27 33.818C172.001 32.5033 171.003 30.962 170.278 29.194C169.575 27.4033 169.224 25.488 169.224 23.448ZM183.47 9.44C181.657 9.44 180.127 9.83667 178.88 10.63C177.633 11.4007 176.613 12.432 175.82 13.724C175.027 15.016 174.449 16.512 174.086 18.212C173.746 19.8893 173.576 21.646 173.576 23.482C173.576 25.2727 173.757 27.018 174.12 28.718C174.505 30.418 175.095 31.9253 175.888 33.24C176.681 34.5547 177.701 35.62 178.948 36.436C180.217 37.2293 181.736 37.626 183.504 37.626C185.249 37.626 186.745 37.218 187.992 36.402C189.239 35.586 190.259 34.5207 191.052 33.206C191.868 31.8687 192.457 30.3613 192.82 28.684C193.205 26.984 193.398 25.2613 193.398 23.516C193.398 21.7253 193.217 19.9913 192.854 18.314C192.491 16.614 191.913 15.1067 191.12 13.792C190.327 12.4773 189.295 11.4233 188.026 10.63C186.779 9.83667 185.261 9.44 183.47 9.44ZM203.603 23.414C203.603 21.306 203.954 19.368 204.657 17.6C205.359 15.832 206.345 14.3133 207.615 13.044C208.907 11.7747 210.437 10.7887 212.205 10.086C213.995 9.36067 215.979 8.998 218.155 8.998C219.991 8.998 221.77 9.24733 223.493 9.746C225.215 10.2447 226.847 11.038 228.389 12.126L227.029 17.226L226.689 17.158C226.394 16.0473 226.02 15.016 225.567 14.064C225.113 13.0893 224.558 12.2507 223.901 11.548C223.243 10.8453 222.473 10.3013 221.589 9.916C220.705 9.508 219.685 9.304 218.529 9.304C216.693 9.304 215.106 9.712 213.769 10.528C212.454 11.344 211.366 12.4207 210.505 13.758C209.666 15.0953 209.043 16.648 208.635 18.416C208.249 20.1613 208.057 21.9633 208.057 23.822C208.057 25.59 208.283 27.3127 208.737 28.99C209.19 30.6447 209.859 32.1293 210.743 33.444C211.627 34.736 212.715 35.7787 214.007 36.572C215.321 37.3427 216.84 37.728 218.563 37.728C219.787 37.728 220.886 37.49 221.861 37.014C222.858 36.538 223.719 35.9033 224.445 35.11C225.17 34.294 225.771 33.3533 226.247 32.288C226.723 31.2227 227.063 30.0893 227.267 28.888L227.607 28.82L229.103 34.226C227.471 35.5407 225.748 36.504 223.935 37.116C222.144 37.728 220.183 38.034 218.053 38.034C216.035 38.034 214.154 37.694 212.409 37.014C210.663 36.3113 209.133 35.3253 207.819 34.056C206.504 32.7867 205.473 31.2567 204.725 29.466C203.977 27.6527 203.603 25.6353 203.603 23.414ZM234.076 15.424C234.302 14.132 234.484 13.078 234.62 12.262C234.778 11.446 234.903 10.8113 234.994 10.358C235.084 9.882 235.141 9.55333 235.164 9.372C235.209 9.19067 235.232 9.08867 235.232 9.066H264.234V9.168L265.39 15.424C265.344 15.4467 265.31 15.458 265.288 15.458C265.288 15.458 265.265 15.4693 265.22 15.492C265.174 15.5147 265.14 15.526 265.118 15.526C264.392 14.4153 263.701 13.4747 263.044 12.704C262.386 11.9107 261.661 11.276 260.868 10.8C260.097 10.324 259.202 9.984 258.182 9.78C257.184 9.55333 255.972 9.44 254.544 9.44H251.858V34.124C251.88 35.3253 252.05 36.2207 252.368 36.81C252.708 37.3767 253.433 37.66 254.544 37.66V38C253.433 37.9547 252.515 37.9207 251.79 37.898C251.064 37.8527 250.373 37.83 249.716 37.83C249.058 37.8073 248.356 37.8187 247.608 37.864C246.882 37.8867 245.953 37.932 244.82 38V37.66C245.386 37.66 245.851 37.5807 246.214 37.422C246.576 37.2633 246.848 37.0253 247.03 36.708C247.211 36.3907 247.336 35.994 247.404 35.518C247.472 35.0193 247.506 34.4413 247.506 33.784V9.44H244.922C243.494 9.44 242.27 9.55333 241.25 9.78C240.252 9.984 239.357 10.324 238.564 10.8C237.793 11.276 237.068 11.9107 236.388 12.704C235.73 13.4747 235.05 14.4153 234.348 15.526C234.325 15.526 234.291 15.5147 234.246 15.492C234.2 15.4693 234.166 15.458 234.144 15.458C234.121 15.458 234.098 15.4467 234.076 15.424ZM270.367 9.066C271.342 9.134 272.147 9.19067 272.781 9.236C273.439 9.25867 274.062 9.27 274.651 9.27C275.241 9.27 275.83 9.25867 276.419 9.236C277.009 9.19067 277.711 9.14533 278.527 9.1C278.618 9.1 278.709 9.1 278.799 9.1C278.89 9.1 278.981 9.08867 279.071 9.066C280.341 8.998 281.451 9.066 282.403 9.27C283.378 9.45133 284.183 9.85933 284.817 10.494C285.452 11.106 285.905 11.99 286.177 13.146C286.449 14.2793 286.54 15.7527 286.449 17.566C286.381 19.1527 286.461 20.49 286.687 21.578C286.914 22.6433 287.231 23.5047 287.639 24.162C288.07 24.8193 288.557 25.2953 289.101 25.59C289.668 25.862 290.246 25.998 290.835 25.998C291.243 25.998 291.663 25.9413 292.093 25.828C292.524 25.692 292.909 25.4993 293.249 25.25C293.612 24.978 293.918 24.638 294.167 24.23C294.417 23.822 294.575 23.3233 294.643 22.734V12.67C294.643 12.1713 294.621 11.7293 294.575 11.344C294.53 10.936 294.428 10.596 294.269 10.324C294.111 10.0293 293.884 9.80267 293.589 9.644C293.295 9.48533 292.898 9.406 292.399 9.406V9.066C293.102 9.134 293.975 9.168 295.017 9.168C295.788 9.168 296.536 9.134 297.261 9.066V9.406C296.763 9.406 296.366 9.48533 296.071 9.644C295.777 9.80267 295.55 10.0293 295.391 10.324C295.233 10.596 295.131 10.936 295.085 11.344C295.04 11.7293 295.017 12.1713 295.017 12.67V28.582C295.017 29.9647 294.825 31.1547 294.439 32.152C294.054 33.1493 293.544 33.9993 292.909 34.702C292.275 35.382 291.549 35.9373 290.733 36.368C289.94 36.7987 289.124 37.1387 288.285 37.388C287.469 37.6147 286.665 37.7733 285.871 37.864C285.078 37.932 284.387 37.9773 283.797 38C282.347 38.0453 280.941 37.898 279.581 37.558C278.244 37.218 277.054 36.6853 276.011 35.96C274.991 35.2347 274.164 34.3167 273.529 33.206C272.917 32.0727 272.611 30.7467 272.611 29.228V12.67C272.611 12.1713 272.589 11.7293 272.543 11.344C272.498 10.936 272.396 10.596 272.237 10.324C272.079 10.0293 271.852 9.80267 271.557 9.644C271.263 9.48533 270.866 9.406 270.367 9.406V9.066ZM276.963 29.228C276.963 30.4293 277.156 31.54 277.541 32.56C277.949 33.5573 278.505 34.4187 279.207 35.144C279.91 35.8693 280.749 36.4473 281.723 36.878C282.721 37.286 283.809 37.49 284.987 37.49C285.237 37.49 285.497 37.4787 285.769 37.456C286.041 37.4333 286.313 37.3993 286.585 37.354C289.011 36.946 290.949 36.062 292.399 34.702C293.85 33.342 294.598 31.4153 294.643 28.922V24.06C294.303 24.808 293.782 25.3747 293.079 25.76C292.399 26.1453 291.663 26.3493 290.869 26.372C289.872 26.372 289.056 26.1113 288.421 25.59C287.787 25.046 287.288 24.3547 286.925 23.516C286.563 22.6773 286.325 21.7367 286.211 20.694C286.098 19.6287 286.064 18.586 286.109 17.566C286.2 15.2313 286.019 13.486 285.565 12.33C285.293 11.65 284.942 11.1173 284.511 10.732C284.081 10.324 283.582 10.018 283.015 9.814C282.449 9.61 281.825 9.48533 281.145 9.44C280.465 9.39466 279.763 9.38333 279.037 9.406C278.131 9.45133 277.553 9.75733 277.303 10.324C277.077 10.868 276.963 11.616 276.963 12.568V29.228ZM303.119 37.66C303.686 37.66 304.15 37.5807 304.513 37.422C304.876 37.2633 305.148 37.0253 305.329 36.708C305.51 36.3907 305.635 35.994 305.703 35.518C305.771 35.0193 305.805 34.4413 305.805 33.784V12.67C305.805 12.1713 305.782 11.7293 305.737 11.344C305.692 10.936 305.59 10.596 305.431 10.324C305.272 10.0293 305.046 9.80267 304.751 9.644C304.456 9.48533 304.06 9.406 303.561 9.406V9.066H317.263C318.442 9.066 319.541 9.168 320.561 9.372C321.604 9.55333 322.499 9.89333 323.247 10.392C324.018 10.8907 324.618 11.5707 325.049 12.432C325.48 13.2707 325.695 14.336 325.695 15.628C325.695 16.8973 325.4 17.9627 324.811 18.824C324.222 19.6853 323.496 20.3767 322.635 20.898C321.796 21.3967 320.89 21.7593 319.915 21.986C318.963 22.19 318.113 22.292 317.365 22.292C318.612 22.7227 319.847 23.1307 321.071 23.516C322.295 23.9013 323.406 24.3773 324.403 24.944C325.4 25.5107 326.228 26.236 326.885 27.12C327.542 27.9813 327.928 29.1147 328.041 30.52C328.154 32.016 327.962 33.2513 327.463 34.226C326.987 35.178 326.273 35.9373 325.321 36.504C324.392 37.048 323.27 37.4333 321.955 37.66C320.663 37.8867 319.258 38 317.739 38H303.119V37.66ZM311.551 19.164C310.962 18.4613 310.497 17.6227 310.157 16.648V37.626H316.447C317.399 37.626 318.317 37.5353 319.201 37.354C320.085 37.15 320.856 36.7873 321.513 36.266C322.17 35.722 322.692 34.9967 323.077 34.09C323.485 33.1607 323.689 31.9707 323.689 30.52C323.689 29.364 323.496 28.412 323.111 27.664C322.726 26.8933 322.204 26.2473 321.547 25.726C320.912 25.182 320.176 24.7173 319.337 24.332C318.521 23.924 317.66 23.4933 316.753 23.04C315.846 22.564 314.94 22.0313 314.033 21.442C313.149 20.8527 312.322 20.0933 311.551 19.164ZM310.157 14.948C310.293 15.9907 310.554 16.8973 310.939 17.668C311.347 18.416 311.846 19.0733 312.435 19.64C313.047 20.184 313.727 20.66 314.475 21.068C315.246 21.4533 316.05 21.7933 316.889 22.088C318.521 21.9973 319.666 21.374 320.323 20.218C321.003 19.0393 321.343 17.5093 321.343 15.628C321.343 14.4267 321.173 13.4293 320.833 12.636C320.516 11.8427 320.074 11.208 319.507 10.732C318.963 10.256 318.317 9.92733 317.569 9.746C316.844 9.542 316.073 9.44 315.257 9.44H310.157V14.948ZM333.912 9.066H346.696C348.214 9.066 349.608 9.17933 350.878 9.406C352.147 9.61 353.235 9.984 354.142 10.528C355.071 11.072 355.785 11.8087 356.284 12.738C356.782 13.6447 357.032 14.7893 357.032 16.172C357.032 17.192 356.884 18.042 356.59 18.722C356.295 19.3793 355.898 19.9347 355.4 20.388C354.901 20.8187 354.312 21.1587 353.632 21.408C352.974 21.6573 352.26 21.8613 351.49 22.02C350.742 22.1787 349.971 22.326 349.178 22.462C348.384 22.598 347.602 22.7567 346.832 22.938C347.398 22.938 347.988 23.0287 348.6 23.21C349.212 23.3913 349.824 23.6973 350.436 24.128C351.07 24.536 351.705 25.1027 352.34 25.828C352.974 26.5307 353.598 27.4033 354.21 28.446C354.867 29.602 355.536 30.69 356.216 31.71C356.896 32.7073 357.542 33.614 358.154 34.43C358.766 35.246 359.332 35.9373 359.854 36.504C360.375 37.048 360.817 37.4333 361.18 37.66V38C360.908 38 360.477 38 359.888 38C359.321 37.9773 358.709 37.966 358.052 37.966C357.417 37.966 356.805 37.966 356.216 37.966C355.649 37.966 355.23 37.9773 354.958 38C354.391 37.1387 353.756 36.13 353.054 34.974C352.351 33.7953 351.58 32.492 350.742 31.064C350.266 30.248 349.778 29.432 349.28 28.616C348.804 27.7773 348.271 26.9727 347.682 26.202C347.16 25.5447 346.616 25.0687 346.05 24.774C345.506 24.4793 344.973 24.332 344.452 24.332C343.885 24.332 343.398 24.4907 342.99 24.808C342.582 25.1253 342.23 25.522 341.936 25.998C341.664 26.474 341.448 26.9953 341.29 27.562C341.131 28.106 341.018 28.6047 340.95 29.058V34.77C340.95 35.2007 340.984 35.5973 341.052 35.96C341.12 36.3 341.233 36.606 341.392 36.878C341.55 37.1273 341.777 37.32 342.072 37.456C342.366 37.592 342.74 37.66 343.194 37.66V38C342.151 37.9547 341.301 37.9207 340.644 37.898C339.986 37.8753 339.34 37.864 338.706 37.864C338.139 37.864 337.527 37.8753 336.87 37.898C336.212 37.9207 335.374 37.9547 334.354 38V37.66C334.852 37.66 335.249 37.5807 335.544 37.422C335.838 37.2633 336.065 37.048 336.224 36.776C336.382 36.4813 336.484 36.1413 336.53 35.756C336.575 35.348 336.598 34.8947 336.598 34.396V13.282C336.598 12.6247 336.564 12.058 336.496 11.582C336.428 11.0833 336.303 10.6753 336.122 10.358C335.94 10.0407 335.668 9.80267 335.306 9.644C334.943 9.48533 334.478 9.406 333.912 9.406V9.066ZM340.95 27.324C341.358 26.032 341.924 25.0347 342.65 24.332C343.398 23.6293 344.191 23.074 345.03 22.666C345.891 22.2353 346.764 21.8953 347.648 21.646C348.532 21.374 349.336 21.0453 350.062 20.66C350.81 20.252 351.422 19.708 351.897 19.028C352.374 18.348 352.634 17.396 352.679 16.172C352.725 14.88 352.544 13.8033 352.136 12.942C351.75 12.0807 351.218 11.3893 350.538 10.868C349.858 10.3467 349.076 9.984 348.192 9.78C347.308 9.55333 346.39 9.44 345.438 9.44H340.95V27.324ZM366.132 37.66C366.698 37.66 367.163 37.5807 367.526 37.422C367.888 37.2633 368.16 37.0253 368.342 36.708C368.523 36.3907 368.648 35.994 368.716 35.518C368.784 35.0193 368.818 34.4413 368.818 33.784V12.67C368.818 12.1713 368.795 11.7293 368.75 11.344C368.704 10.936 368.602 10.596 368.444 10.324C368.285 10.0293 368.058 9.80267 367.764 9.644C367.469 9.48533 367.072 9.406 366.574 9.406V9.066H389.184V9.168L390.34 15.424L390.068 15.526C389.229 14.37 388.413 13.4067 387.62 12.636C386.826 11.8427 385.954 11.208 385.002 10.732C384.072 10.256 383.007 9.92733 381.806 9.746C380.627 9.542 379.244 9.44 377.658 9.44H373.17V21.374H374.564C376.105 21.374 377.386 21.2947 378.406 21.136C379.426 20.9773 380.264 20.728 380.922 20.388C381.602 20.0253 382.134 19.5493 382.52 18.96C382.905 18.348 383.234 17.6 383.506 16.716H383.71V26.372H383.506C383.098 25.5333 382.69 24.8193 382.282 24.23C381.874 23.6407 381.352 23.1647 380.718 22.802C380.106 22.4167 379.312 22.1447 378.338 21.986C377.363 21.8047 376.105 21.714 374.564 21.714H373.17V37.626H376.842C378.383 37.626 379.777 37.5353 381.024 37.354C382.293 37.15 383.449 36.81 384.492 36.334C385.557 35.8353 386.543 35.1667 387.45 34.328C388.356 33.4893 389.24 32.4353 390.102 31.166L390.34 31.234L389.184 38H366.132V37.66Z" fill="#68745B"/>
<path d="M3.6 94.92C3.12 94.92 2.64 94.9267 2.16 94.94C1.68 94.9533 1.2 94.9733 0.72 95V94.8C1.37333 94.8 1.79333 94.6333 1.98 94.3C2.18 93.9533 2.28667 93.42 2.3 92.7V80.78C2.3 80.3667 2.29333 80 2.28 79.68C2.28 79.36 2.24 79.0933 2.16 78.88C2.09333 78.6533 1.97333 78.48 1.8 78.36C1.62667 78.24 1.37333 78.1667 1.04 78.14V77.94C1.32 77.9133 1.62667 77.8733 1.96 77.82C2.30667 77.7667 2.64667 77.7 2.98 77.62C3.32667 77.54 3.66667 77.4533 4 77.36C4.33333 77.2533 4.63333 77.14 4.9 77.02V92.82C4.91333 93.5 5.02 94 5.22 94.32C5.43333 94.64 5.85333 94.8 6.48 94.8V95C6 94.9733 5.52 94.9533 5.04 94.94C4.56 94.9267 4.08 94.92 3.6 94.92ZM9.92703 81.42C10.687 81.46 11.427 81.4733 12.147 81.46C12.867 81.4467 13.507 81.4267 14.067 81.4V88.02C14.067 88.86 14.1137 89.6933 14.207 90.52C14.3137 91.3333 14.507 92.06 14.787 92.7C15.0804 93.34 15.487 93.86 16.007 94.26C16.527 94.6467 17.2137 94.8267 18.067 94.8C18.8004 94.7867 19.4404 94.5733 19.987 94.16C20.5337 93.7467 20.987 93.22 21.347 92.58C21.707 91.94 21.9804 91.2267 22.167 90.44C22.3537 89.6533 22.4537 88.8733 22.467 88.1V83.6C22.4537 82.92 22.347 82.42 22.147 82.1C21.947 81.78 21.527 81.62 20.887 81.62V81.42C21.3404 81.4467 21.7337 81.4667 22.067 81.48C22.4004 81.48 22.7004 81.48 22.967 81.48C23.327 81.48 23.6604 81.48 23.967 81.48C24.287 81.4667 24.6537 81.4467 25.067 81.42V92.16C25.067 92.4133 25.067 92.6933 25.067 93C25.0804 93.3067 25.127 93.5933 25.207 93.86C25.287 94.1133 25.4204 94.3333 25.607 94.52C25.7937 94.6933 26.067 94.78 26.427 94.78V95C25.7337 95 25.1337 94.9467 24.627 94.84C24.1337 94.7333 23.727 94.56 23.407 94.32C23.087 94.0667 22.847 93.7267 22.687 93.3C22.5404 92.8733 22.467 92.34 22.467 91.7V90.14C22.347 90.74 22.167 91.3267 21.927 91.9C21.7004 92.4733 21.4004 92.9867 21.027 93.44C20.667 93.8933 20.2337 94.2667 19.727 94.56C19.2337 94.84 18.6737 94.9867 18.047 95C17.0204 95.04 16.1004 94.9067 15.287 94.6C14.487 94.2933 13.807 93.8467 13.247 93.26C12.7004 92.66 12.2737 91.9333 11.967 91.08C11.6737 90.2267 11.5204 89.2733 11.507 88.22V83.7C11.4937 82.9933 11.387 82.4733 11.187 82.14C11.0004 81.7933 10.5804 81.62 9.92703 81.62V81.42ZM29.8763 94.8C30.5296 94.8 30.9496 94.6333 31.1363 94.3C31.3363 93.9533 31.4429 93.42 31.4563 92.7V84.26C31.4563 83.8467 31.4496 83.48 31.4363 83.16C31.4363 82.84 31.3963 82.5733 31.3163 82.36C31.2496 82.1333 31.1296 81.96 30.9563 81.84C30.7829 81.72 30.5296 81.6467 30.1963 81.62V81.42C30.4763 81.3933 30.7829 81.3533 31.1163 81.3C31.4629 81.2467 31.8029 81.18 32.1363 81.1C32.4829 81.02 32.8229 80.9333 33.1563 80.84C33.4896 80.7333 33.7896 80.62 34.0563 80.5V86.28C34.1763 85.64 34.3496 85.0333 34.5763 84.46C34.8029 83.8733 35.0896 83.36 35.4363 82.92C35.7829 82.48 36.1963 82.1267 36.6763 81.86C37.1696 81.58 37.7363 81.4333 38.3763 81.42C39.4029 81.38 40.3229 81.5133 41.1363 81.82C41.9496 82.1267 42.6363 82.58 43.1963 83.18C43.7696 83.7667 44.2096 84.4867 44.5163 85.34C44.8229 86.18 44.9896 87.1267 45.0163 88.18V92.72C45.0296 93.4267 45.1296 93.9533 45.3163 94.3C45.5163 94.6333 45.9429 94.8 46.5963 94.8V95C46.1296 94.9733 45.6629 94.9533 45.1963 94.94C44.7429 94.9267 44.3029 94.92 43.8763 94.92C43.4496 94.92 43.0496 94.9267 42.6763 94.94C42.3163 94.94 42.0029 94.9467 41.7363 94.96C41.4163 94.9733 41.1296 94.9867 40.8763 95V94.8C41.2363 94.8 41.5163 94.76 41.7163 94.68C41.9296 94.6 42.0896 94.48 42.1963 94.32C42.3029 94.1467 42.3696 93.9267 42.3963 93.66C42.4363 93.3933 42.4563 93.08 42.4563 92.72V88.4C42.4563 87.5067 42.3963 86.6467 42.2763 85.82C42.1563 84.9933 41.9429 84.2667 41.6363 83.64C41.3296 83 40.9096 82.5 40.3763 82.14C39.8563 81.78 39.1829 81.6067 38.3563 81.62C37.6229 81.6467 36.9896 81.8667 36.4563 82.28C35.9229 82.68 35.4829 83.2 35.1363 83.84C34.7896 84.48 34.5229 85.1933 34.3363 85.98C34.1629 86.7667 34.0696 87.5467 34.0563 88.32V92.82C34.0696 93.5 34.1763 94 34.3763 94.32C34.5896 94.64 35.0096 94.8 35.6363 94.8V95C34.9696 94.9733 34.4296 94.9533 34.0163 94.94C33.6029 94.9133 33.2163 94.9 32.8563 94.9C32.4696 94.9 32.0696 94.9133 31.6562 94.94C31.2429 94.9533 30.6896 94.9733 29.9963 95H29.8763V94.8Z" fill="#3C3C3B"/>
<path d="M81.72 94.8C82.3733 94.8 82.7933 94.6333 82.98 94.3C83.18 93.9533 83.2867 93.42 83.3 92.7V84.26C83.3 83.8467 83.2933 83.48 83.28 83.16C83.28 82.84 83.24 82.5733 83.16 82.36C83.0933 82.1333 82.9733 81.96 82.8 81.84C82.6267 81.72 82.3733 81.6467 82.04 81.62V81.42C82.32 81.3933 82.6267 81.3533 82.96 81.3C83.3067 81.2467 83.6467 81.18 83.98 81.1C84.3267 81.02 84.6667 80.9333 85 80.84C85.3333 80.7333 85.6333 80.62 85.9 80.5V86.28C86.02 85.64 86.1933 85.0333 86.42 84.46C86.6467 83.8733 86.9333 83.36 87.28 82.92C87.6267 82.48 88.04 82.1267 88.52 81.86C89.0133 81.58 89.58 81.4333 90.22 81.42C91.1267 81.38 91.9533 81.4867 92.7 81.74C93.4467 81.98 94.0933 82.3467 94.64 82.84C95.2 83.32 95.6533 83.9067 96 84.6C96.36 85.2933 96.6067 86.0733 96.74 86.94C96.82 86.2467 96.9667 85.5733 97.18 84.92C97.3933 84.2533 97.68 83.6667 98.04 83.16C98.4 82.64 98.84 82.2267 99.36 81.92C99.88 81.6 100.48 81.4333 101.16 81.42C102.187 81.38 103.107 81.52 103.92 81.84C104.733 82.1467 105.42 82.6067 105.98 83.22C106.553 83.82 106.993 84.5533 107.3 85.42C107.607 86.2867 107.773 87.2467 107.8 88.3V92.72C107.813 93.4267 107.913 93.9533 108.1 94.3C108.3 94.6333 108.727 94.8 109.38 94.8V95C108.913 94.9733 108.447 94.9533 107.98 94.94C107.527 94.9267 107.087 94.92 106.66 94.92C106.233 94.92 105.833 94.9267 105.46 94.94C105.1 94.94 104.787 94.9467 104.52 94.96C104.2 94.9733 103.913 94.9867 103.66 95V94.8C104.02 94.8 104.3 94.76 104.5 94.68C104.713 94.6 104.873 94.48 104.98 94.32C105.087 94.1467 105.153 93.9267 105.18 93.66C105.22 93.3933 105.24 93.08 105.24 92.72V88.52C105.24 87.6267 105.18 86.76 105.06 85.92C104.94 85.08 104.727 84.34 104.42 83.7C104.113 83.0467 103.693 82.5333 103.16 82.16C102.64 81.7867 101.967 81.6067 101.14 81.62C100.433 81.6467 99.82 81.8533 99.3 82.24C98.78 82.6133 98.34 83.1067 97.98 83.72C97.6333 84.32 97.3667 85 97.18 85.76C96.9933 86.5067 96.8867 87.26 96.86 88.02V92.72C96.8733 93.4267 96.9733 93.9533 97.16 94.3C97.36 94.6333 97.7867 94.8 98.44 94.8V95C97.9733 94.9733 97.5067 94.9533 97.04 94.94C96.5867 94.9267 96.1467 94.92 95.72 94.92C95.2933 94.92 94.8933 94.9267 94.52 94.94C94.16 94.94 93.8467 94.9467 93.58 94.96C93.26 94.9733 92.9733 94.9867 92.72 95V94.8C93.08 94.8 93.36 94.76 93.56 94.68C93.7733 94.6 93.9333 94.48 94.04 94.32C94.1467 94.1467 94.2133 93.9267 94.24 93.66C94.28 93.3933 94.3 93.08 94.3 92.72V88.5C94.3 87.6067 94.24 86.74 94.12 85.9C94 85.06 93.7867 84.32 93.48 83.68C93.1733 83.04 92.7533 82.5333 92.22 82.16C91.7 81.7867 91.0267 81.6067 90.2 81.62C89.4667 81.6467 88.8333 81.8667 88.3 82.28C87.7667 82.68 87.3267 83.2 86.98 83.84C86.6333 84.48 86.3667 85.1933 86.18 85.98C86.0067 86.7667 85.9133 87.5467 85.9 88.32V92.82C85.9133 93.5 86.02 94 86.22 94.32C86.4333 94.64 86.8533 94.8 87.48 94.8V95C86.8533 94.9733 86.3267 94.9533 85.9 94.94C85.4733 94.9267 85.0667 94.92 84.68 94.92C84.2933 94.92 83.88 94.9267 83.44 94.94C83.0133 94.9533 82.48 94.9733 81.84 95H81.72V94.8ZM117.662 95C116.968 95.0133 116.322 94.9467 115.722 94.8C115.135 94.64 114.628 94.4 114.202 94.08C113.775 93.76 113.435 93.3533 113.182 92.86C112.942 92.3533 112.822 91.7533 112.822 91.06C112.822 90.38 112.968 89.8067 113.262 89.34C113.568 88.8733 113.955 88.4867 114.422 88.18C114.902 87.86 115.435 87.6133 116.022 87.44C116.608 87.2533 117.188 87.1133 117.762 87.02H117.782C117.168 86.9 116.668 86.68 116.282 86.36C115.895 86.04 115.615 85.6733 115.442 85.26C115.282 84.8333 115.228 84.3933 115.282 83.94C115.348 83.4867 115.515 83.0733 115.782 82.7C116.062 82.3267 116.448 82.02 116.942 81.78C117.435 81.5267 118.028 81.4 118.722 81.4C119.522 81.4 120.282 81.4733 121.002 81.62C121.722 81.7667 122.355 82.0067 122.902 82.34C123.462 82.66 123.922 83.0933 124.282 83.64C124.642 84.1733 124.868 84.8267 124.962 85.6C124.535 85.7467 124.108 85.8733 123.682 85.98C123.268 86.0733 122.855 86.16 122.442 86.24C122.402 85.5733 122.308 84.96 122.162 84.4C122.028 83.84 121.815 83.36 121.522 82.96C121.228 82.5467 120.848 82.2267 120.382 82C119.928 81.76 119.362 81.6333 118.682 81.62C117.882 81.6333 117.222 81.8133 116.702 82.16C116.195 82.4933 115.848 82.9133 115.662 83.42C115.528 83.7667 115.468 84.12 115.482 84.48C115.508 84.8267 115.608 85.1533 115.782 85.46C115.955 85.7533 116.195 86.02 116.502 86.26C116.822 86.4867 117.208 86.6533 117.662 86.76C118.022 86.8667 118.422 86.94 118.862 86.98C119.315 87.02 119.795 87.0267 120.302 87C120.982 86.9733 121.722 86.8867 122.522 86.74C123.335 86.5933 124.162 86.38 125.002 86.1C125.775 85.8467 126.535 85.54 127.282 85.18C128.028 84.82 128.722 84.4 129.362 83.92C130.002 83.44 130.575 82.8867 131.082 82.26C131.588 81.62 131.995 80.9 132.302 80.1V86.06C132.395 85.4067 132.575 84.7867 132.842 84.2C133.122 83.6133 133.502 83.1067 133.982 82.68C134.475 82.2533 135.068 81.9267 135.762 81.7C136.468 81.46 137.295 81.3667 138.242 81.42L138.182 84.04C137.568 83.9067 136.962 83.84 136.362 83.84C135.775 83.84 135.235 83.9133 134.742 84.06C134.248 84.2067 133.822 84.4267 133.462 84.72C133.102 85.0133 132.815 85.3867 132.602 85.84C132.402 86.28 132.302 86.8067 132.302 87.42V92.8C132.315 93.1467 132.335 93.4467 132.362 93.7C132.402 93.94 132.468 94.14 132.562 94.3C132.668 94.46 132.815 94.58 133.002 94.66C133.202 94.74 133.462 94.78 133.782 94.78V94.98C133.382 94.9533 132.922 94.9333 132.402 94.92C131.895 94.9067 131.348 94.9 130.762 94.9C130.362 94.9 129.942 94.9067 129.502 94.92C129.075 94.9333 128.648 94.9533 128.222 94.98V94.78C128.555 94.78 128.815 94.74 129.002 94.66C129.202 94.5667 129.348 94.44 129.442 94.28C129.548 94.1067 129.615 93.8933 129.642 93.64C129.682 93.3733 129.702 93.06 129.702 92.7V87.36C129.702 86.9467 129.695 86.5867 129.682 86.28C129.682 85.96 129.642 85.6933 129.562 85.48C129.495 85.2667 129.382 85.1 129.222 84.98C129.062 84.8467 128.828 84.7667 128.522 84.74C127.975 85.0733 127.408 85.3733 126.822 85.64C126.235 85.8933 125.628 86.12 125.002 86.32C125.002 86.4267 125.002 86.5333 125.002 86.64C125.015 86.7467 125.022 86.9467 125.022 87.24C125.022 87.5333 125.022 87.9733 125.022 88.56C125.022 89.1467 125.022 89.9667 125.022 91.02C125.022 91.5 125.022 91.9667 125.022 92.42C125.035 92.8733 125.082 93.2733 125.162 93.62C125.242 93.9667 125.375 94.2467 125.562 94.46C125.748 94.6733 126.028 94.78 126.402 94.78V94.98C125.708 94.98 125.115 94.9267 124.622 94.82C124.128 94.7133 123.722 94.54 123.402 94.3C123.082 94.0467 122.842 93.7133 122.682 93.3C122.535 92.8733 122.462 92.34 122.462 91.7C122.088 92.74 121.502 93.5467 120.702 94.12C119.902 94.6933 118.888 94.9867 117.662 95ZM115.402 91.22C115.402 92.2467 115.628 93.0467 116.082 93.62C116.535 94.1933 117.268 94.48 118.282 94.48C118.855 94.48 119.395 94.3933 119.902 94.22C120.422 94.0333 120.868 93.74 121.242 93.34C121.615 92.94 121.908 92.42 122.122 91.78C122.348 91.14 122.462 90.36 122.462 89.44V86.96C122.208 87.0133 121.962 87.0533 121.722 87.08C121.482 87.1067 121.242 87.1333 121.002 87.16C120.642 87.1867 120.288 87.2067 119.942 87.22C119.595 87.2333 119.262 87.2267 118.942 87.2C118.475 87.3067 118.028 87.4533 117.602 87.64C117.175 87.8267 116.795 88.08 116.462 88.4C116.142 88.7067 115.882 89.0933 115.682 89.56C115.495 90.0267 115.402 90.58 115.402 91.22Z" fill="#3C3C3B"/>
<path d="M172.72 94.8C173.373 94.8 173.793 94.6333 173.98 94.3C174.18 93.9533 174.287 93.42 174.3 92.7V84.26C174.3 83.8467 174.293 83.48 174.28 83.16C174.28 82.84 174.24 82.5733 174.16 82.36C174.093 82.1333 173.973 81.96 173.8 81.84C173.627 81.72 173.373 81.6467 173.04 81.62V81.42C173.32 81.3933 173.627 81.3533 173.96 81.3C174.307 81.2467 174.647 81.18 174.98 81.1C175.327 81.02 175.667 80.9333 176 80.84C176.333 80.7333 176.633 80.62 176.9 80.5V86.28C177.02 85.64 177.193 85.0333 177.42 84.46C177.647 83.8733 177.933 83.36 178.28 82.92C178.627 82.48 179.04 82.1267 179.52 81.86C180.013 81.58 180.58 81.4333 181.22 81.42C182.127 81.38 182.953 81.4867 183.7 81.74C184.447 81.98 185.093 82.3467 185.64 82.84C186.2 83.32 186.653 83.9067 187 84.6C187.36 85.2933 187.607 86.0733 187.74 86.94C187.82 86.2467 187.967 85.5733 188.18 84.92C188.393 84.2533 188.68 83.6667 189.04 83.16C189.4 82.64 189.84 82.2267 190.36 81.92C190.88 81.6 191.48 81.4333 192.16 81.42C193.187 81.38 194.107 81.52 194.92 81.84C195.733 82.1467 196.42 82.6067 196.98 83.22C197.553 83.82 197.993 84.5533 198.3 85.42C198.607 86.2867 198.773 87.2467 198.8 88.3V92.72C198.813 93.4267 198.913 93.9533 199.1 94.3C199.3 94.6333 199.727 94.8 200.38 94.8V95C199.913 94.9733 199.447 94.9533 198.98 94.94C198.527 94.9267 198.087 94.92 197.66 94.92C197.233 94.92 196.833 94.9267 196.46 94.94C196.1 94.94 195.787 94.9467 195.52 94.96C195.2 94.9733 194.913 94.9867 194.66 95V94.8C195.02 94.8 195.3 94.76 195.5 94.68C195.713 94.6 195.873 94.48 195.98 94.32C196.087 94.1467 196.153 93.9267 196.18 93.66C196.22 93.3933 196.24 93.08 196.24 92.72V88.52C196.24 87.6267 196.18 86.76 196.06 85.92C195.94 85.08 195.727 84.34 195.42 83.7C195.113 83.0467 194.693 82.5333 194.16 82.16C193.64 81.7867 192.967 81.6067 192.14 81.62C191.433 81.6467 190.82 81.8533 190.3 82.24C189.78 82.6133 189.34 83.1067 188.98 83.72C188.633 84.32 188.367 85 188.18 85.76C187.993 86.5067 187.887 87.26 187.86 88.02V92.72C187.873 93.4267 187.973 93.9533 188.16 94.3C188.36 94.6333 188.787 94.8 189.44 94.8V95C188.973 94.9733 188.507 94.9533 188.04 94.94C187.587 94.9267 187.147 94.92 186.72 94.92C186.293 94.92 185.893 94.9267 185.52 94.94C185.16 94.94 184.847 94.9467 184.58 94.96C184.26 94.9733 183.973 94.9867 183.72 95V94.8C184.08 94.8 184.36 94.76 184.56 94.68C184.773 94.6 184.933 94.48 185.04 94.32C185.147 94.1467 185.213 93.9267 185.24 93.66C185.28 93.3933 185.3 93.08 185.3 92.72V88.5C185.3 87.6067 185.24 86.74 185.12 85.9C185 85.06 184.787 84.32 184.48 83.68C184.173 83.04 183.753 82.5333 183.22 82.16C182.7 81.7867 182.027 81.6067 181.2 81.62C180.467 81.6467 179.833 81.8667 179.3 82.28C178.767 82.68 178.327 83.2 177.98 83.84C177.633 84.48 177.367 85.1933 177.18 85.98C177.007 86.7667 176.913 87.5467 176.9 88.32V92.82C176.913 93.5 177.02 94 177.22 94.32C177.433 94.64 177.853 94.8 178.48 94.8V95C177.853 94.9733 177.327 94.9533 176.9 94.94C176.473 94.9267 176.067 94.92 175.68 94.92C175.293 94.92 174.88 94.9267 174.44 94.94C174.013 94.9533 173.48 94.9733 172.84 95H172.72V94.8ZM203.822 94.8C204.475 94.8 204.895 94.6333 205.082 94.3C205.282 93.9533 205.388 93.42 205.402 92.7V85.18C205.402 84.7667 205.395 84.4 205.382 84.08C205.382 83.76 205.342 83.4933 205.262 83.28C205.195 83.0533 205.075 82.88 204.902 82.76C204.728 82.64 204.475 82.5667 204.142 82.54V82.34C204.422 82.3133 204.728 82.2733 205.062 82.22C205.408 82.1667 205.748 82.1 206.082 82.02C206.428 81.94 206.768 81.8533 207.102 81.76C207.435 81.6533 207.735 81.54 208.002 81.42V92.82C208.015 93.5 208.122 94 208.322 94.32C208.535 94.64 208.955 94.8 209.582 94.8V95C209.182 94.9733 208.708 94.9533 208.162 94.94C207.615 94.9267 207.035 94.92 206.422 94.92C205.995 94.92 205.562 94.9267 205.122 94.94C204.682 94.9533 204.248 94.9733 203.822 95V94.8ZM205.162 79C205.162 78.56 205.295 78.1867 205.562 77.88C205.828 77.5733 206.175 77.42 206.602 77.42C207.055 77.42 207.408 77.58 207.662 77.9C207.928 78.2067 208.062 78.5733 208.062 79C208.062 79.4133 207.922 79.7733 207.642 80.08C207.375 80.3867 207.028 80.54 206.602 80.54C206.188 80.54 205.842 80.4067 205.562 80.14C205.295 79.86 205.162 79.48 205.162 79ZM219.749 95.02C218.642 95.02 217.675 94.8267 216.849 94.44C216.022 94.0533 215.322 93.54 214.749 92.9C214.189 92.26 213.762 91.5333 213.469 90.72C213.189 89.9067 213.042 89.0733 213.029 88.22C213.029 87.3667 213.162 86.5333 213.429 85.72C213.709 84.9067 214.129 84.18 214.689 83.54C215.262 82.9 215.969 82.3867 216.809 82C217.662 81.6133 218.662 81.42 219.809 81.42C220.582 81.42 221.295 81.52 221.949 81.72C222.615 81.92 223.215 82.2 223.749 82.56C224.282 82.92 224.742 83.3533 225.129 83.86C225.515 84.3533 225.829 84.9 226.069 85.5C225.909 85.5267 225.662 85.5733 225.329 85.64C224.995 85.6933 224.602 85.76 224.149 85.84C223.709 85.92 223.215 86.0067 222.669 86.1C222.122 86.1933 221.555 86.2933 220.969 86.4C221.849 86.4133 222.602 86.5467 223.229 86.8C223.869 87.04 224.389 87.3533 224.789 87.74C225.202 88.1133 225.495 88.5467 225.669 89.04C225.855 89.52 225.929 90.0133 225.889 90.52C225.862 91.0133 225.729 91.5067 225.489 92C225.262 92.48 224.935 92.9067 224.509 93.28C223.909 93.8133 223.215 94.24 222.429 94.56C221.642 94.8667 220.749 95.02 219.749 95.02ZM215.709 87.34C215.655 88.1533 215.682 89 215.789 89.88C215.895 90.7467 216.109 91.5467 216.429 92.28C216.749 93 217.182 93.6 217.729 94.08C218.275 94.5467 218.969 94.7867 219.809 94.8C220.769 94.7867 221.622 94.6333 222.369 94.34C223.129 94.0333 223.795 93.6267 224.369 93.12C225.022 92.5333 225.435 91.8467 225.609 91.06C225.782 90.2733 225.695 89.5267 225.349 88.82C225.135 88.3933 224.869 88.04 224.549 87.76C224.229 87.48 223.869 87.26 223.469 87.1C223.082 86.9267 222.662 86.8067 222.209 86.74C221.755 86.6733 221.295 86.64 220.829 86.64C220.349 86.64 219.869 86.6667 219.389 86.72C218.922 86.7733 218.462 86.84 218.009 86.92C217.569 86.9867 217.149 87.06 216.749 87.14C216.362 87.22 216.015 87.2867 215.709 87.34ZM215.709 87.12C216.175 87.04 216.669 86.9533 217.189 86.86C217.722 86.7667 218.269 86.6667 218.829 86.56C219.695 86.4133 220.549 86.2667 221.389 86.12C222.242 85.96 223.015 85.82 223.709 85.7C223.602 85.18 223.449 84.68 223.249 84.2C223.062 83.7067 222.809 83.2733 222.489 82.9C222.182 82.5133 221.802 82.2067 221.349 81.98C220.909 81.7533 220.389 81.64 219.789 81.64C219.042 81.64 218.415 81.8133 217.909 82.16C217.415 82.4933 217.009 82.9267 216.689 83.46C216.382 83.9933 216.149 84.5867 215.989 85.24C215.842 85.88 215.749 86.5067 215.709 87.12ZM221.169 77.08L218.269 80.9H217.929L220.589 76.86L221.169 77.08Z" fill="#3C3C3B"/>
<path d="M261.56 91.72H261.72C261.8 92.1067 261.913 92.5 262.06 92.9C262.207 93.3 262.393 93.6667 262.62 94C262.847 94.32 263.113 94.5867 263.42 94.8C263.727 95 264.08 95.1 264.48 95.1C265.067 95.1 265.527 94.9733 265.86 94.72C266.207 94.4533 266.467 94.1067 266.64 93.68C266.813 93.24 266.92 92.74 266.96 92.18C267.013 91.6067 267.047 91.0067 267.06 90.38V80.1C267.06 79.8067 267.047 79.5467 267.02 79.32C266.993 79.08 266.933 78.88 266.84 78.72C266.747 78.5467 266.613 78.4133 266.44 78.32C266.267 78.2267 266.033 78.18 265.74 78.18V77.98C266.327 78.0067 266.813 78.0267 267.2 78.04C267.587 78.04 267.947 78.04 268.28 78.04C268.667 78.04 269.053 78.04 269.44 78.04C269.827 78.0267 270.327 78.0067 270.94 77.98V78.18C270.647 78.18 270.413 78.2267 270.24 78.32C270.067 78.4 269.933 78.52 269.84 78.68C269.747 78.84 269.687 79.04 269.66 79.28C269.633 79.5067 269.62 79.76 269.62 80.04V88.5C269.593 90.7667 269.093 92.48 268.12 93.64C267.147 94.7867 265.707 95.36 263.8 95.36C262.88 95.36 261.853 95.22 260.72 94.94L261.56 91.72ZM274.38 81.42C275.14 81.46 275.88 81.4733 276.6 81.46C277.32 81.4467 277.96 81.4267 278.52 81.4V88.02C278.52 88.86 278.567 89.6933 278.66 90.52C278.767 91.3333 278.96 92.06 279.24 92.7C279.533 93.34 279.94 93.86 280.46 94.26C280.98 94.6467 281.667 94.8267 282.52 94.8C283.253 94.7867 283.893 94.5733 284.44 94.16C284.987 93.7467 285.44 93.22 285.8 92.58C286.16 91.94 286.433 91.2267 286.62 90.44C286.807 89.6533 286.907 88.8733 286.92 88.1V83.6C286.907 82.92 286.8 82.42 286.6 82.1C286.4 81.78 285.98 81.62 285.34 81.62V81.42C285.793 81.4467 286.187 81.4667 286.52 81.48C286.853 81.48 287.153 81.48 287.42 81.48C287.78 81.48 288.113 81.48 288.42 81.48C288.74 81.4667 289.107 81.4467 289.52 81.42V92.16C289.52 92.4133 289.52 92.6933 289.52 93C289.533 93.3067 289.58 93.5933 289.66 93.86C289.74 94.1133 289.873 94.3333 290.06 94.52C290.247 94.6933 290.52 94.78 290.88 94.78V95C290.187 95 289.587 94.9467 289.08 94.84C288.587 94.7333 288.18 94.56 287.86 94.32C287.54 94.0667 287.3 93.7267 287.14 93.3C286.993 92.8733 286.92 92.34 286.92 91.7V90.14C286.8 90.74 286.62 91.3267 286.38 91.9C286.153 92.4733 285.853 92.9867 285.48 93.44C285.12 93.8933 284.687 94.2667 284.18 94.56C283.687 94.84 283.127 94.9867 282.5 95C281.473 95.04 280.553 94.9067 279.74 94.6C278.94 94.2933 278.26 93.8467 277.7 93.26C277.153 92.66 276.727 91.9333 276.42 91.08C276.127 90.2267 275.973 89.2733 275.96 88.22V83.7C275.947 82.9933 275.84 82.4733 275.64 82.14C275.453 81.7933 275.033 81.62 274.38 81.62V81.42ZM301.049 95.02C299.943 95.02 298.976 94.8267 298.149 94.44C297.323 94.0533 296.623 93.54 296.049 92.9C295.489 92.26 295.063 91.5333 294.769 90.72C294.489 89.9067 294.343 89.0733 294.329 88.22C294.329 87.3667 294.463 86.5333 294.729 85.72C295.009 84.9067 295.429 84.18 295.989 83.54C296.563 82.9 297.269 82.3867 298.109 82C298.963 81.6133 299.963 81.42 301.109 81.42C301.883 81.42 302.596 81.52 303.249 81.72C303.916 81.92 304.516 82.2 305.049 82.56C305.583 82.92 306.043 83.3533 306.429 83.86C306.816 84.3533 307.129 84.9 307.369 85.5C307.209 85.5267 306.963 85.5733 306.629 85.64C306.296 85.6933 305.903 85.76 305.449 85.84C305.009 85.92 304.516 86.0067 303.969 86.1C303.423 86.1933 302.856 86.2933 302.269 86.4C303.149 86.4133 303.903 86.5467 304.529 86.8C305.169 87.04 305.689 87.3533 306.089 87.74C306.503 88.1133 306.796 88.5467 306.969 89.04C307.156 89.52 307.229 90.0133 307.189 90.52C307.163 91.0133 307.029 91.5067 306.789 92C306.563 92.48 306.236 92.9067 305.809 93.28C305.209 93.8133 304.516 94.24 303.729 94.56C302.943 94.8667 302.049 95.02 301.049 95.02ZM297.009 87.34C296.956 88.1533 296.983 89 297.089 89.88C297.196 90.7467 297.409 91.5467 297.729 92.28C298.049 93 298.483 93.6 299.029 94.08C299.576 94.5467 300.269 94.7867 301.109 94.8C302.069 94.7867 302.923 94.6333 303.669 94.34C304.429 94.0333 305.096 93.6267 305.669 93.12C306.323 92.5333 306.736 91.8467 306.909 91.06C307.083 90.2733 306.996 89.5267 306.649 88.82C306.436 88.3933 306.169 88.04 305.849 87.76C305.529 87.48 305.169 87.26 304.769 87.1C304.383 86.9267 303.963 86.8067 303.509 86.74C303.056 86.6733 302.596 86.64 302.129 86.64C301.649 86.64 301.169 86.6667 300.689 86.72C300.223 86.7733 299.763 86.84 299.309 86.92C298.869 86.9867 298.449 87.06 298.049 87.14C297.663 87.22 297.316 87.2867 297.009 87.34ZM297.009 87.12C297.476 87.04 297.969 86.9533 298.489 86.86C299.023 86.7667 299.569 86.6667 300.129 86.56C300.996 86.4133 301.849 86.2667 302.689 86.12C303.543 85.96 304.316 85.82 305.009 85.7C304.903 85.18 304.749 84.68 304.549 84.2C304.363 83.7067 304.109 83.2733 303.789 82.9C303.483 82.5133 303.103 82.2067 302.649 81.98C302.209 81.7533 301.689 81.64 301.089 81.64C300.343 81.64 299.716 81.8133 299.209 82.16C298.716 82.4933 298.309 82.9267 297.989 83.46C297.683 83.9933 297.449 84.5867 297.289 85.24C297.143 85.88 297.049 86.5067 297.009 87.12Z" fill="#3C3C3B"/>
<path d="M342.22 81.4C342.753 81.44 343.22 81.4667 343.62 81.48C344.033 81.4933 344.44 81.5 344.84 81.5C345.213 81.5 345.6 81.4933 346 81.48C346.413 81.4667 346.88 81.4467 347.4 81.42V81.62C347.16 81.66 346.967 81.7467 346.82 81.88C346.687 82 346.593 82.16 346.54 82.36C346.487 82.5467 346.473 82.76 346.5 83C346.527 83.24 346.587 83.48 346.68 83.72C346.96 84.3733 347.253 85.06 347.56 85.78C347.867 86.5 348.167 87.1933 348.46 87.86C348.753 88.5267 349.013 89.14 349.24 89.7C349.48 90.26 349.673 90.7 349.82 91.02C350.087 90.3933 350.38 89.8133 350.7 89.28C351.033 88.7467 351.387 88.2467 351.76 87.78C352.133 87.3 352.52 86.84 352.92 86.4C353.32 85.96 353.733 85.52 354.16 85.08C354.693 84.52 355.227 83.9467 355.76 83.36C356.293 82.7733 356.813 82.12 357.32 81.4H357.62V92.82C357.633 93.4867 357.74 93.98 357.94 94.3C358.153 94.62 358.573 94.78 359.2 94.78V94.98C358.8 94.9533 358.327 94.9333 357.78 94.92C357.247 94.9067 356.673 94.9 356.06 94.9C355.633 94.9 355.193 94.9067 354.74 94.92C354.3 94.9333 353.867 94.9533 353.44 94.98V94.78C353.773 94.78 354.04 94.74 354.24 94.66C354.44 94.5667 354.593 94.44 354.7 94.28C354.82 94.1067 354.9 93.8933 354.94 93.64C354.993 93.3733 355.02 93.06 355.02 92.7V88.38C355.02 87.9667 355.013 87.6067 355 87.3C355 86.98 354.96 86.7133 354.88 86.5C354.813 86.2733 354.7 86.1 354.54 85.98C354.38 85.8467 354.14 85.7667 353.82 85.74C353.273 86.3267 352.74 86.9267 352.22 87.54C351.713 88.14 351.247 88.8 350.82 89.52C350.393 90.24 350.013 91.0467 349.68 91.94C349.347 92.82 349.087 93.8333 348.9 94.98H348.74C348.727 94.9533 348.7 94.8933 348.66 94.8C348.62 94.7067 348.567 94.58 348.5 94.42C348.313 93.9933 348.04 93.3733 347.68 92.56C347.333 91.7333 346.94 90.8133 346.5 89.8C346.073 88.7867 345.62 87.7267 345.14 86.62C344.66 85.5 344.2 84.4267 343.76 83.4C343.467 82.7733 343.193 82.3333 342.94 82.08C342.7 81.8267 342.453 81.6533 342.2 81.56L342.22 81.4ZM356.54 80.48C356.127 80.48 355.78 80.3467 355.5 80.08C355.233 79.8133 355.1 79.4333 355.1 78.94C355.1 78.5 355.233 78.1267 355.5 77.82C355.767 77.5133 356.113 77.36 356.54 77.36C356.993 77.36 357.353 77.52 357.62 77.84C357.887 78.1467 358.02 78.5133 358.02 78.94C358.02 79.3667 357.88 79.7333 357.6 80.04C357.333 80.3333 356.98 80.48 356.54 80.48ZM369.37 95.02C368.263 95.02 367.296 94.8267 366.47 94.44C365.643 94.0533 364.943 93.54 364.37 92.9C363.81 92.26 363.383 91.5333 363.09 90.72C362.81 89.9067 362.663 89.0733 362.65 88.22C362.65 87.3667 362.783 86.5333 363.05 85.72C363.33 84.9067 363.75 84.18 364.31 83.54C364.883 82.9 365.59 82.3867 366.43 82C367.283 81.6133 368.283 81.42 369.43 81.42C370.203 81.42 370.916 81.52 371.57 81.72C372.236 81.92 372.836 82.2 373.37 82.56C373.903 82.92 374.363 83.3533 374.75 83.86C375.136 84.3533 375.45 84.9 375.69 85.5C375.53 85.5267 375.283 85.5733 374.95 85.64C374.616 85.6933 374.223 85.76 373.77 85.84C373.33 85.92 372.836 86.0067 372.29 86.1C371.743 86.1933 371.176 86.2933 370.59 86.4C371.47 86.4133 372.223 86.5467 372.85 86.8C373.49 87.04 374.01 87.3533 374.41 87.74C374.823 88.1133 375.116 88.5467 375.29 89.04C375.476 89.52 375.55 90.0133 375.51 90.52C375.483 91.0133 375.35 91.5067 375.11 92C374.883 92.48 374.556 92.9067 374.13 93.28C373.53 93.8133 372.836 94.24 372.05 94.56C371.263 94.8667 370.37 95.02 369.37 95.02ZM365.33 87.34C365.276 88.1533 365.303 89 365.41 89.88C365.516 90.7467 365.73 91.5467 366.05 92.28C366.37 93 366.803 93.6 367.35 94.08C367.896 94.5467 368.59 94.7867 369.43 94.8C370.39 94.7867 371.243 94.6333 371.99 94.34C372.75 94.0333 373.416 93.6267 373.99 93.12C374.643 92.5333 375.056 91.8467 375.23 91.06C375.403 90.2733 375.316 89.5267 374.97 88.82C374.756 88.3933 374.49 88.04 374.17 87.76C373.85 87.48 373.49 87.26 373.09 87.1C372.703 86.9267 372.283 86.8067 371.83 86.74C371.376 86.6733 370.916 86.64 370.45 86.64C369.97 86.64 369.49 86.6667 369.01 86.72C368.543 86.7733 368.083 86.84 367.63 86.92C367.19 86.9867 366.77 87.06 366.37 87.14C365.983 87.22 365.636 87.2867 365.33 87.34ZM365.33 87.12C365.796 87.04 366.29 86.9533 366.81 86.86C367.343 86.7667 367.89 86.6667 368.45 86.56C369.316 86.4133 370.17 86.2667 371.01 86.12C371.863 85.96 372.636 85.82 373.33 85.7C373.223 85.18 373.07 84.68 372.87 84.2C372.683 83.7067 372.43 83.2733 372.11 82.9C371.803 82.5133 371.423 82.2067 370.97 81.98C370.53 81.7533 370.01 81.64 369.41 81.64C368.663 81.64 368.036 81.8133 367.53 82.16C367.036 82.4933 366.63 82.9267 366.31 83.46C366.003 83.9933 365.77 84.5867 365.61 85.24C365.463 85.88 365.37 86.5067 365.33 87.12Z" fill="#3C3C3B"/>
<path d="M412.38 87.6C411.98 87.2933 411.68 86.9267 411.48 86.5C411.293 86.0733 411.207 85.6333 411.22 85.18C411.233 84.7133 411.353 84.26 411.58 83.82C411.82 83.3667 412.167 82.9667 412.62 82.62C413.073 82.26 413.64 81.9733 414.32 81.76C415.013 81.5333 415.827 81.42 416.76 81.42C417.253 81.42 417.7 81.4467 418.1 81.5C418.513 81.54 418.9 81.6 419.26 81.68C419.633 81.7467 419.987 81.8333 420.32 81.94C420.653 82.0467 420.993 82.16 421.34 82.28L420.6 85.18H420.44C420.373 84.66 420.24 84.18 420.04 83.74C419.853 83.3 419.607 82.9267 419.3 82.62C419.007 82.3 418.66 82.0533 418.26 81.88C417.86 81.6933 417.413 81.6 416.92 81.6C416.027 81.6 415.293 81.76 414.72 82.08C414.16 82.4 413.753 82.78 413.5 83.22C413.26 83.6467 413.173 84.0933 413.24 84.56C413.307 85.0133 413.533 85.38 413.92 85.66C414.253 85.9 414.727 86.1 415.34 86.26C415.967 86.4067 416.627 86.56 417.32 86.72C418.013 86.8667 418.693 87.0467 419.36 87.26C420.04 87.46 420.6 87.7267 421.04 88.06C421.453 88.38 421.767 88.7733 421.98 89.24C422.207 89.7067 422.313 90.2 422.3 90.72C422.287 91.2267 422.153 91.74 421.9 92.26C421.647 92.7667 421.253 93.2267 420.72 93.64C420.2 94.04 419.533 94.3667 418.72 94.62C417.907 94.8733 416.94 95 415.82 95C414.873 95 414 94.9067 413.2 94.72C412.4 94.52 411.573 94.2 410.72 93.76L411.54 90.82H411.64C411.707 91.42 411.86 91.9667 412.1 92.46C412.34 92.94 412.647 93.3533 413.02 93.7C413.407 94.0467 413.853 94.32 414.36 94.52C414.88 94.7067 415.44 94.8 416.04 94.8C417.04 94.8 417.84 94.6133 418.44 94.24C419.04 93.8533 419.467 93.4067 419.72 92.9C419.987 92.38 420.087 91.86 420.02 91.34C419.967 90.82 419.773 90.4133 419.44 90.12C419.133 89.8533 418.68 89.6467 418.08 89.5C417.493 89.34 416.86 89.1867 416.18 89.04C415.5 88.8933 414.82 88.7133 414.14 88.5C413.46 88.2867 412.873 87.9867 412.38 87.6ZM425.747 91.06C425.747 90.4333 425.881 89.8933 426.147 89.44C426.414 88.9733 426.774 88.58 427.227 88.26C427.681 87.94 428.207 87.6867 428.807 87.5C429.407 87.3 430.041 87.14 430.707 87.02C430.094 86.9 429.587 86.68 429.187 86.36C428.801 86.04 428.527 85.6733 428.367 85.26C428.207 84.8333 428.154 84.4 428.207 83.96C428.274 83.5067 428.447 83.0933 428.727 82.72C429.007 82.3333 429.387 82.02 429.867 81.78C430.361 81.54 430.954 81.42 431.647 81.42C432.474 81.42 433.247 81.5 433.967 81.66C434.701 81.8067 435.347 82.0533 435.907 82.4C436.467 82.7467 436.921 83.2067 437.267 83.78C437.627 84.34 437.841 85.0333 437.907 85.86C437.934 86.0867 437.947 86.32 437.947 86.56C437.947 86.7867 437.947 87.02 437.947 87.26V91.04C437.947 91.52 437.947 91.9867 437.947 92.44C437.961 92.88 438.007 93.2733 438.087 93.62C438.167 93.9667 438.301 94.2467 438.487 94.46C438.674 94.6733 438.954 94.78 439.327 94.78V95C438.634 95 438.041 94.9467 437.547 94.84C437.054 94.7333 436.647 94.56 436.327 94.32C436.007 94.0667 435.767 93.7267 435.607 93.3C435.461 92.8733 435.387 92.34 435.387 91.7C435.014 92.7533 434.427 93.5667 433.627 94.14C432.827 94.7133 431.814 95.0067 430.587 95.02C429.001 95.0467 427.794 94.7 426.967 93.98C426.154 93.26 425.747 92.2867 425.747 91.06ZM428.327 91.24C428.327 92.2533 428.554 93.0533 429.007 93.64C429.461 94.2133 430.194 94.5 431.207 94.5C431.781 94.5 432.321 94.4133 432.827 94.24C433.347 94.0533 433.794 93.76 434.167 93.36C434.541 92.96 434.834 92.44 435.047 91.8C435.274 91.16 435.387 90.3733 435.387 89.44V86.96C434.974 86.96 434.514 86.9667 434.007 86.98C433.501 86.98 432.981 87.02 432.447 87.1C431.927 87.18 431.421 87.3067 430.927 87.48C430.434 87.6533 429.994 87.9 429.607 88.22C429.221 88.54 428.907 88.9467 428.667 89.44C428.441 89.9333 428.327 90.5333 428.327 91.24ZM428.407 84.4C428.421 84.6933 428.494 85 428.627 85.32C428.907 85.8933 429.314 86.3 429.847 86.54C430.394 86.78 430.974 86.9 431.587 86.9C432.147 86.8333 432.694 86.7933 433.227 86.78C433.761 86.7533 434.281 86.74 434.787 86.74H435.387C435.374 86.0067 435.301 85.3333 435.167 84.72C435.047 84.0933 434.841 83.56 434.547 83.12C434.254 82.6667 433.867 82.3133 433.387 82.06C432.921 81.7933 432.327 81.6533 431.607 81.64C431.194 81.64 430.794 81.7 430.407 81.82C430.021 81.9267 429.681 82.1 429.387 82.34C429.094 82.5667 428.854 82.8533 428.667 83.2C428.494 83.5467 428.407 83.9467 428.407 84.4ZM434.147 77.08L431.247 80.9H430.907L433.567 76.86L434.147 77.08ZM442.767 94.8C443.047 94.8 443.274 94.74 443.447 94.62C443.62 94.4867 443.754 94.3133 443.847 94.1C443.954 93.8733 444.02 93.6133 444.047 93.32C444.087 93.0267 444.114 92.7067 444.127 92.36V79.86C444.114 79.5933 444.087 79.36 444.047 79.16C444.02 78.9467 443.96 78.7733 443.867 78.64C443.774 78.4933 443.647 78.38 443.487 78.3C443.327 78.22 443.114 78.1667 442.847 78.14V77.94C443.434 77.8867 444.087 77.78 444.807 77.62C445.527 77.46 446.16 77.26 446.707 77.02V86.28C446.827 85.5067 447.047 84.82 447.367 84.22C447.687 83.62 448.074 83.1133 448.527 82.7C448.98 82.2867 449.487 81.9733 450.047 81.76C450.607 81.5333 451.187 81.42 451.787 81.42C452.747 81.42 453.594 81.5867 454.327 81.92C455.06 82.24 455.674 82.7 456.167 83.3C456.66 83.9 457.034 84.6267 457.287 85.48C457.54 86.32 457.667 87.26 457.667 88.3C457.667 89.3533 457.52 90.3 457.227 91.14C456.934 91.9667 456.527 92.6667 456.007 93.24C455.487 93.8133 454.867 94.2533 454.147 94.56C453.427 94.8533 452.647 95 451.807 95C451.18 95.0133 450.58 94.9 450.007 94.66C449.447 94.42 448.94 94.1 448.487 93.7C448.034 93.2867 447.654 92.8067 447.347 92.26C447.04 91.7 446.827 91.1067 446.707 90.48V95H442.767V94.8ZM446.727 88.22C446.714 88.6467 446.727 89.1467 446.767 89.72C446.82 90.2933 446.967 90.8667 447.207 91.44C447.394 91.92 447.64 92.3667 447.947 92.78C448.254 93.1933 448.607 93.5533 449.007 93.86C449.407 94.1533 449.84 94.3867 450.307 94.56C450.787 94.72 451.287 94.7933 451.807 94.78C452.42 94.78 452.934 94.6133 453.347 94.28C453.774 93.9467 454.114 93.4933 454.367 92.92C454.634 92.3333 454.82 91.6467 454.927 90.86C455.047 90.06 455.107 89.2067 455.107 88.3C455.107 87.58 455.067 86.8267 454.987 86.04C454.92 85.2533 454.767 84.5333 454.527 83.88C454.3 83.2267 453.967 82.6933 453.527 82.28C453.087 81.8533 452.507 81.64 451.787 81.64C451.28 81.64 450.787 81.72 450.307 81.88C449.827 82.04 449.38 82.28 448.967 82.6C448.554 82.92 448.187 83.3133 447.867 83.78C447.547 84.2467 447.3 84.7867 447.127 85.4C447.047 85.6133 446.98 85.8467 446.927 86.1C446.887 86.3533 446.847 86.6067 446.807 86.86C446.78 87.1133 446.76 87.36 446.747 87.6C446.734 87.84 446.727 88.0467 446.727 88.22Z" fill="#3C3C3B"/>
<path d="M492.72 88.28C492.72 87.24 492.847 86.3 493.1 85.46C493.353 84.6067 493.727 83.88 494.22 83.28C494.713 82.68 495.327 82.22 496.06 81.9C496.793 81.5667 497.647 81.4 498.62 81.4C499.207 81.4 499.773 81.5067 500.32 81.72C500.88 81.9333 501.387 82.2467 501.84 82.66C502.307 83.0733 502.7 83.5867 503.02 84.2C503.34 84.8 503.56 85.4867 503.68 86.26V80.24C503.68 79.9067 503.667 79.62 503.64 79.38C503.627 79.1267 503.573 78.9133 503.48 78.74C503.4 78.5667 503.273 78.4333 503.1 78.34C502.927 78.2467 502.693 78.1867 502.4 78.16V77.96C502.987 77.9067 503.64 77.8 504.36 77.64C505.08 77.48 505.72 77.28 506.28 77.04V92.34C506.28 92.6867 506.3 93.0067 506.34 93.3C506.38 93.5933 506.447 93.8467 506.54 94.06C506.633 94.2733 506.767 94.4467 506.94 94.58C507.113 94.7 507.34 94.76 507.62 94.76V94.98C506.927 94.98 506.333 94.9267 505.84 94.82C505.347 94.7133 504.94 94.54 504.62 94.3C504.3 94.0467 504.06 93.7133 503.9 93.3C503.753 92.8733 503.68 92.34 503.68 91.7V90.46C503.56 91.0867 503.347 91.6733 503.04 92.22C502.733 92.7667 502.353 93.2467 501.9 93.66C501.447 94.0733 500.933 94.4 500.36 94.64C499.8 94.88 499.207 94.9933 498.58 94.98C497.713 94.98 496.92 94.8267 496.2 94.52C495.48 94.2 494.86 93.7533 494.34 93.18C493.833 92.5933 493.433 91.8867 493.14 91.06C492.86 90.2333 492.72 89.3067 492.72 88.28ZM495.28 88.28C495.28 89.1867 495.333 90.04 495.44 90.84C495.56 91.6267 495.747 92.3133 496 92.9C496.267 93.4733 496.607 93.9267 497.02 94.26C497.447 94.5933 497.967 94.76 498.58 94.76C499.1 94.7733 499.593 94.7 500.06 94.54C500.54 94.3667 500.98 94.1333 501.38 93.84C501.78 93.5333 502.133 93.1733 502.44 92.76C502.747 92.3467 502.993 91.9 503.18 91.42C503.433 90.8467 503.58 90.2733 503.62 89.7C503.66 89.1133 503.68 88.6133 503.68 88.2C503.68 88.0133 503.667 87.8 503.64 87.56C503.627 87.32 503.6 87.0733 503.56 86.82C503.533 86.5667 503.493 86.3133 503.44 86.06C503.4 85.8067 503.34 85.5733 503.26 85.36C503.073 84.76 502.82 84.2267 502.5 83.76C502.193 83.2933 501.833 82.9 501.42 82.58C501.007 82.26 500.56 82.02 500.08 81.86C499.6 81.6867 499.113 81.6 498.62 81.6C497.9 81.6 497.32 81.8133 496.88 82.24C496.44 82.6667 496.1 83.2067 495.86 83.86C495.62 84.5133 495.46 85.2333 495.38 86.02C495.313 86.8067 495.28 87.56 495.28 88.28ZM517.768 95C516.741 95 515.814 94.82 514.988 94.46C514.161 94.1 513.454 93.6067 512.868 92.98C512.294 92.3533 511.848 91.62 511.528 90.78C511.221 89.94 511.068 89.0333 511.068 88.06C511.068 87.1267 511.228 86.26 511.548 85.46C511.868 84.6467 512.321 83.94 512.908 83.34C513.494 82.74 514.201 82.2733 515.028 81.94C515.868 81.5933 516.801 81.42 517.828 81.42C518.868 81.42 519.801 81.5933 520.628 81.94C521.454 82.2867 522.161 82.7667 522.748 83.38C523.334 83.98 523.781 84.6933 524.088 85.52C524.408 86.3333 524.568 87.22 524.568 88.18C524.568 89.1533 524.408 90.06 524.088 90.9C523.781 91.7267 523.328 92.4467 522.728 93.06C522.141 93.66 521.428 94.1333 520.588 94.48C519.748 94.8267 518.808 95 517.768 95ZM513.688 88.08C513.688 88.5067 513.708 88.9733 513.748 89.48C513.801 89.9733 513.888 90.4667 514.008 90.96C514.128 91.4533 514.288 91.9333 514.488 92.4C514.688 92.8533 514.941 93.26 515.248 93.62C515.568 93.9667 515.934 94.2467 516.348 94.46C516.774 94.6733 517.274 94.78 517.848 94.78C518.701 94.78 519.394 94.5533 519.928 94.1C520.461 93.6467 520.874 93.0867 521.168 92.42C521.474 91.7533 521.681 91.0333 521.788 90.26C521.894 89.4733 521.948 88.76 521.948 88.12C521.948 87.6933 521.921 87.24 521.868 86.76C521.828 86.2667 521.748 85.78 521.628 85.3C521.508 84.82 521.348 84.36 521.148 83.92C520.948 83.4667 520.694 83.0733 520.388 82.74C520.081 82.3933 519.714 82.12 519.288 81.92C518.861 81.72 518.368 81.62 517.808 81.62C517.248 81.62 516.754 81.72 516.328 81.92C515.901 82.12 515.534 82.3933 515.228 82.74C514.934 83.0733 514.688 83.46 514.488 83.9C514.288 84.34 514.128 84.8 514.008 85.28C513.888 85.76 513.801 86.2467 513.748 86.74C513.708 87.22 513.688 87.6667 513.688 88.08ZM528.009 94.8C528.662 94.8 529.082 94.6333 529.269 94.3C529.469 93.9533 529.576 93.42 529.589 92.7V84.26C529.589 83.8467 529.582 83.48 529.569 83.16C529.569 82.84 529.529 82.5733 529.449 82.36C529.382 82.1333 529.262 81.96 529.089 81.84C528.916 81.72 528.662 81.6467 528.329 81.62V81.42C528.609 81.3933 528.916 81.3533 529.249 81.3C529.596 81.2467 529.936 81.18 530.269 81.1C530.616 81.02 530.956 80.9333 531.289 80.84C531.622 80.7333 531.922 80.62 532.189 80.5V86.28C532.309 85.64 532.482 85.0333 532.709 84.46C532.936 83.8733 533.222 83.36 533.569 82.92C533.916 82.48 534.329 82.1267 534.809 81.86C535.302 81.58 535.869 81.4333 536.509 81.42C537.416 81.38 538.242 81.4867 538.989 81.74C539.736 81.98 540.382 82.3467 540.929 82.84C541.489 83.32 541.942 83.9067 542.289 84.6C542.649 85.2933 542.896 86.0733 543.029 86.94C543.109 86.2467 543.256 85.5733 543.469 84.92C543.682 84.2533 543.969 83.6667 544.329 83.16C544.689 82.64 545.129 82.2267 545.649 81.92C546.169 81.6 546.769 81.4333 547.449 81.42C548.476 81.38 549.396 81.52 550.209 81.84C551.022 82.1467 551.709 82.6067 552.269 83.22C552.842 83.82 553.282 84.5533 553.589 85.42C553.896 86.2867 554.062 87.2467 554.089 88.3V92.72C554.102 93.4267 554.202 93.9533 554.389 94.3C554.589 94.6333 555.016 94.8 555.669 94.8V95C555.202 94.9733 554.736 94.9533 554.269 94.94C553.816 94.9267 553.376 94.92 552.949 94.92C552.522 94.92 552.122 94.9267 551.749 94.94C551.389 94.94 551.076 94.9467 550.809 94.96C550.489 94.9733 550.202 94.9867 549.949 95V94.8C550.309 94.8 550.589 94.76 550.789 94.68C551.002 94.6 551.162 94.48 551.269 94.32C551.376 94.1467 551.442 93.9267 551.469 93.66C551.509 93.3933 551.529 93.08 551.529 92.72V88.52C551.529 87.6267 551.469 86.76 551.349 85.92C551.229 85.08 551.016 84.34 550.709 83.7C550.402 83.0467 549.982 82.5333 549.449 82.16C548.929 81.7867 548.256 81.6067 547.429 81.62C546.722 81.6467 546.109 81.8533 545.589 82.24C545.069 82.6133 544.629 83.1067 544.269 83.72C543.922 84.32 543.656 85 543.469 85.76C543.282 86.5067 543.176 87.26 543.149 88.02V92.72C543.162 93.4267 543.262 93.9533 543.449 94.3C543.649 94.6333 544.076 94.8 544.729 94.8V95C544.262 94.9733 543.796 94.9533 543.329 94.94C542.876 94.9267 542.436 94.92 542.009 94.92C541.582 94.92 541.182 94.9267 540.809 94.94C540.449 94.94 540.136 94.9467 539.869 94.96C539.549 94.9733 539.262 94.9867 539.009 95V94.8C539.369 94.8 539.649 94.76 539.849 94.68C540.062 94.6 540.222 94.48 540.329 94.32C540.436 94.1467 540.502 93.9267 540.529 93.66C540.569 93.3933 540.589 93.08 540.589 92.72V88.5C540.589 87.6067 540.529 86.74 540.409 85.9C540.289 85.06 540.076 84.32 539.769 83.68C539.462 83.04 539.042 82.5333 538.509 82.16C537.989 81.7867 537.316 81.6067 536.489 81.62C535.756 81.6467 535.122 81.8667 534.589 82.28C534.056 82.68 533.616 83.2 533.269 83.84C532.922 84.48 532.656 85.1933 532.469 85.98C532.296 86.7667 532.202 87.5467 532.189 88.32V92.82C532.202 93.5 532.309 94 532.509 94.32C532.722 94.64 533.142 94.8 533.769 94.8V95C533.142 94.9733 532.616 94.9533 532.189 94.94C531.762 94.9267 531.356 94.92 530.969 94.92C530.582 94.92 530.169 94.9267 529.729 94.94C529.302 94.9533 528.769 94.9733 528.129 95H528.009V94.8Z" fill="#3C3C3B"/>
</svg>
