<svg width="480" height="480" viewBox="0 0 480 480" fill="none" xmlns="http://www.w3.org/2000/svg">
<path d="M53.1 229.65C60.45 229.65 65.175 227.775 67.275 224.025C69.525 220.125 70.725 214.125 70.875 206.025V54.825L56.7 52.125V49.875L97.2 39.525H100.125V207.375C100.125 210.825 100.35 213.975 100.8 216.825C101.4 219.525 102.3 221.85 103.5 223.8C104.85 225.6 106.65 227.025 108.9 228.075C111.15 229.125 114.15 229.65 117.9 229.65V231.9C113.4 231.6 108.075 231.375 101.925 231.225C95.775 231.075 89.25 231 82.35 231C77.55 231 72.675 231.075 67.725 231.225C62.775 231.375 57.9 231.6 53.1 231.9V229.65ZM156.679 105C156.679 95.1 158.479 86.1 162.079 78C165.679 69.9 170.629 63 176.929 57.3C183.379 51.45 190.954 46.95 199.654 43.8C208.354 40.65 217.729 39.075 227.779 39.075C240.679 39.075 252.154 41.475 262.204 46.275C272.254 50.925 280.729 57.375 287.629 65.625C294.679 73.875 300.004 83.625 303.604 94.875C307.204 106.125 309.004 118.35 309.004 131.55C309.004 145.2 307.054 158.1 303.154 170.25C299.254 182.25 293.554 192.75 286.054 201.75C278.704 210.75 269.629 217.875 258.829 223.125C248.179 228.375 235.954 231 222.154 231C211.354 231 200.779 229.35 190.429 226.05C180.229 222.75 170.929 218.25 162.529 212.55L172.879 180.15H174.679C176.329 187.05 178.354 193.5 180.754 199.5C183.304 205.35 186.454 210.45 190.204 214.8C194.104 219 198.604 222.3 203.704 224.7C208.954 227.1 215.104 228.3 222.154 228.3C231.454 228.3 239.404 226.425 246.004 222.675C252.604 218.775 258.154 213.6 262.654 207.15C267.154 200.55 270.679 193.05 273.229 184.65C275.779 176.1 277.654 167.175 278.854 157.875C280.054 148.425 280.654 138.975 280.654 129.525C280.654 119.925 280.354 110.85 279.754 102.3C279.754 109.95 278.629 117.45 276.379 124.8C274.129 132.15 270.829 138.75 266.479 144.6C262.279 150.3 257.104 154.95 250.954 158.55C244.954 162.15 238.129 164.1 230.479 164.4C219.679 164.85 209.704 163.725 200.554 161.025C191.554 158.175 183.754 154.125 177.154 148.875C170.704 143.475 165.679 137.025 162.079 129.525C158.479 122.025 156.679 113.85 156.679 105ZM185.479 104.775C185.479 112.425 186.304 119.7 187.954 126.6C189.754 133.5 192.379 139.575 195.829 144.825C199.429 150.075 203.929 154.275 209.329 157.425C214.729 160.575 221.179 162.15 228.679 162.15C236.179 162.15 242.929 160.5 248.929 157.2C254.929 153.75 260.029 149.25 264.229 143.7C268.429 138 271.654 131.55 273.904 124.35C276.154 117.15 277.279 109.725 277.279 102.075C277.279 94.575 276.229 87.225 274.129 80.025C272.179 72.675 269.179 66.15 265.129 60.45C261.229 54.75 256.354 50.175 250.504 46.725C244.804 43.275 238.204 41.55 230.704 41.55C222.454 41.55 215.404 43.275 209.554 46.725C203.854 50.175 199.204 54.825 195.604 60.675C192.004 66.525 189.379 73.275 187.729 80.925C186.229 88.575 185.479 96.525 185.479 104.775Z" fill="#3C3C3B"/>
<path d="M185.912 450.808C187.448 443.768 189.496 437.368 192.056 431.608C194.744 425.848 198.008 420.6 201.848 415.864C205.688 411 210.104 406.52 215.096 402.424C220.088 398.328 225.72 394.424 231.992 390.712C237.496 387.384 243 383.8 248.504 379.96C254.008 375.992 258.936 371.704 263.288 367.096C267.768 362.36 271.352 357.24 274.04 351.736C276.856 346.104 278.264 339.896 278.264 333.112C278.264 327.352 277.432 321.912 275.768 316.792C274.232 311.544 271.864 306.936 268.664 302.968C265.592 298.872 261.752 295.672 257.144 293.368C252.664 290.936 247.48 289.72 241.592 289.72C235.576 289.72 230.2 290.808 225.464 292.984C220.856 295.16 216.76 298.104 213.176 301.816C209.72 305.528 206.776 309.944 204.344 315.064C201.912 320.056 200.056 325.496 198.776 331.384H197.048L189.176 301.816C197.112 297.208 205.368 293.688 213.944 291.256C222.52 288.824 231.416 287.608 240.632 287.608C250.872 287.608 259.832 288.888 267.512 291.448C275.32 294.008 281.848 297.528 287.096 302.008C292.344 306.36 296.312 311.48 299 317.368C301.688 323.256 303.032 329.592 303.032 336.376C303.032 343.8 301.688 350.2 299 355.576C296.44 360.824 292.92 365.368 288.44 369.208C284.088 372.92 279.032 376.184 273.272 379C267.64 381.688 261.752 384.248 255.608 386.68C249.464 388.984 243.32 391.352 237.176 393.784C231.16 396.216 225.528 399.096 220.28 402.424C215.16 405.624 210.68 409.464 206.84 413.944C203.128 418.296 200.504 423.608 198.968 429.88H264.824C269.56 429.88 273.528 429.752 276.728 429.496C279.928 429.112 282.808 428.28 285.368 427C288.056 425.72 290.552 423.928 292.856 421.624C295.16 419.192 297.784 415.928 300.728 411.832L302.264 412.408L294.776 451.768C291.576 451.512 288.184 451.32 284.6 451.192C281.144 451.064 277.752 451 274.424 451C271.224 451 268.28 451 265.592 451C263.032 450.872 261.112 450.808 259.832 450.808H185.912ZM330.174 410.104V408.184L423.871 287.608H425.599V407.032C429.951 405.624 433.471 402.936 436.158 398.968C438.847 395 440.895 389.304 442.302 381.88H443.455V410.104H425.599V428.92C425.727 435.832 426.687 440.952 428.479 444.28C430.399 447.48 434.495 449.08 440.767 449.08V451C436.287 450.744 431.551 450.552 426.559 450.424C421.694 450.296 416.83 450.232 411.966 450.232C407.103 450.232 402.495 450.296 398.142 450.424C393.919 450.424 390.143 450.488 386.815 450.616C382.975 450.744 379.391 450.872 376.062 451V449.08C385.023 449.08 391.423 447.544 395.263 444.472C399.103 441.272 401.023 436.152 401.023 429.112V410.104H330.174ZM401.023 407.992V320.44C394.111 329.272 386.686 338.744 378.75 348.856C370.942 358.968 363.582 368.44 356.67 377.272C348.734 387.512 340.798 397.752 332.862 407.992H401.023Z" fill="#3C3C3B"/>
<path d="M33.464 289.928C33.464 282.405 34.7453 275.42 37.308 268.972C39.9533 262.524 43.5907 256.985 48.22 252.356C52.8493 247.727 58.3053 244.089 64.588 241.444C70.9533 238.799 77.856 237.476 85.296 237.476C92.8187 237.476 99.7627 238.84 106.128 241.568C112.576 244.213 118.115 247.892 122.744 252.604C127.373 257.233 130.969 262.772 133.532 269.22C136.177 275.585 137.5 282.488 137.5 289.928C137.5 297.285 136.136 304.188 133.408 310.636C130.763 317.084 127.084 322.705 122.372 327.5C117.743 332.295 112.245 336.097 105.88 338.908C99.5973 341.636 92.8187 343 85.544 343C78.0213 343 71.0773 341.636 64.712 338.908C58.3467 336.18 52.8493 332.46 48.22 327.748C43.5907 322.953 39.9533 317.332 37.308 310.884C34.7453 304.353 33.464 297.368 33.464 289.928ZM85.42 238.84C78.8067 238.84 73.2267 240.287 68.68 243.18C64.1333 245.991 60.4133 249.752 57.52 254.464C54.6267 259.176 52.5187 264.632 51.196 270.832C49.956 276.949 49.336 283.356 49.336 290.052C49.336 296.583 49.9973 302.948 51.32 309.148C52.7253 315.348 54.8747 320.845 57.768 325.64C60.6613 330.435 64.3813 334.32 68.928 337.296C73.5573 340.189 79.096 341.636 85.544 341.636C91.9093 341.636 97.3653 340.148 101.912 337.172C106.459 334.196 110.179 330.311 113.072 325.516C116.048 320.639 118.197 315.141 119.52 309.024C120.925 302.824 121.628 296.541 121.628 290.176C121.628 283.645 120.967 277.321 119.644 271.204C118.321 265.004 116.213 259.507 113.32 254.712C110.427 249.917 106.665 246.073 102.036 243.18C97.4893 240.287 91.9507 238.84 85.42 238.84ZM158.844 289.804C158.844 282.116 160.126 275.048 162.688 268.6C165.251 262.152 168.847 256.613 173.476 251.984C178.188 247.355 183.768 243.759 190.216 241.196C196.747 238.551 203.98 237.228 211.916 237.228C218.612 237.228 225.102 238.137 231.384 239.956C237.667 241.775 243.619 244.668 249.24 248.636L244.28 267.236L243.04 266.988C241.966 262.937 240.602 259.176 238.948 255.704C237.295 252.149 235.27 249.091 232.872 246.528C230.475 243.965 227.664 241.981 224.44 240.576C221.216 239.088 217.496 238.344 213.28 238.344C206.584 238.344 200.798 239.832 195.92 242.808C191.126 245.784 187.158 249.711 184.016 254.588C180.958 259.465 178.684 265.128 177.196 271.576C175.791 277.941 175.088 284.513 175.088 291.292C175.088 297.74 175.915 304.023 177.568 310.14C179.222 316.175 181.66 321.589 184.884 326.384C188.108 331.096 192.076 334.899 196.788 337.792C201.583 340.603 207.122 342.008 213.404 342.008C217.868 342.008 221.878 341.14 225.432 339.404C229.07 337.668 232.211 335.353 234.856 332.46C237.502 329.484 239.692 326.053 241.428 322.168C243.164 318.283 244.404 314.149 245.148 309.768L246.388 309.52L251.844 329.236C245.892 334.031 239.61 337.544 232.996 339.776C226.466 342.008 219.315 343.124 211.544 343.124C204.187 343.124 197.326 341.884 190.96 339.404C184.595 336.841 179.015 333.245 174.22 328.616C169.426 323.987 165.664 318.407 162.936 311.876C160.208 305.263 158.844 297.905 158.844 289.804ZM269.981 260.664C270.808 255.952 271.469 252.108 271.965 249.132C272.544 246.156 272.999 243.841 273.329 242.188C273.66 240.452 273.867 239.253 273.949 238.592C274.115 237.931 274.197 237.559 274.197 237.476H379.969V237.848L384.185 260.664C384.02 260.747 383.896 260.788 383.813 260.788C383.813 260.788 383.731 260.829 383.565 260.912C383.4 260.995 383.276 261.036 383.193 261.036C380.548 256.985 378.027 253.555 375.629 250.744C373.232 247.851 370.587 245.536 367.693 243.8C364.883 242.064 361.617 240.824 357.897 240.08C354.26 239.253 349.837 238.84 344.629 238.84H334.833V328.864C334.916 333.245 335.536 336.511 336.693 338.66C337.933 340.727 340.579 341.76 344.629 341.76V343C340.579 342.835 337.231 342.711 334.585 342.628C331.94 342.463 329.419 342.38 327.021 342.38C324.624 342.297 322.061 342.339 319.333 342.504C316.688 342.587 313.299 342.752 309.165 343V341.76C311.232 341.76 312.927 341.471 314.249 340.892C315.572 340.313 316.564 339.445 317.225 338.288C317.887 337.131 318.341 335.684 318.589 333.948C318.837 332.129 318.961 330.021 318.961 327.624V238.84H309.537C304.329 238.84 299.865 239.253 296.145 240.08C292.508 240.824 289.243 242.064 286.349 243.8C283.539 245.536 280.893 247.851 278.413 250.744C276.016 253.555 273.536 256.985 270.973 261.036C270.891 261.036 270.767 260.995 270.601 260.912C270.436 260.829 270.312 260.788 270.229 260.788C270.147 260.788 270.064 260.747 269.981 260.664Z" fill="#68745B"/>
</svg>
