<svg width="573" height="158" viewBox="0 0 573 158" fill="none" xmlns="http://www.w3.org/2000/svg">
<path d="M3.204 98.11C4.68733 98.11 5.90367 97.9023 6.853 97.487C7.80233 97.0717 8.51433 96.4487 8.989 95.618C9.46367 94.7873 9.79 93.749 9.968 92.503C10.146 91.1977 10.235 89.6847 10.235 87.964V32.695C10.235 31.3897 10.1757 30.2327 10.057 29.224C9.93833 28.156 9.67133 27.266 9.256 26.554C8.84067 25.7827 8.24733 25.1893 7.476 24.774C6.70467 24.3587 5.66633 24.151 4.361 24.151V23.261H36.401C40.4357 23.261 44.0253 23.8543 47.17 25.041C50.374 26.2277 53.1627 27.8 55.536 29.758C57.9093 31.716 59.9267 33.9707 61.588 36.522C63.2493 39.0733 64.5843 41.7137 65.593 44.443C66.661 47.1723 67.4027 49.9017 67.818 52.631C68.2927 55.301 68.53 57.7633 68.53 60.018C68.53 62.688 68.2927 65.5063 67.818 68.473C67.4027 71.3803 66.661 74.2877 65.593 77.195C64.5843 80.1023 63.2493 82.8613 61.588 85.472C59.9267 88.0827 57.9093 90.3967 55.536 92.414C53.1627 94.4313 50.374 96.0333 47.17 97.22C44.0253 98.4067 40.4357 99 36.401 99H3.204V98.11ZM32.93 98.021C37.4987 98.021 41.3257 96.953 44.411 94.817C47.5557 92.681 50.0477 89.8627 51.887 86.362C53.7857 82.802 55.1207 78.7377 55.892 74.169C56.7227 69.6003 57.138 64.8833 57.138 60.018C57.138 55.39 56.6633 50.94 55.714 46.668C54.824 42.3367 53.3407 38.5097 51.264 35.187C49.2467 31.8643 46.636 29.224 43.432 27.266C40.228 25.2487 36.312 24.24 31.684 24.24H21.627V98.021H32.93ZM83.895 23.261H117.359C121.334 23.261 124.983 23.5577 128.306 24.151C131.629 24.685 134.477 25.664 136.85 27.088C139.283 28.512 141.152 30.4403 142.457 32.873C143.762 35.2463 144.415 38.2427 144.415 41.862C144.415 44.532 144.029 46.757 143.258 48.537C142.487 50.2577 141.448 51.7113 140.143 52.898C138.838 54.0253 137.295 54.9153 135.515 55.568C133.794 56.2207 131.925 56.7547 129.908 57.17C127.95 57.5853 125.933 57.971 123.856 58.327C121.779 58.683 119.732 59.0983 117.715 59.573C119.198 59.573 120.741 59.8103 122.343 60.285C123.945 60.7597 125.547 61.5607 127.149 62.688C128.81 63.756 130.472 65.2393 132.133 67.138C133.794 68.9773 135.426 71.2617 137.028 73.991C138.749 77.017 140.499 79.865 142.279 82.535C144.059 85.1457 145.75 87.519 147.352 89.655C148.954 91.791 150.437 93.6007 151.802 95.084C153.167 96.508 154.324 97.5167 155.273 98.11V99C154.561 99 153.434 99 151.891 99C150.408 98.9407 148.806 98.911 147.085 98.911C145.424 98.911 143.822 98.911 142.279 98.911C140.796 98.911 139.698 98.9407 138.986 99C137.503 96.7453 135.841 94.105 134.002 91.079C132.163 87.9937 130.145 84.582 127.95 80.844C126.704 78.708 125.428 76.572 124.123 74.436C122.877 72.2407 121.483 70.1343 119.94 68.117C118.575 66.3963 117.151 65.1503 115.668 64.379C114.244 63.6077 112.85 63.222 111.485 63.222C110.002 63.222 108.726 63.6373 107.658 64.468C106.59 65.2987 105.67 66.337 104.899 67.583C104.187 68.829 103.623 70.1937 103.208 71.677C102.793 73.101 102.496 74.4063 102.318 75.593V90.545C102.318 91.6723 102.407 92.7107 102.585 93.66C102.763 94.55 103.06 95.351 103.475 96.063C103.89 96.7157 104.484 97.22 105.255 97.576C106.026 97.932 107.005 98.11 108.192 98.11V99C105.463 98.8813 103.238 98.7923 101.517 98.733C99.7964 98.6737 98.1054 98.644 96.444 98.644C94.9607 98.644 93.3587 98.6737 91.638 98.733C89.9174 98.7923 87.722 98.8813 85.052 99V98.11C86.3574 98.11 87.3957 97.9023 88.167 97.487C88.9384 97.0717 89.5317 96.508 89.947 95.796C90.3624 95.0247 90.6294 94.1347 90.748 93.126C90.8667 92.058 90.926 90.8713 90.926 89.566V34.297C90.926 32.5763 90.837 31.093 90.659 29.847C90.481 28.5417 90.1547 27.4737 89.68 26.643C89.2054 25.8123 88.4934 25.1893 87.544 24.774C86.5947 24.3587 85.3784 24.151 83.895 24.151V23.261ZM102.318 71.054C103.386 67.672 104.869 65.0613 106.768 63.222C108.726 61.3827 110.803 59.929 112.998 58.861C115.253 57.7337 117.537 56.8437 119.851 56.191C122.165 55.479 124.271 54.6187 126.17 53.61C128.128 52.542 129.73 51.118 130.976 49.338C132.222 47.558 132.904 45.066 133.023 41.862C133.142 38.48 132.667 35.6617 131.599 33.407C130.59 31.1523 129.196 29.3427 127.416 27.978C125.636 26.6133 123.589 25.664 121.275 25.13C118.961 24.5367 116.558 24.24 114.066 24.24H102.318V71.054ZM168.236 98.11C169.72 98.11 170.936 97.9023 171.885 97.487C172.835 97.0717 173.547 96.4487 174.021 95.618C174.496 94.7873 174.822 93.749 175 92.503C175.178 91.1977 175.267 89.6847 175.267 87.964V32.695C175.267 31.3897 175.208 30.2327 175.089 29.224C174.971 28.156 174.704 27.266 174.288 26.554C173.873 25.7827 173.28 25.1893 172.508 24.774C171.737 24.3587 170.699 24.151 169.393 24.151V23.261H228.578V23.528L231.604 39.904L230.892 40.171C228.697 37.145 226.561 34.6233 224.484 32.606C222.408 30.5293 220.123 28.868 217.631 27.622C215.199 26.376 212.41 25.5157 209.265 25.041C206.18 24.507 202.561 24.24 198.407 24.24H186.659V55.479H190.308C194.343 55.479 197.695 55.2713 200.365 54.856C203.035 54.4407 205.231 53.788 206.951 52.898C208.731 51.9487 210.126 50.7027 211.134 49.16C212.143 47.558 213.003 45.6 213.715 43.286H214.249V68.562H213.715C212.647 66.3667 211.579 64.4977 210.511 62.955C209.443 61.4123 208.079 60.1663 206.417 59.217C204.815 58.2083 202.739 57.4963 200.187 57.081C197.636 56.6063 194.343 56.369 190.308 56.369H186.659V98.021H196.271C200.306 98.021 203.955 97.7837 207.218 97.309C210.541 96.775 213.567 95.885 216.296 94.639C219.085 93.3337 221.666 91.5833 224.039 89.388C226.413 87.1927 228.727 84.4337 230.981 81.111L231.604 81.289L228.578 99H168.236V98.11ZM248.587 75.949L249.299 76.038C249.773 79.242 250.634 82.2087 251.88 84.938C253.126 87.608 254.728 89.922 256.686 91.88C258.644 93.838 260.928 95.3807 263.539 96.508C266.209 97.576 269.175 98.11 272.439 98.11C275.346 98.11 278.075 97.8133 280.627 97.22C283.237 96.5673 285.492 95.5883 287.391 94.283C289.349 92.9777 290.891 91.346 292.019 89.388C293.146 87.3707 293.71 84.9677 293.71 82.179C293.71 79.5683 292.998 77.4027 291.574 75.682C290.209 73.902 288.399 72.389 286.145 71.143C283.89 69.897 281.309 68.829 278.402 67.939C275.494 66.9897 272.498 66.07 269.413 65.18C266.387 64.2307 263.42 63.1923 260.513 62.065C257.605 60.9377 255.024 59.5433 252.77 57.882C250.515 56.2207 248.676 54.233 247.252 51.919C245.887 49.5457 245.205 46.6383 245.205 43.197C245.205 39.5183 246.065 36.433 247.786 33.941C249.566 31.3897 251.85 29.3427 254.639 27.8C257.487 26.198 260.691 25.041 264.251 24.329C267.811 23.617 271.43 23.261 275.109 23.261C279.974 23.261 284.454 23.7653 288.548 24.774C292.642 25.7827 296.795 27.3253 301.008 29.402L296.558 44.799L295.668 44.71C295.549 41.8027 294.926 39.103 293.799 36.611C292.731 34.0597 291.277 31.894 289.438 30.114C287.598 28.2747 285.433 26.8507 282.941 25.842C280.508 24.774 277.868 24.24 275.02 24.24C272.409 24.24 269.917 24.596 267.544 25.308C265.17 25.9607 263.064 26.9397 261.225 28.245C259.385 29.5503 257.932 31.182 256.864 33.14C255.796 35.098 255.262 37.323 255.262 39.815C255.262 42.2477 255.944 44.2947 257.309 45.956C258.733 47.558 260.572 48.9227 262.827 50.05C265.141 51.118 267.751 52.0673 270.659 52.898C273.625 53.7287 276.622 54.589 279.648 55.479C282.733 56.3097 285.729 57.259 288.637 58.327C291.603 59.395 294.214 60.7597 296.469 62.421C298.783 64.023 300.622 66.0403 301.987 68.473C303.411 70.8463 304.123 73.7833 304.123 77.284C304.123 81.378 303.262 84.8193 301.542 87.608C299.821 90.3967 297.507 92.6513 294.6 94.372C291.692 96.0333 288.31 97.22 284.454 97.932C280.656 98.644 276.681 99 272.528 99C267.425 99 262.56 98.4067 257.932 97.22C253.363 96.0333 248.913 94.105 244.582 91.435L248.587 75.949ZM323.455 75.949L324.167 76.038C324.641 79.242 325.502 82.2087 326.748 84.938C327.994 87.608 329.596 89.922 331.554 91.88C333.512 93.838 335.796 95.3807 338.407 96.508C341.077 97.576 344.043 98.11 347.307 98.11C350.214 98.11 352.943 97.8133 355.495 97.22C358.105 96.5673 360.36 95.5883 362.259 94.283C364.217 92.9777 365.759 91.346 366.887 89.388C368.014 87.3707 368.578 84.9677 368.578 82.179C368.578 79.5683 367.866 77.4027 366.442 75.682C365.077 73.902 363.267 72.389 361.013 71.143C358.758 69.897 356.177 68.829 353.27 67.939C350.362 66.9897 347.366 66.07 344.281 65.18C341.255 64.2307 338.288 63.1923 335.381 62.065C332.473 60.9377 329.892 59.5433 327.638 57.882C325.383 56.2207 323.544 54.233 322.12 51.919C320.755 49.5457 320.073 46.6383 320.073 43.197C320.073 39.5183 320.933 36.433 322.654 33.941C324.434 31.3897 326.718 29.3427 329.507 27.8C332.355 26.198 335.559 25.041 339.119 24.329C342.679 23.617 346.298 23.261 349.977 23.261C354.842 23.261 359.322 23.7653 363.416 24.774C367.51 25.7827 371.663 27.3253 375.876 29.402L371.426 44.799L370.536 44.71C370.417 41.8027 369.794 39.103 368.667 36.611C367.599 34.0597 366.145 31.894 364.306 30.114C362.466 28.2747 360.301 26.8507 357.809 25.842C355.376 24.774 352.736 24.24 349.888 24.24C347.277 24.24 344.785 24.596 342.412 25.308C340.038 25.9607 337.932 26.9397 336.093 28.245C334.253 29.5503 332.8 31.182 331.732 33.14C330.664 35.098 330.13 37.323 330.13 39.815C330.13 42.2477 330.812 44.2947 332.177 45.956C333.601 47.558 335.44 48.9227 337.695 50.05C340.009 51.118 342.619 52.0673 345.527 52.898C348.493 53.7287 351.49 54.589 354.516 55.479C357.601 56.3097 360.597 57.259 363.505 58.327C366.471 59.395 369.082 60.7597 371.337 62.421C373.651 64.023 375.49 66.0403 376.855 68.473C378.279 70.8463 378.991 73.7833 378.991 77.284C378.991 81.378 378.13 84.8193 376.41 87.608C374.689 90.3967 372.375 92.6513 369.468 94.372C366.56 96.0333 363.178 97.22 359.322 97.932C355.524 98.644 351.549 99 347.396 99C342.293 99 337.428 98.4067 332.8 97.22C328.231 96.0333 323.781 94.105 319.45 91.435L323.455 75.949Z" fill="#3C3C3B"/>
<path d="M297.772 105.967C297.772 101.193 298.568 96.804 300.159 92.8C301.75 88.796 303.983 85.3567 306.858 82.482C309.784 79.6073 313.249 77.3743 317.253 75.783C321.308 74.1403 325.8 73.319 330.728 73.319C334.886 73.319 338.916 73.8837 342.817 75.013C346.718 76.1423 350.414 77.939 353.905 80.403L350.825 91.953L350.055 91.799C349.388 89.2837 348.541 86.948 347.514 84.792C346.487 82.5847 345.23 80.6853 343.741 79.094C342.252 77.5027 340.507 76.2707 338.505 75.398C336.503 74.474 334.193 74.012 331.575 74.012C327.417 74.012 323.824 74.936 320.795 76.784C317.818 78.632 315.354 81.0703 313.403 84.099C311.504 87.1277 310.092 90.644 309.168 94.648C308.295 98.6007 307.859 102.682 307.859 106.891C307.859 110.895 308.372 114.796 309.399 118.595C310.426 122.342 311.94 125.705 313.942 128.682C315.944 131.608 318.408 133.969 321.334 135.766C324.311 137.511 327.751 138.384 331.652 138.384C334.424 138.384 336.914 137.845 339.121 136.767C341.38 135.689 343.33 134.252 344.973 132.455C346.616 130.607 347.976 128.477 349.054 126.064C350.132 123.651 350.902 121.085 351.364 118.364L352.134 118.21L355.522 130.453C351.826 133.43 347.925 135.612 343.818 136.998C339.763 138.384 335.322 139.077 330.497 139.077C325.928 139.077 321.668 138.307 317.715 136.767C313.762 135.176 310.297 132.943 307.32 130.068C304.343 127.193 302.007 123.728 300.313 119.673C298.619 115.566 297.772 110.998 297.772 105.967ZM368.786 106.044C368.786 101.373 369.582 97.035 371.173 93.031C372.816 89.027 375.075 85.5877 377.949 82.713C380.824 79.8383 384.212 77.5797 388.113 75.937C392.066 74.2943 396.352 73.473 400.972 73.473C405.644 73.473 409.956 74.32 413.908 76.014C417.912 77.6567 421.352 79.941 424.226 82.867C427.101 85.7417 429.334 89.181 430.925 93.185C432.568 97.1377 433.389 101.424 433.389 106.044C433.389 110.613 432.542 114.899 430.848 118.903C429.206 122.907 426.921 126.398 423.995 129.375C421.121 132.352 417.707 134.714 413.754 136.459C409.853 138.153 405.644 139 401.126 139C396.455 139 392.143 138.153 388.19 136.459C384.238 134.765 380.824 132.455 377.949 129.529C375.075 126.552 372.816 123.061 371.173 119.057C369.582 115.002 368.786 110.664 368.786 106.044ZM401.049 74.32C396.943 74.32 393.478 75.2183 390.654 77.015C387.831 78.7603 385.521 81.096 383.724 84.022C381.928 86.948 380.619 90.336 379.797 94.186C379.027 97.9847 378.642 101.963 378.642 106.121C378.642 110.176 379.053 114.129 379.874 117.979C380.747 121.829 382.082 125.243 383.878 128.22C385.675 131.197 387.985 133.61 390.808 135.458C393.683 137.255 397.122 138.153 401.126 138.153C405.079 138.153 408.467 137.229 411.29 135.381C414.114 133.533 416.424 131.12 418.22 128.143C420.068 125.114 421.403 121.701 422.224 117.902C423.097 114.052 423.533 110.151 423.533 106.198C423.533 102.143 423.123 98.2157 422.301 94.417C421.48 90.567 420.171 87.1533 418.374 84.176C416.578 81.1987 414.242 78.8117 411.367 77.015C408.544 75.2183 405.105 74.32 401.049 74.32ZM446.644 138.23C447.927 138.23 448.979 138.05 449.801 137.691C450.622 137.332 451.238 136.793 451.649 136.074C452.059 135.355 452.342 134.457 452.496 133.379C452.65 132.25 452.727 130.941 452.727 129.452V81.635C452.727 80.5057 452.675 79.5047 452.573 78.632C452.47 77.708 452.239 76.938 451.88 76.322C451.52 75.6547 451.007 75.1413 450.34 74.782C449.672 74.4227 448.774 74.243 447.645 74.243V73.473H475.365C478.855 73.473 481.961 73.9863 484.682 75.013C487.454 76.0397 489.866 77.4 491.92 79.094C493.973 80.788 495.718 82.7387 497.156 84.946C498.593 87.1533 499.748 89.4377 500.621 91.799C501.545 94.1603 502.186 96.5217 502.546 98.883C502.956 101.193 503.162 103.323 503.162 105.274C503.162 107.584 502.956 110.022 502.546 112.589C502.186 115.104 501.545 117.62 500.621 120.135C499.748 122.65 498.593 125.037 497.156 127.296C495.718 129.555 493.973 131.557 491.92 133.302C489.866 135.047 487.454 136.433 484.682 137.46C481.961 138.487 478.855 139 475.365 139H446.644V138.23ZM472.362 138.153C476.314 138.153 479.625 137.229 482.295 135.381C485.015 133.533 487.171 131.095 488.763 128.066C490.405 124.986 491.56 121.47 492.228 117.517C492.946 113.564 493.306 109.483 493.306 105.274C493.306 101.27 492.895 97.42 492.074 93.724C491.304 89.9767 490.02 86.6657 488.224 83.791C486.478 80.9163 484.22 78.632 481.448 76.938C478.676 75.1927 475.288 74.32 471.284 74.32H462.583V138.153H472.362ZM516.455 138.23C517.738 138.23 518.791 138.05 519.612 137.691C520.433 137.332 521.049 136.793 521.46 136.074C521.871 135.355 522.153 134.457 522.307 133.379C522.461 132.25 522.538 130.941 522.538 129.452V81.635C522.538 80.5057 522.487 79.5047 522.384 78.632C522.281 77.708 522.05 76.938 521.691 76.322C521.332 75.6547 520.818 75.1413 520.151 74.782C519.484 74.4227 518.585 74.243 517.456 74.243V73.473H568.661V73.704L571.279 87.872L570.663 88.103C568.764 85.485 566.916 83.3033 565.119 81.558C563.322 79.7613 561.346 78.324 559.19 77.246C557.085 76.168 554.673 75.4237 551.952 75.013C549.283 74.551 546.151 74.32 542.558 74.32H532.394V101.347H535.551C539.042 101.347 541.942 101.167 544.252 100.808C546.562 100.449 548.461 99.884 549.95 99.114C551.49 98.2927 552.696 97.2147 553.569 95.88C554.442 94.494 555.186 92.8 555.802 90.798H556.264V112.666H555.802C554.878 110.767 553.954 109.15 553.03 107.815C552.106 106.48 550.925 105.402 549.488 104.581C548.102 103.708 546.305 103.092 544.098 102.733C541.891 102.322 539.042 102.117 535.551 102.117H532.394V138.153H540.71C544.201 138.153 547.358 137.948 550.181 137.537C553.056 137.075 555.674 136.305 558.035 135.227C560.448 134.098 562.681 132.583 564.734 130.684C566.787 128.785 568.789 126.398 570.74 123.523L571.279 123.677L568.661 139H516.455V138.23Z" fill="#3C3C3B"/>
</svg>
