<svg id="Capa_1" data-name="Capa 1" xmlns="http://www.w3.org/2000/svg" viewBox="0 0 480 266.72"><defs><style>.cls-1{fill:#69735b;}.cls-2{fill:#fff;}</style></defs><path class="cls-1" d="M480,329.41a32.94,32.94,0,0,0-.29-3.68c-.88-16.23-1.57-32.48-3.1-48.67-.29-3.05-.17-6.14-.26-9.21-.2-6.77-.25-13.54-.66-20.3q-1.5-24.47-2.09-49c-.56-24.05,1.59-48.06.42-72.11-.22-4.57-1.3-11.42-.43-15.93l-2.14-18.6c.7-1.62.07-3-1.53-3.82-2.17-1.15-4.23-2.29-7-1.49C457.88,88.12,452.62,88,447.38,88q-12.93-.06-25.87.15c-8.93.14-17.87.41-26.81.66-11.59.32-23.16-.46-34.79-.14-7.75.21-15.5.49-23.25.78a37.87,37.87,0,0,0-11,.14,2.64,2.64,0,0,0-.55.15l-2.36-.08a4.23,4.23,0,0,0-1.84.34c-14.41.46-28.84.76-43.29.42l-35.43,1c-3.68-.9-37.31-.08-41.06.55s-8,.23-12,.16c-1.51,0-3.06-.73-4.52-.55-5.1.62-10.21.91-15.31,1a111.82,111.82,0,0,0-15.64-.16c-7.22-.23-14.44-.6-21.65-.75-16-.34-32-2.08-48-2.36C68.73,89,53.33,87.54,38.09,90.82c-2.35.5-4.91.07-7.38,0-3.68-.15-7.43,0-11-.68C13.46,89,9.2,92.86,4.4,95.41a3.58,3.58,0,0,0-1.8,4c1.42,8,.16,16,.59,24,1.12,20.63.7,41.25.5,61.87-.15,16-1.23,32-.36,48a160.37,160.37,0,0,1-.5,17.53c-.71,12.92-1.9,25.83-1.26,38.8.76,15.07.23,30.15-.08,45.22-.08,4.24.2,8.56-1.13,12.8-1,3.14.12,4.32,2.8,4.83a30.3,30.3,0,0,0,9,.49c13.42-1.83,26.84-3.65,40.4-4.38,19.08-1,38.17-1.2,57.27-1.2,7.38,0,14.77.37,22.13,0,17.84-.82,35.69-1.21,53.53-.54,9.25.34,18.45-.3,27.66-.71l31,2.29,59.39-4.17c12,.85,27.61-2,39.61-2.21,20-.39,40-.9,60.06-1.27,5.83-.1,11.69,1.05,17.5,0,12.78-2.39,25.84-1.32,38.68-3.15,3.92-.56,8-.12,12,0,2.65.1,5.93,2.49,7.7-.19C480.37,335.41,479.83,332.13,480,329.41ZM25.45,98.77c4-.58,8-1,12-1.21,8-.45,16-.93,23.94.48a51.93,51.93,0,0,0,7.38.55c7.38.23,14.77.55,22.15.53,4.29,0,8.58-.61,12.86-1l15,2c16.92,3.14,34.05-1.43,50.94.78l2.22.33.91.16,18.88.07a39.31,39.31,0,0,1,7.33-.63,239.55,239.55,0,0,0,34-1.53,5.81,5.81,0,0,1,1.75-.12c15.4,3.12,30.59-.17,45.85-1.51a25.23,25.23,0,0,1,4.59-.18c12,1.17,24-.1,36,.2a4.47,4.47,0,0,0,1.57.33l16.68.53.32.08,7,.15,48.82,1.33c15.27,1.17,30.27,1.34,45.41-1.26a4.41,4.41,0,0,0,1.13-.35,12.62,12.62,0,0,1-2.49,2.26c-12.06,8.53-24.12,17-36,25.77-5.22,3.82-10.18,8-15.09,12.2a185.56,185.56,0,0,1-26.91,19.47,214.6,214.6,0,0,0-19.8,13.57c-7.95,5.93-16.66,10.56-25.11,15.65-6.57,4-13.49,7.42-19.46,12.35a28.55,28.55,0,0,1-3.78,2.66c-13.55,8-26.14,17.41-39,26.44a47.37,47.37,0,0,0-4.58,3.13c-3.52,3.16-6.51,2.6-10.69.45-16.47-8.46-31.43-19.31-47.15-29-7.08-4.35-14.56-8.06-21.37-12.88q-2.61-1.84-5.3-3.57a2.86,2.86,0,0,0-.41-.36c-8.76-6.66-18.44-11.77-28.27-16.61A157.58,157.58,0,0,1,123,160.84,82.5,82.5,0,0,0,106,151.36a210.51,210.51,0,0,1-33.82-18.93c-9.48-6.43-19.88-11.16-29.77-16.82-5.35-3.06-10.66-6.19-16-9.31a14.9,14.9,0,0,1-2.24-1.63c-1.33-1.18-3.67-2-3.4-4C21.16,98.32,23.79,99,25.45,98.77ZM11.86,336.29c-2.69-1.66-1.53-4.14-2.07-6.06a21.38,21.38,0,0,1-.56-5.49c-.22-22.17-.54-44.35-.55-66.52,0-9.83.53-19.66,1-29.47.67-13.87-.24-27.71-.24-41.57,0-17.23.55-34.46.94-51.7.17-7.69.49-15.38.83-23.06.06-1.4.55-2.23,1.35-2.37,9.19,8.5,20.79,14.15,31.59,20.3,13.2,7.51,26.43,15,39.79,22.21,13.09,7.1,26.3,14,39.69,20.5l13.6,7.94q22,12.74,44,25.29c3.75,2.14,7.61,4.08,11.43,6.11,1.63.87,3.34,1.61,4.87,2.63,9.2,6.1,9.21,6.67-.61,12.38-10.11,5.87-20.34,11.54-30.51,17.32-2.14,1.21-4.3,2.42-6.31,3.83a129.42,129.42,0,0,1-17.67,10c-9.39,4.6-18.38,10-27.45,15.25-5.88,3.39-11.58,7.07-17.36,10.62a17.54,17.54,0,0,0-2.37,1.43c-12.79,11.4-28.2,18.66-42.78,27.24-9.56,5.63-19,11.46-28.55,17.1C20,332.52,16.18,335.13,11.86,336.29Zm411.68-3.6c-12.65-1.05-25.18,1.17-37.71,2-8.9.6-20.95-1.67-29.8-.33-14,2.13-25.06,2.2-39.18,2.62L284.57,339c-18.5-1.44-36.91,2.47-55.42.83l-65.69-1.87c-20,.57-42.79,3.12-62.8,1.76-20.35-1.38-40.61,2.92-60.92,3.09-5.52.05-11,.94-16.57,1.38a6.88,6.88,0,0,1-2.71-.28c-1-.32-1.55-1.41-.76-2.08,3.49-3,6.86-6.25,10.78-8.59,18-10.74,36.17-21.24,54.31-31.76,11.74-6.8,23.67-13.29,35.3-20.29,7.67-4.62,15.29-9.27,23.42-13.07,10.65-5,20.45-11.43,30.28-17.81,6.18-4,12.14-8.1,19.56-10.1l19.15-8.82c9.76,2.55,19.08,9.83,27.23,15.38,2.62,1.78,5.16.07,6-2.27a64.46,64.46,0,0,0,8.32-5.71c3.52-3,7-5,10.7-5.14a4.36,4.36,0,0,0,2,1.68c10.58,4.43,21.11,9,31.42,14l.12.09a8,8,0,0,0,3.72,1.8l4,2c12.7,6.55,24.8,14.16,37.27,21.12,25.23,14.08,51.33,26.49,77.42,38.88l17.71,8.41,10.47,6.19C439.29,330.51,431.11,330,423.54,332.69ZM469.33,327c-21.13-10-42.33-20-63.4-30.12-8.32-4.43-16.73-8.69-25.34-12.6-5.86-2.66-11.27-6.33-16.86-9.58-12.47-7.23-25.07-14.19-38.08-20.35-3.89-2.23-7.79-4.43-11.74-6.52-7.63-4.05-15.42-7.78-23.29-11.34-4.47-2.38-8.87-4.89-13.22-7.48-3.15-1.88-3-4,.12-6.48,3.62-2.86,7.42-5.5,11.29-8,19.88-13,40.38-25,59.66-38.83,12.77-9.18,25.67-18.22,37.9-28.06,12.52-10.07,26.17-18.56,38.68-28.58,8.72-7,18.72-11.87,27.84-18.16a26.93,26.93,0,0,1,5-2.41c1.32-.55,2.64-.19,2.77,1.34.39,4.54.57,9.1.79,13.65a29.6,29.6,0,0,0,.06,4.62c3.82,18.18.83,36.4,2.29,54.92,1.5,19,1.43,28,2,40,1.08,23.68,4.37,43.56,5.56,67.23.33,6.74,1,13.55,1,20.22s-.3,13.36.5,20.07C473.29,324.45,472.1,326.57,469.33,327Z" transform="translate(0 -86.36)"/><ellipse class="cls-1" cx="243.15" cy="238.58" rx="57.62" ry="48.32" transform="translate(-23.56 -59.69) rotate(-5.99)"/><path class="cls-2" d="M215.74,265.71c.69,1,1.17,2.44,3,1.85s1.72-1.94,1.6-3.38c-.63-7.72-1.3-15.44-1.85-23.16-.22-3-.19-6.06-.28-9.1,2.36,5.92,4.09,11.92,6.25,17.76,1.81,4.9,4.08,9.65,6.31,14.39.3.63,1.76,1.35,2.27,1.11a3.93,3.93,0,0,0,1.89-2.34,12,12,0,0,0,0-3.73c-.86-10.79-1.74-21.58-2.58-32.37-.11-1.36-.07-2.74-.1-4.11a79.69,79.69,0,0,1,2.9,9.59c3.16,12.11,6.8,24.07,12.58,35.23a27.32,27.32,0,0,0,4.27,5.79,3.41,3.41,0,0,0,2.89.38c.57-.17,1-1.33,1.19-2.11a6.46,6.46,0,0,0,.05-2.24q-1-13.32-2.12-26.64l-.6-7.26a2.43,2.43,0,0,1,.86,1.34c3.23,8.11,6.38,16.25,9.8,24.28a15,15,0,0,0,3.84,4.84c1.73,1.57,3.87.52,4-1.82a50.19,50.19,0,0,0-.05-6.49c-1-11.79-2-23.57-3-35.35-.21-2.52-.36-5-.54-7.56.54.14.73.32.78.53.47,1.89,1.93,1.79,3.14,1.24.47-.22.71-1.65.54-2.42-.59-2.77-1.37-5.49-2.15-8.21-.29-1-.12-2.49-2-2.16-1.73.29-2.07,1.3-1.95,2.84.35,4.4.59,8.8.93,13.2.95,12.37,1.94,24.73,2.87,37.1.11,1.53,0,3.07-.07,4.61l-.84.28c-1.33-2.23-2.78-4.4-4-6.7-4.66-9.11-7.42-18.89-9.94-28.75-.3-1.18-.54-2.3-2.23-1.95-1.47.31-2.15,1-2,2.58.26,2.65.37,5.32.6,8,.89,10.2,1.82,20.4,2.68,30.6a21.67,21.67,0,0,1-.26,3.49,4.43,4.43,0,0,1-1.91-2c-2.09-4.63-4.6-9.13-6.12-14-3.82-12.06-7.2-24.25-10.71-36.41-.64-2.23-1.26-2.7-3.23-1.54a3.71,3.71,0,0,0-1.66,2.42,31.43,31.43,0,0,0,0,6c.67,9.55,1.41,19.1,2.09,28.65.12,1.74.11,3.5.16,5.25a4.87,4.87,0,0,1-1.68-2.39c-3.26-9.35-6.48-18.72-9.78-28.06-.27-.78-1.37-2-1.56-1.95a7.9,7.9,0,0,0-3,2.16c-.47.61-.3,1.78-.25,2.68.35,6.4.71,12.8,1.12,19.2.25,3.95.6,7.91.9,11.86-.59-.21-.88-.49-1-.83-.59-2.09-2-1.87-3.5-1.24-2,.81-1.09,2.1-.54,3.28A27.89,27.89,0,0,0,215.74,265.71Z" transform="translate(0 -86.36)"/></svg>