<svg width="562" height="158" viewBox="0 0 562 158" fill="none" xmlns="http://www.w3.org/2000/svg">
<path d="M1.8 32.45H20.6C22.8333 32.45 24.8833 32.6167 26.75 32.95C28.6167 33.25 30.2167 33.8 31.55 34.6C32.9167 35.4 33.9667 36.4833 34.7 37.85C35.4333 39.1833 35.8 40.8667 35.8 42.9C35.8 44.7333 35.4833 46.2 34.85 47.3C34.2167 48.3667 33.3667 49.2167 32.3 49.85C31.2667 50.4833 30.0833 50.95 28.75 51.25C27.4167 51.55 26.05 51.8333 24.65 52.1C23.25 52.3333 21.85 52.6167 20.45 52.95C19.05 53.2833 17.7667 53.8 16.6 54.5C15.4667 55.1667 14.5 56.0833 13.7 57.25C12.9 58.4167 12.3833 59.95 12.15 61.85V70.25C12.15 70.8833 12.2 71.4667 12.3 72C12.4 72.5 12.5667 72.95 12.8 73.35C13.0333 73.7167 13.3667 74 13.8 74.2C14.2333 74.4 14.7833 74.5 15.45 74.5V75C14.6167 74.9333 13.5833 74.8833 12.35 74.85C11.1167 74.7833 9.85 74.75 8.55 74.75C7.41667 74.75 6.31667 74.7833 5.25 74.85C4.21667 74.8833 3.28333 74.9333 2.45 75V74.5C3.18333 74.5 3.76667 74.3833 4.2 74.15C4.63333 73.9167 4.96667 73.6 5.2 73.2C5.43333 72.7667 5.58333 72.2667 5.65 71.7C5.71667 71.1 5.75 70.4333 5.75 69.7V38.65C5.75 37.6833 5.7 36.85 5.6 36.15C5.5 35.4167 5.31667 34.8167 5.05 34.35C4.78333 33.8833 4.38333 33.5333 3.85 33.3C3.31667 33.0667 2.63333 32.95 1.8 32.95V32.45ZM12.15 59.3C12.75 57.4 13.5833 55.9333 14.65 54.9C15.75 53.8667 16.9167 53.05 18.15 52.45C19.4167 51.8167 20.7 51.3167 22 50.95C23.3 50.55 24.4833 50.0667 25.55 49.5C26.65 48.9 27.55 48.1 28.25 47.1C28.95 46.1 29.3333 44.7 29.4 42.9C29.4667 41 29.2 39.4167 28.6 38.15C28.0333 36.8833 27.25 35.8667 26.25 35.1C25.25 34.3333 24.1 33.8 22.8 33.5C21.5 33.1667 20.15 33 18.75 33H12.15V59.3ZM44.4465 74.5C45.2798 74.5 45.9632 74.3833 46.4965 74.15C47.0298 73.9167 47.4298 73.5667 47.6965 73.1C47.9632 72.6333 48.1465 72.05 48.2465 71.35C48.3465 70.6167 48.3965 69.7667 48.3965 68.8V37.75C48.3965 37.0167 48.3632 36.3667 48.2965 35.8C48.2298 35.2 48.0798 34.7 47.8465 34.3C47.6132 33.8667 47.2798 33.5333 46.8465 33.3C46.4132 33.0667 45.8298 32.95 45.0965 32.95V32.45H78.3465V32.6L80.0465 41.8L79.6465 41.95C78.4132 40.25 77.2132 38.8333 76.0465 37.7C74.8798 36.5333 73.5965 35.6 72.1965 34.9C70.8298 34.2 69.2632 33.7167 67.4965 33.45C65.7632 33.15 63.7298 33 61.3965 33H54.7965V50.55H56.8465C59.1132 50.55 60.9965 50.4333 62.4965 50.2C63.9965 49.9667 65.2298 49.6 66.1965 49.1C67.1965 48.5667 67.9798 47.8667 68.5465 47C69.1132 46.1 69.5965 45 69.9965 43.7H70.2965V57.9H69.9965C69.3965 56.6667 68.7965 55.6167 68.1965 54.75C67.5965 53.8833 66.8298 53.1833 65.8965 52.65C64.9965 52.0833 63.8298 51.6833 62.3965 51.45C60.9632 51.1833 59.1132 51.05 56.8465 51.05H54.7965V74.45H60.1965C62.4632 74.45 64.5132 74.3167 66.3465 74.05C68.2132 73.75 69.9132 73.25 71.4465 72.55C73.0132 71.8167 74.4632 70.8333 75.7965 69.6C77.1298 68.3667 78.4298 66.8167 79.6965 64.95L80.0465 65.05L78.3465 75H44.4465V74.5ZM86.0371 41.8C86.3704 39.9 86.6371 38.35 86.8371 37.15C87.0704 35.95 87.2538 35.0167 87.3871 34.35C87.5204 33.65 87.6038 33.1667 87.6371 32.9C87.7038 32.6333 87.7371 32.4833 87.7371 32.45H130.387V32.6L132.087 41.8C132.02 41.8333 131.97 41.85 131.937 41.85C131.937 41.85 131.904 41.8667 131.837 41.9C131.77 41.9333 131.72 41.95 131.687 41.95C130.62 40.3167 129.604 38.9333 128.637 37.8C127.67 36.6333 126.604 35.7 125.437 35C124.304 34.3 122.987 33.8 121.487 33.5C120.02 33.1667 118.237 33 116.137 33H112.187V69.3C112.22 71.0667 112.47 72.3833 112.937 73.25C113.437 74.0833 114.504 74.5 116.137 74.5V75C114.504 74.9333 113.154 74.8833 112.087 74.85C111.02 74.7833 110.004 74.75 109.037 74.75C108.07 74.7167 107.037 74.7333 105.937 74.8C104.87 74.8333 103.504 74.9 101.837 75V74.5C102.67 74.5 103.354 74.3833 103.887 74.15C104.42 73.9167 104.82 73.5667 105.087 73.1C105.354 72.6333 105.537 72.05 105.637 71.35C105.737 70.6167 105.787 69.7667 105.787 68.8V33H101.987C99.8871 33 98.0871 33.1667 96.5871 33.5C95.1204 33.8 93.8038 34.3 92.6371 35C91.5038 35.7 90.4371 36.6333 89.4371 37.8C88.4704 38.9333 87.4704 40.3167 86.4371 41.95C86.4038 41.95 86.3538 41.9333 86.2871 41.9C86.2204 41.8667 86.1704 41.85 86.1371 41.85C86.1038 41.85 86.0704 41.8333 86.0371 41.8ZM146.907 74.8C145.841 74.8 144.841 74.8167 143.907 74.85C143.007 74.85 142.224 74.8667 141.557 74.9C140.757 74.9333 140.041 74.9667 139.407 75V74.5C140.307 74.5 141.007 74.4 141.507 74.2C142.041 74 142.441 73.7 142.707 73.3C142.974 72.8667 143.141 72.3167 143.207 71.65C143.307 70.9833 143.357 70.2 143.357 69.3V37.75C143.357 37.0167 143.324 36.3667 143.257 35.8C143.191 35.2 143.041 34.7 142.807 34.3C142.574 33.8667 142.241 33.5333 141.807 33.3C141.374 33.0667 140.791 32.95 140.057 32.95V32.45C141.491 32.55 142.674 32.6333 143.607 32.7C144.574 32.7333 145.491 32.75 146.357 32.75C147.291 32.75 148.257 32.7333 149.257 32.7C150.257 32.6333 151.524 32.55 153.057 32.45V32.95C152.324 32.95 151.741 33.0667 151.307 33.3C150.874 33.5 150.541 33.8 150.307 34.2C150.074 34.6 149.924 35.1 149.857 35.7C149.791 36.2667 149.757 36.9 149.757 37.6V69.3C149.757 70.2 149.807 70.9833 149.907 71.65C150.041 72.2833 150.241 72.8167 150.507 73.25C150.807 73.65 151.207 73.9667 151.707 74.2C152.241 74.4 152.924 74.5 153.757 74.5V75C152.591 74.9333 151.424 74.8833 150.257 74.85C149.091 74.8167 147.974 74.8 146.907 74.8ZM162.376 53.55C162.376 50.45 162.893 47.6 163.926 45C164.96 42.4 166.41 40.1667 168.276 38.3C170.176 36.4333 172.426 34.9833 175.026 33.95C177.66 32.8833 180.576 32.35 183.776 32.35C186.476 32.35 189.093 32.7167 191.626 33.45C194.16 34.1833 196.56 35.35 198.826 36.95L196.826 44.45L196.326 44.35C195.893 42.7167 195.343 41.2 194.676 39.8C194.01 38.3667 193.193 37.1333 192.226 36.1C191.26 35.0667 190.126 34.2667 188.826 33.7C187.526 33.1 186.026 32.8 184.326 32.8C181.626 32.8 179.293 33.4 177.326 34.6C175.393 35.8 173.793 37.3833 172.526 39.35C171.293 41.3167 170.376 43.6 169.776 46.2C169.21 48.7667 168.926 51.4167 168.926 54.15C168.926 56.75 169.26 59.2833 169.926 61.75C170.593 64.1833 171.576 66.3667 172.876 68.3C174.176 70.2 175.776 71.7333 177.676 72.9C179.61 74.0333 181.843 74.6 184.376 74.6C186.176 74.6 187.793 74.25 189.226 73.55C190.693 72.85 191.96 71.9167 193.026 70.75C194.093 69.55 194.976 68.1667 195.676 66.6C196.376 65.0333 196.876 63.3667 197.176 61.6L197.676 61.5L199.876 69.45C197.476 71.3833 194.943 72.8 192.276 73.7C189.643 74.6 186.76 75.05 183.626 75.05C180.66 75.05 177.893 74.55 175.326 73.55C172.76 72.5167 170.51 71.0667 168.576 69.2C166.643 67.3333 165.126 65.0833 164.026 62.45C162.926 59.7833 162.376 56.8167 162.376 53.55ZM215.989 74.8C214.923 74.8 213.923 74.8167 212.989 74.85C212.089 74.85 211.306 74.8667 210.639 74.9C209.839 74.9333 209.123 74.9667 208.489 75V74.5C209.389 74.5 210.089 74.4 210.589 74.2C211.123 74 211.523 73.7 211.789 73.3C212.056 72.8667 212.223 72.3167 212.289 71.65C212.389 70.9833 212.439 70.2 212.439 69.3V37.75C212.439 37.0167 212.406 36.3667 212.339 35.8C212.273 35.2 212.123 34.7 211.889 34.3C211.656 33.8667 211.323 33.5333 210.889 33.3C210.456 33.0667 209.873 32.95 209.139 32.95V32.45C210.573 32.55 211.756 32.6333 212.689 32.7C213.656 32.7333 214.573 32.75 215.439 32.75C216.373 32.75 217.339 32.7333 218.339 32.7C219.339 32.6333 220.606 32.55 222.139 32.45V32.95C221.406 32.95 220.823 33.0667 220.389 33.3C219.956 33.5 219.623 33.8 219.389 34.2C219.156 34.6 219.006 35.1 218.939 35.7C218.873 36.2667 218.839 36.9 218.839 37.6V69.3C218.839 70.2 218.889 70.9833 218.989 71.65C219.123 72.2833 219.323 72.8167 219.589 73.25C219.889 73.65 220.289 73.9667 220.789 74.2C221.323 74.4 222.006 74.5 222.839 74.5V75C221.673 74.9333 220.506 74.8833 219.339 74.85C218.173 74.8167 217.056 74.8 215.989 74.8ZM231.458 53.6C231.458 50.5667 231.975 47.75 233.008 45.15C234.075 42.55 235.542 40.3167 237.408 38.45C239.275 36.5833 241.475 35.1167 244.008 34.05C246.575 32.9833 249.358 32.45 252.358 32.45C255.392 32.45 258.192 33 260.758 34.1C263.358 35.1667 265.592 36.65 267.458 38.55C269.325 40.4167 270.775 42.65 271.808 45.25C272.875 47.8167 273.408 50.6 273.408 53.6C273.408 56.5667 272.858 59.35 271.758 61.95C270.692 64.55 269.208 66.8167 267.308 68.75C265.442 70.6833 263.225 72.2167 260.658 73.35C258.125 74.45 255.392 75 252.458 75C249.425 75 246.625 74.45 244.058 73.35C241.492 72.25 239.275 70.75 237.408 68.85C235.542 66.9167 234.075 64.65 233.008 62.05C231.975 59.4167 231.458 56.6 231.458 53.6ZM252.408 33C249.742 33 247.492 33.5833 245.658 34.75C243.825 35.8833 242.325 37.4 241.158 39.3C239.992 41.2 239.142 43.4 238.608 45.9C238.108 48.3667 237.858 50.95 237.858 53.65C237.858 56.2833 238.125 58.85 238.658 61.35C239.225 63.85 240.092 66.0667 241.258 68C242.425 69.9333 243.925 71.5 245.758 72.7C247.625 73.8667 249.858 74.45 252.458 74.45C255.025 74.45 257.225 73.85 259.058 72.65C260.892 71.45 262.392 69.8833 263.558 67.95C264.758 65.9833 265.625 63.7667 266.158 61.3C266.725 58.8 267.008 56.2667 267.008 53.7C267.008 51.0667 266.742 48.5167 266.208 46.05C265.675 43.55 264.825 41.3333 263.658 39.4C262.492 37.4667 260.975 35.9167 259.108 34.75C257.275 33.5833 255.042 33 252.408 33Z" fill="#3C3C3B"/>
<path d="M83.44 124.6C84.1067 124.6 84.6533 124.507 85.08 124.32C85.5067 124.133 85.8267 123.853 86.04 123.48C86.2533 123.107 86.4 122.64 86.48 122.08C86.56 121.493 86.6 120.813 86.6 120.04V95.2C86.6 94.6133 86.5733 94.0933 86.52 93.64C86.4667 93.16 86.3467 92.76 86.16 92.44C85.9733 92.0933 85.7067 91.8267 85.36 91.64C85.0133 91.4533 84.5467 91.36 83.96 91.36V90.96H98.36C100.173 90.96 101.787 91.2267 103.2 91.76C104.64 92.2933 105.893 93 106.96 93.88C108.027 94.76 108.933 95.7733 109.68 96.92C110.427 98.0667 111.027 99.2533 111.48 100.48C111.96 101.707 112.293 102.933 112.48 104.16C112.693 105.36 112.8 106.467 112.8 107.48C112.8 108.68 112.693 109.947 112.48 111.28C112.293 112.587 111.96 113.893 111.48 115.2C111.027 116.507 110.427 117.747 109.68 118.92C108.933 120.093 108.027 121.133 106.96 122.04C105.893 122.947 104.64 123.667 103.2 124.2C101.787 124.733 100.173 125 98.36 125H83.44V124.6ZM96.8 124.56C98.8533 124.56 100.573 124.08 101.96 123.12C103.373 122.16 104.493 120.893 105.32 119.32C106.173 117.72 106.773 115.893 107.12 113.84C107.493 111.787 107.68 109.667 107.68 107.48C107.68 105.4 107.467 103.4 107.04 101.48C106.64 99.5333 105.973 97.8133 105.04 96.32C104.133 94.8267 102.96 93.64 101.52 92.76C100.08 91.8533 98.32 91.4 96.24 91.4H91.72V124.56H96.8ZM119.706 124.6C120.372 124.6 120.919 124.507 121.346 124.32C121.772 124.133 122.092 123.853 122.306 123.48C122.519 123.107 122.666 122.64 122.746 122.08C122.826 121.493 122.866 120.813 122.866 120.04V95.2C122.866 94.6133 122.839 94.0933 122.786 93.64C122.732 93.16 122.612 92.76 122.426 92.44C122.239 92.0933 121.972 91.8267 121.626 91.64C121.279 91.4533 120.812 91.36 120.226 91.36V90.96H146.826V91.08L148.186 98.44L147.866 98.56C146.879 97.2 145.919 96.0667 144.986 95.16C144.052 94.2267 143.026 93.48 141.906 92.92C140.812 92.36 139.559 91.9733 138.146 91.76C136.759 91.52 135.132 91.4 133.266 91.4H127.986V105.44H129.626C131.439 105.44 132.946 105.347 134.146 105.16C135.346 104.973 136.332 104.68 137.106 104.28C137.906 103.853 138.532 103.293 138.986 102.6C139.439 101.88 139.826 101 140.146 99.96H140.386V111.32H140.146C139.666 110.333 139.186 109.493 138.706 108.8C138.226 108.107 137.612 107.547 136.866 107.12C136.146 106.667 135.212 106.347 134.066 106.16C132.919 105.947 131.439 105.84 129.626 105.84H127.986V124.56H132.306C134.119 124.56 135.759 124.453 137.226 124.24C138.719 124 140.079 123.6 141.306 123.04C142.559 122.453 143.719 121.667 144.786 120.68C145.852 119.693 146.892 118.453 147.906 116.96L148.186 117.04L146.826 125H119.706V124.6ZM178.913 95.92C178.913 95.1467 178.873 94.48 178.793 93.92C178.713 93.3333 178.566 92.8533 178.353 92.48C178.139 92.1067 177.819 91.8267 177.393 91.64C176.966 91.4533 176.419 91.36 175.753 91.36V90.96C177.059 91.0133 178.139 91.0667 178.993 91.12C179.846 91.1467 180.659 91.16 181.433 91.16C182.206 91.16 183.033 91.1467 183.913 91.12C184.793 91.0667 185.899 91.0133 187.233 90.96V91.36C186.566 91.36 186.019 91.4533 185.593 91.64C185.193 91.8 184.873 92.0533 184.633 92.4C184.419 92.72 184.259 93.1467 184.153 93.68C184.073 94.1867 184.033 94.8 184.033 95.52V124.56H189.313C191.179 124.56 192.806 124.453 194.193 124.24C195.606 124 196.859 123.6 197.953 123.04C199.073 122.48 200.099 121.747 201.033 120.84C201.966 119.907 202.926 118.76 203.913 117.4C203.939 117.4 203.979 117.413 204.033 117.44C204.086 117.467 204.113 117.493 204.113 117.52C204.139 117.52 204.179 117.533 204.233 117.56L202.873 124.88V125H176.273V124.6C176.859 124.6 177.326 124.507 177.673 124.32C178.019 124.133 178.286 123.88 178.473 123.56C178.659 123.213 178.779 122.813 178.833 122.36C178.886 121.88 178.913 121.347 178.913 120.76V95.92ZM210.065 107.88C210.065 105.453 210.478 103.2 211.305 101.12C212.158 99.04 213.332 97.2533 214.825 95.76C216.318 94.2667 218.078 93.0933 220.105 92.24C222.158 91.3867 224.385 90.96 226.785 90.96C229.212 90.96 231.452 91.4 233.505 92.28C235.585 93.1333 237.372 94.32 238.865 95.84C240.358 97.3333 241.518 99.12 242.345 101.2C243.198 103.253 243.625 105.48 243.625 107.88C243.625 110.253 243.185 112.48 242.305 114.56C241.452 116.64 240.265 118.453 238.745 120C237.252 121.547 235.478 122.773 233.425 123.68C231.398 124.56 229.212 125 226.865 125C224.438 125 222.198 124.56 220.145 123.68C218.092 122.8 216.318 121.6 214.825 120.08C213.332 118.533 212.158 116.72 211.305 114.64C210.478 112.533 210.065 110.28 210.065 107.88ZM226.825 91.4C224.692 91.4 222.892 91.8667 221.425 92.8C219.958 93.7067 218.758 94.92 217.825 96.44C216.892 97.96 216.212 99.72 215.785 101.72C215.385 103.693 215.185 105.76 215.185 107.92C215.185 110.027 215.398 112.08 215.825 114.08C216.278 116.08 216.972 117.853 217.905 119.4C218.838 120.947 220.038 122.2 221.505 123.16C222.998 124.093 224.785 124.56 226.865 124.56C228.918 124.56 230.678 124.08 232.145 123.12C233.612 122.16 234.812 120.907 235.745 119.36C236.705 117.787 237.398 116.013 237.825 114.04C238.278 112.04 238.505 110.013 238.505 107.96C238.505 105.853 238.292 103.813 237.865 101.84C237.438 99.84 236.758 98.0667 235.825 96.52C234.892 94.9733 233.678 93.7333 232.185 92.8C230.718 91.8667 228.932 91.4 226.825 91.4ZM252.31 114.64L252.63 114.68C252.844 116.12 253.23 117.453 253.79 118.68C254.35 119.88 255.07 120.92 255.95 121.8C256.83 122.68 257.857 123.373 259.03 123.88C260.23 124.36 261.564 124.6 263.03 124.6C264.337 124.6 265.564 124.467 266.71 124.2C267.884 123.907 268.897 123.467 269.75 122.88C270.63 122.293 271.324 121.56 271.83 120.68C272.337 119.773 272.59 118.693 272.59 117.44C272.59 116.267 272.27 115.293 271.63 114.52C271.017 113.72 270.204 113.04 269.19 112.48C268.177 111.92 267.017 111.44 265.71 111.04C264.404 110.613 263.057 110.2 261.67 109.8C260.31 109.373 258.977 108.907 257.67 108.4C256.364 107.893 255.204 107.267 254.19 106.52C253.177 105.773 252.35 104.88 251.71 103.84C251.097 102.773 250.79 101.467 250.79 99.92C250.79 98.2667 251.177 96.88 251.95 95.76C252.75 94.6133 253.777 93.6933 255.03 93C256.31 92.28 257.75 91.76 259.35 91.44C260.95 91.12 262.577 90.96 264.23 90.96C266.417 90.96 268.43 91.1867 270.27 91.64C272.11 92.0933 273.977 92.7867 275.87 93.72L273.87 100.64L273.47 100.6C273.417 99.2933 273.137 98.08 272.63 96.96C272.15 95.8133 271.497 94.84 270.67 94.04C269.844 93.2133 268.87 92.5733 267.75 92.12C266.657 91.64 265.47 91.4 264.19 91.4C263.017 91.4 261.897 91.56 260.83 91.88C259.764 92.1733 258.817 92.6133 257.99 93.2C257.164 93.7867 256.51 94.52 256.03 95.4C255.55 96.28 255.31 97.28 255.31 98.4C255.31 99.4933 255.617 100.413 256.23 101.16C256.87 101.88 257.697 102.493 258.71 103C259.75 103.48 260.924 103.907 262.23 104.28C263.564 104.653 264.91 105.04 266.27 105.44C267.657 105.813 269.004 106.24 270.31 106.72C271.644 107.2 272.817 107.813 273.83 108.56C274.87 109.28 275.697 110.187 276.31 111.28C276.95 112.347 277.27 113.667 277.27 115.24C277.27 117.08 276.884 118.627 276.11 119.88C275.337 121.133 274.297 122.147 272.99 122.92C271.684 123.667 270.164 124.2 268.43 124.52C266.724 124.84 264.937 125 263.07 125C260.777 125 258.59 124.733 256.51 124.2C254.457 123.667 252.457 122.8 250.51 121.6L252.31 114.64Z" fill="#3C3C3B"/>
<path d="M275.176 127.84C277.264 127.84 278.888 127.608 280.048 127.144C281.285 126.68 282.213 125.984 282.832 125.056C283.451 124.051 283.837 122.775 283.992 121.228C284.224 119.681 284.34 117.864 284.34 115.776V40.144C283.489 38.5973 282.716 37.244 282.02 36.084C281.401 34.8467 280.86 33.8027 280.396 32.952C279.855 31.9467 279.352 31.0573 278.888 30.284H295.94C296.559 31.444 297.835 33.8027 299.768 37.36C301.779 40.9173 304.176 45.2093 306.96 50.236C309.744 55.2627 312.799 60.792 316.124 66.824C319.449 72.7787 322.775 78.772 326.1 84.804C329.425 90.7587 332.596 96.52 335.612 102.088C338.705 107.656 341.412 112.489 343.732 116.588V43.508C343.732 41.42 343.616 39.6027 343.384 38.056C343.229 36.5093 342.843 35.272 342.224 34.344C341.605 33.3387 340.677 32.604 339.44 32.14C338.28 31.676 336.656 31.444 334.568 31.444V30.284C336.888 30.3613 338.821 30.4387 340.368 30.516C341.992 30.516 343.461 30.516 344.776 30.516C346.168 30.516 347.56 30.516 348.952 30.516C350.421 30.4387 352.161 30.3613 354.172 30.284V31.444C352.084 31.444 350.421 31.6373 349.184 32.024C348.024 32.4107 347.135 33.068 346.516 33.996C345.897 34.924 345.472 36.2 345.24 37.824C345.085 39.3707 345.008 41.304 345.008 43.624V118.908C345.859 120.455 346.632 121.847 347.328 123.084C348.024 124.321 348.604 125.365 349.068 126.216C349.609 127.221 350.112 128.149 350.576 129H333.64C332.712 127.299 331.165 124.553 329 120.764C326.912 116.897 324.437 112.451 321.576 107.424C318.792 102.32 315.776 96.8293 312.528 90.952C309.28 84.9973 306.032 79.12 302.784 73.32C299.536 67.4427 296.404 61.836 293.388 56.5C290.449 51.0867 287.859 46.3693 285.616 42.348V116.124C285.616 118.367 285.693 120.261 285.848 121.808C286.08 123.277 286.505 124.476 287.124 125.404C287.743 126.255 288.632 126.873 289.792 127.26C291.029 127.647 292.692 127.84 294.78 127.84V129C292.769 128.923 291.029 128.884 289.56 128.884C288.168 128.807 286.776 128.768 285.384 128.768C284.069 128.768 282.6 128.807 280.976 128.884C279.429 128.884 277.496 128.923 275.176 129V127.84Z" fill="#69735B"/>
<path d="M359.8 110.6C359.8 107.567 360.317 104.75 361.35 102.15C362.417 99.55 363.883 97.3167 365.75 95.45C367.617 93.5833 369.817 92.1167 372.35 91.05C374.917 89.9833 377.7 89.45 380.7 89.45C383.733 89.45 386.533 90 389.1 91.1C391.7 92.1667 393.933 93.65 395.8 95.55C397.667 97.4167 399.117 99.65 400.15 102.25C401.217 104.817 401.75 107.6 401.75 110.6C401.75 113.567 401.2 116.35 400.1 118.95C399.033 121.55 397.55 123.817 395.65 125.75C393.783 127.683 391.567 129.217 389 130.35C386.467 131.45 383.733 132 380.8 132C377.767 132 374.967 131.45 372.4 130.35C369.833 129.25 367.617 127.75 365.75 125.85C363.883 123.917 362.417 121.65 361.35 119.05C360.317 116.417 359.8 113.6 359.8 110.6ZM380.75 90C378.083 90 375.833 90.5833 374 91.75C372.167 92.8833 370.667 94.4 369.5 96.3C368.333 98.2 367.483 100.4 366.95 102.9C366.45 105.367 366.2 107.95 366.2 110.65C366.2 113.283 366.467 115.85 367 118.35C367.567 120.85 368.433 123.067 369.6 125C370.767 126.933 372.267 128.5 374.1 129.7C375.967 130.867 378.2 131.45 380.8 131.45C383.367 131.45 385.567 130.85 387.4 129.65C389.233 128.45 390.733 126.883 391.9 124.95C393.1 122.983 393.967 120.767 394.5 118.3C395.067 115.8 395.35 113.267 395.35 110.7C395.35 108.067 395.083 105.517 394.55 103.05C394.017 100.55 393.167 98.3333 392 96.4C390.833 94.4667 389.317 92.9167 387.45 91.75C385.617 90.5833 383.383 90 380.75 90ZM410.178 94.95C409.411 93.1833 408.695 91.95 408.028 91.25C407.395 90.55 406.745 90.0833 406.078 89.85L406.128 89.45C407.528 89.5167 408.761 89.5833 409.828 89.65C410.928 89.7167 412.011 89.75 413.078 89.75C413.845 89.75 414.645 89.7333 415.478 89.7C416.345 89.6667 417.295 89.6 418.328 89.5C419.695 89.3667 420.861 89.5667 421.828 90.1C422.828 90.6333 423.695 91.35 424.428 92.25C425.161 93.15 425.778 94.1667 426.278 95.3C426.778 96.4 427.211 97.45 427.578 98.45C427.778 99.0167 427.978 99.65 428.178 100.35C428.411 101.017 428.628 101.7 428.828 102.4C429.061 103.1 429.311 103.783 429.578 104.45C429.845 105.083 430.161 105.633 430.528 106.1C430.895 106.567 431.328 106.933 431.828 107.2C432.328 107.467 432.861 107.6 433.428 107.6C433.928 107.6 434.428 107.483 434.928 107.25C435.428 106.983 435.878 106.567 436.278 106L440.828 94.45C441.295 93.2167 441.161 92.2 440.428 91.4C439.695 90.6 438.278 90.0833 436.178 89.85V89.45C437.045 89.5167 437.861 89.5833 438.628 89.65C439.395 89.6833 440.128 89.7 440.828 89.7C441.661 89.7 442.445 89.6833 443.178 89.65C443.911 89.5833 444.645 89.5167 445.378 89.45V89.85C444.811 90.05 444.345 90.2667 443.978 90.5C443.611 90.7333 443.295 91 443.028 91.3C442.761 91.6 442.511 91.9667 442.278 92.4C442.078 92.8333 441.845 93.35 441.578 93.95C441.511 94.0833 441.245 94.7333 440.778 95.9C440.345 97.0667 439.761 98.5667 439.028 100.4C438.328 102.2 437.528 104.233 436.628 106.5C435.728 108.767 434.811 111.067 433.878 113.4C431.711 118.9 429.261 125.1 426.528 132H426.128L410.178 94.95ZM417.428 91C416.928 91.5667 416.695 92.2167 416.728 92.95C416.795 93.6833 417.028 94.55 417.428 95.55L429.378 123.35L435.728 107.35C435.028 107.85 434.278 108.1 433.478 108.1C432.845 108.1 432.228 107.967 431.628 107.7C431.061 107.4 430.561 106.967 430.128 106.4C429.761 105.9 429.428 105.317 429.128 104.65C428.861 103.983 428.611 103.3 428.378 102.6C428.145 101.867 427.911 101.167 427.678 100.5C427.478 99.8 427.278 99.1833 427.078 98.65C426.778 97.8167 426.428 96.9667 426.028 96.1C425.628 95.2 425.161 94.35 424.628 93.55C424.128 92.75 423.528 92.05 422.828 91.45C422.161 90.85 421.411 90.4333 420.578 90.2C420.011 90.0333 419.445 90.0167 418.878 90.15C418.311 90.2833 417.828 90.5667 417.428 91ZM460.161 131.8C459.095 131.8 458.095 131.817 457.161 131.85C456.261 131.85 455.478 131.867 454.811 131.9C454.011 131.933 453.295 131.967 452.661 132V131.5C453.561 131.5 454.261 131.4 454.761 131.2C455.295 131 455.695 130.7 455.961 130.3C456.228 129.867 456.395 129.317 456.461 128.65C456.561 127.983 456.611 127.2 456.611 126.3V94.75C456.611 94.0167 456.578 93.3667 456.511 92.8C456.445 92.2 456.295 91.7 456.061 91.3C455.828 90.8667 455.495 90.5333 455.061 90.3C454.628 90.0667 454.045 89.95 453.311 89.95V89.45C454.745 89.55 455.928 89.6333 456.861 89.7C457.828 89.7333 458.745 89.75 459.611 89.75C460.545 89.75 461.511 89.7333 462.511 89.7C463.511 89.6333 464.778 89.55 466.311 89.45V89.95C465.578 89.95 464.995 90.0667 464.561 90.3C464.128 90.5 463.795 90.8 463.561 91.2C463.328 91.6 463.178 92.1 463.111 92.7C463.045 93.2667 463.011 93.9 463.011 94.6V126.3C463.011 127.2 463.061 127.983 463.161 128.65C463.295 129.283 463.495 129.817 463.761 130.25C464.061 130.65 464.461 130.967 464.961 131.2C465.495 131.4 466.178 131.5 467.011 131.5V132C465.845 131.933 464.678 131.883 463.511 131.85C462.345 131.817 461.228 131.8 460.161 131.8ZM475.63 110.6C475.63 107.567 476.147 104.75 477.18 102.15C478.247 99.55 479.713 97.3167 481.58 95.45C483.447 93.5833 485.647 92.1167 488.18 91.05C490.747 89.9833 493.53 89.45 496.53 89.45C499.563 89.45 502.363 90 504.93 91.1C507.53 92.1667 509.763 93.65 511.63 95.55C513.497 97.4167 514.947 99.65 515.98 102.25C517.047 104.817 517.58 107.6 517.58 110.6C517.58 113.567 517.03 116.35 515.93 118.95C514.863 121.55 513.38 123.817 511.48 125.75C509.613 127.683 507.397 129.217 504.83 130.35C502.297 131.45 499.563 132 496.63 132C493.597 132 490.797 131.45 488.23 130.35C485.663 129.25 483.447 127.75 481.58 125.85C479.713 123.917 478.247 121.65 477.18 119.05C476.147 116.417 475.63 113.6 475.63 110.6ZM496.58 90C493.913 90 491.663 90.5833 489.83 91.75C487.997 92.8833 486.497 94.4 485.33 96.3C484.163 98.2 483.313 100.4 482.78 102.9C482.28 105.367 482.03 107.95 482.03 110.65C482.03 113.283 482.297 115.85 482.83 118.35C483.397 120.85 484.263 123.067 485.43 125C486.597 126.933 488.097 128.5 489.93 129.7C491.797 130.867 494.03 131.45 496.63 131.45C499.197 131.45 501.397 130.85 503.23 129.65C505.063 128.45 506.563 126.883 507.73 124.95C508.93 122.983 509.797 120.767 510.33 118.3C510.897 115.8 511.18 113.267 511.18 110.7C511.18 108.067 510.913 105.517 510.38 103.05C509.847 100.55 508.997 98.3333 507.83 96.4C506.663 94.4667 505.147 92.9167 503.28 91.75C501.447 90.5833 499.213 90 496.58 90ZM528.437 119.05L528.837 119.1C529.103 120.9 529.587 122.567 530.287 124.1C530.987 125.6 531.887 126.9 532.987 128C534.087 129.1 535.37 129.967 536.837 130.6C538.337 131.2 540.003 131.5 541.837 131.5C543.47 131.5 545.003 131.333 546.437 131C547.903 130.633 549.17 130.083 550.237 129.35C551.337 128.617 552.203 127.7 552.837 126.6C553.47 125.467 553.787 124.117 553.787 122.55C553.787 121.083 553.387 119.867 552.587 118.9C551.82 117.9 550.803 117.05 549.537 116.35C548.27 115.65 546.82 115.05 545.187 114.55C543.553 114.017 541.87 113.5 540.137 113C538.437 112.467 536.77 111.883 535.137 111.25C533.503 110.617 532.053 109.833 530.787 108.9C529.52 107.967 528.487 106.85 527.687 105.55C526.92 104.217 526.537 102.583 526.537 100.65C526.537 98.5833 527.02 96.85 527.987 95.45C528.987 94.0167 530.27 92.8667 531.837 92C533.437 91.1 535.237 90.45 537.237 90.05C539.237 89.65 541.27 89.45 543.337 89.45C546.07 89.45 548.587 89.7333 550.887 90.3C553.187 90.8667 555.52 91.7333 557.887 92.9L555.387 101.55L554.887 101.5C554.82 99.8667 554.47 98.35 553.837 96.95C553.237 95.5167 552.42 94.3 551.387 93.3C550.353 92.2667 549.137 91.4667 547.737 90.9C546.37 90.3 544.887 90 543.287 90C541.82 90 540.42 90.2 539.087 90.6C537.753 90.9667 536.57 91.5167 535.537 92.25C534.503 92.9833 533.687 93.9 533.087 95C532.487 96.1 532.187 97.35 532.187 98.75C532.187 100.117 532.57 101.267 533.337 102.2C534.137 103.1 535.17 103.867 536.437 104.5C537.737 105.1 539.203 105.633 540.837 106.1C542.503 106.567 544.187 107.05 545.887 107.55C547.62 108.017 549.303 108.55 550.937 109.15C552.603 109.75 554.07 110.517 555.337 111.45C556.637 112.35 557.67 113.483 558.437 114.85C559.237 116.183 559.637 117.833 559.637 119.8C559.637 122.1 559.153 124.033 558.187 125.6C557.22 127.167 555.92 128.433 554.287 129.4C552.653 130.333 550.753 131 548.587 131.4C546.453 131.8 544.22 132 541.887 132C539.02 132 536.287 131.667 533.687 131C531.12 130.333 528.62 129.25 526.187 127.75L528.437 119.05Z" fill="#69735B"/>
<path d="M361.8 74.5C362.633 74.5 363.317 74.3833 363.85 74.15C364.383 73.9167 364.783 73.5667 365.05 73.1C365.317 72.6333 365.5 72.05 365.6 71.35C365.7 70.6167 365.75 69.7667 365.75 68.8V37.75C365.75 37.0167 365.717 36.3667 365.65 35.8C365.583 35.2 365.433 34.7 365.2 34.3C364.967 33.8667 364.633 33.5333 364.2 33.3C363.767 33.0667 363.183 32.95 362.45 32.95V32.45H395.7V32.6L397.4 41.8L397 41.95C395.767 40.25 394.567 38.8333 393.4 37.7C392.233 36.5333 390.95 35.6 389.55 34.9C388.183 34.2 386.617 33.7167 384.85 33.45C383.117 33.15 381.083 33 378.75 33H372.15V50.55H374.2C376.467 50.55 378.35 50.4333 379.85 50.2C381.35 49.9667 382.583 49.6 383.55 49.1C384.55 48.5667 385.333 47.8667 385.9 47C386.467 46.1 386.95 45 387.35 43.7H387.65V57.9H387.35C386.75 56.6667 386.15 55.6167 385.55 54.75C384.95 53.8833 384.183 53.1833 383.25 52.65C382.35 52.0833 381.183 51.6833 379.75 51.45C378.317 51.1833 376.467 51.05 374.2 51.05H372.15V74.45H377.55C379.817 74.45 381.867 74.3167 383.7 74.05C385.567 73.75 387.267 73.25 388.8 72.55C390.367 71.8167 391.817 70.8333 393.15 69.6C394.483 68.3667 395.783 66.8167 397.05 64.95L397.4 65.05L395.7 75H361.8V74.5ZM406.941 62.05L407.341 62.1C407.607 63.9 408.091 65.5667 408.791 67.1C409.491 68.6 410.391 69.9 411.491 71C412.591 72.1 413.874 72.9667 415.341 73.6C416.841 74.2 418.507 74.5 420.341 74.5C421.974 74.5 423.507 74.3333 424.941 74C426.407 73.6333 427.674 73.0833 428.741 72.35C429.841 71.6167 430.707 70.7 431.341 69.6C431.974 68.4667 432.291 67.1167 432.291 65.55C432.291 64.0833 431.891 62.8667 431.091 61.9C430.324 60.9 429.307 60.05 428.041 59.35C426.774 58.65 425.324 58.05 423.691 57.55C422.057 57.0167 420.374 56.5 418.641 56C416.941 55.4667 415.274 54.8833 413.641 54.25C412.007 53.6167 410.557 52.8333 409.291 51.9C408.024 50.9667 406.991 49.85 406.191 48.55C405.424 47.2167 405.041 45.5833 405.041 43.65C405.041 41.5833 405.524 39.85 406.491 38.45C407.491 37.0167 408.774 35.8667 410.341 35C411.941 34.1 413.741 33.45 415.741 33.05C417.741 32.65 419.774 32.45 421.841 32.45C424.574 32.45 427.091 32.7333 429.391 33.3C431.691 33.8667 434.024 34.7333 436.391 35.9L433.891 44.55L433.391 44.5C433.324 42.8667 432.974 41.35 432.341 39.95C431.741 38.5167 430.924 37.3 429.891 36.3C428.857 35.2667 427.641 34.4667 426.241 33.9C424.874 33.3 423.391 33 421.791 33C420.324 33 418.924 33.2 417.591 33.6C416.257 33.9667 415.074 34.5167 414.041 35.25C413.007 35.9833 412.191 36.9 411.591 38C410.991 39.1 410.691 40.35 410.691 41.75C410.691 43.1167 411.074 44.2667 411.841 45.2C412.641 46.1 413.674 46.8667 414.941 47.5C416.241 48.1 417.707 48.6333 419.341 49.1C421.007 49.5667 422.691 50.05 424.391 50.55C426.124 51.0167 427.807 51.55 429.441 52.15C431.107 52.75 432.574 53.5167 433.841 54.45C435.141 55.35 436.174 56.4833 436.941 57.85C437.741 59.1833 438.141 60.8333 438.141 62.8C438.141 65.1 437.657 67.0333 436.691 68.6C435.724 70.1667 434.424 71.4333 432.791 72.4C431.157 73.3333 429.257 74 427.091 74.4C424.957 74.8 422.724 75 420.391 75C417.524 75 414.791 74.6667 412.191 74C409.624 73.3333 407.124 72.25 404.691 70.75L406.941 62.05Z" fill="#3C3C3B"/>
</svg>
